
<svg xmlns="http://www.w3.org/2000/svg" xmlns:xlink="http://www.w3.org/1999/xlink" viewBox="0 0 231.196 112.12"><defs><style>.a{opacity:0.8;}.b,.e{fill:none;stroke:#d8d8d8;stroke-width:0.5px;}.c{clip-path:url(#a);}.d{fill:url(#b);}.e{stroke-linecap:round;stroke-linejoin:round;}.f{fill:#77838f;font-size:3px;font-family:HelveticaNeue, Helvetica Neue;}</style><clipPath id="a"><rect width="216.908" height="103.043"/></clipPath><linearGradient id="b" x2="0" y2="1" gradientUnits="objectBoundingBox"><stop offset="0" stop-color="#d8d8d8"/><stop offset="1" stop-color="#bbbfc4" stop-opacity="0"/></linearGradient></defs><g transform="translate(-14.067 -84)"><g class="a" transform="translate(28.355 86.303)"><path class="b" d="M74,510.5H290.908" transform="translate(-74 -407.214)"/><path class="b" d="M74,425.5H290.908" transform="translate(-74 -342.871)"/><path class="b" d="M74,340.5H290.908" transform="translate(-74 -278.528)"/><path class="b" d="M74,256.5H290.908" transform="translate(-74 -214.942)"/><path class="b" d="M74,171.5H290.908" transform="translate(-74 -150.6)"/><path class="b" d="M74,85.5H290.908" transform="translate(-74 -85.5)"/></g><g class="a" transform="translate(28.355 189.467)"><path class="b" d="M140.5,510v2.43" transform="translate(-112.546 -510)"/><path class="b" d="M213.5,510v2.43" transform="translate(-154.859 -510)"/><path class="b" d="M287.5,510v2.43" transform="translate(-197.752 -510)"/><path class="b" d="M359.5,510v2.43" transform="translate(-239.486 -510)"/><path class="b" d="M433.5,510v2.43" transform="translate(-282.379 -510)"/><path class="b" d="M505.5,510v2.43" transform="translate(-324.113 -510)"/><path class="b" d="M579.5,510v2.43" transform="translate(-367.006 -510)"/><path class="b" d="M74,510.5H290.908" transform="translate(-74 -510.378)"/></g><g transform="translate(28.355 86.424)"><g class="c" transform="translate(0 0)"><path class="d" d="M5.059,112.993H6.236L6.4,99.422l.168,8.748.168,4.575.168-.216.168-.557.168.567.168-.093.168.1.168.082.168-.01h.168l.168-.072.168-.134.168.062.168-.175.168.124.168-.206.168.155.168-.113.168.082.168-.381.168.237.168.041.168-.062.168-.216.168-.134.168-.113.168.052.168-.01.168.175.168.124.168-.227.168.1.168-.072.168.206.168-.093.168-.2.168.041.168.01.168.155.168.041.168-.031.168-.433.168.453.168-.3.168.041.168-.134.168.113.168.052.168.062.168.072.168-.072.168-.041.168.082.168-.01.168.062.168-.072.168-.02.168-.031.168-.247.168.155.168-.227.168.175.168.113.168.041.168.165.168-.278.168-.155.168.144.168-1.03.168-.371.168,1.2.168-.165.168.226.168.175.168.072.168-.433h.168l.168.278.168.247.168-.268.168-.938.168.958.168-.2.168-.031.168-.33.168-.113.168.752.168-.268.168.371.168-.134.168-.69.168-1.834.168.134.168,2.3.168-.484.168-.835.168-.206.168,1.113.168-.515.168.886.168.237.168.093.168-.165.168-.659.168.422.168.185h.168l.168-.2.168.1.168-.165.168.423.168.041.168-.711.168.7.168-1.329.168.948.168.072.168.175.168-.227.168-.041.168-.628.168.979.168.021.168.01.168-.175.168-.443.168-.536.168.268.168-7.265.168-3.174.168,6.935.168,1.6.168-.01.168.423.168-.824.168-.546.168-2.277.168-2.195.168,3.658.168,2.452.168-.608.168-4.42.168,3.843.168.34.168-4.678.168,5.822.168.989.168-.412.168.01.168-.227.168-4.287.168-1.144.168-.072.168,5.018.168-1.608.168,1.515.168.062.168-.041.168-3.493.168,3.483.168.5.168-.072.168.618L34,109.17l.168-.649.168,2.205H34.5l.168-1.463.168,1.587.168-.546.168-2.2.168.6.168-2.215.168,1.587.168.557.168.783.168.021.168.495.168-.01.168.206.168-.309.168-.288.168-6.482.168,7.007.168.031.168-.072.168-.268.168-1.216.168.938.168-.556.168.7.168-.217.168-.247.168-1.041.168,1.35.168-.742.168,1.03.168-.052.168-.268.168-6.667.168,4.431.168,2.164.168-2.6.168,2.731.168.082.168-.546.168.144.168-.113.168-.3.168,1.226.168-.495.168-.464.168.33.168.474h.168l.168.268.168.1.168-.7.168-.041.168-.557.168.793.168.062.168-.464.168.237.168-1.072.168.34.168.144.168.01.168-.443.168-1.34.168,1.092.168-.031L45.6,110l.168-1.329.168.752.168-1.216.169.845.168.031.168.989.168.01.168-1.113.169-.618.168,1.2.168-.072.168-.505.169.763.168.216.168.062.168-.752.168-.793.169.464.168.258.168,1.051.168-1.607.169,1.082.168.144.168-.762.168-.66.168,1.216.169.227.168-.6.168-.144.168.4.169.134.168-.35.168-.186.168-1.133.168-.577.169,1.329.168.093L52,108.6l.168-.526.169-.9.168,2.1.168-.845.168.288.168-.134.169-.762.168-.69.168-.124.168.33.169.443.168.608.168-.031.168-.865.168.206.169-.721.168.1.168,1.34.168-.258.169.237.168-.732.168-.557.168-.134.169-4.75.168,4.833.168.8.168-.062.168.021.169,1,.168.041.168.093.168.082.169-.134.168-6.265.168,5.812.168-.113.168-.175.169.361.168-.227.168-1.36.168-.288.169,1.288.168-1.546L59.4,77.185l.168-12.633.168,39.527.169-.021.168-1.463.168,2.185.168,2.865.169-1.3.168,1.9.168-.608.168-1.577.168-.773.169-1.608.168-5.461.168,7.079.168,3.607.169-1.072.168.752.168-.618.168.062.168.546.169-2.3.168-1.618.168,3.7.168-.082.169-.814.168,1.4.168-1.288.168.464.168,1.02.169.69.168-.989.168-.752.168-8.285.169,7.687.168-.793.168,1.041.168-.639.168-.392.169-1.061.168,1.35.168-1.484.168.2.169,2.36.168.1.168-.093.168-.618.168.2.169.237.168.484.168.392.168-.237.169-4.72L68.317,108l.168-.319.168.165.168.33.169.69.168.155.168-.433.168-.711.169.412.168-1.206.168,1.1.168.423.168-.206.169-.3.168-7.615.168,7.574.168-.464.169.134.168.6.168.474.168-.608.169-.546.168.464.168-.361.168-2.287.168,3,.169-3.339.168,3.184.168-.886.168-.052.169-1.154.168-.113.168,2.453.168.052.168-1.185.169.577.168-1.051.168.031.168-1.9.169,2.174.168.68.168.845.168-1.051.168.216.169-6.564.168-10.789.168-11.221.168,14.457L76.393,83.1l.168.02.168,5.4.168,8.81.168,1.113.169-32.809L77.4,70.6l.168,12.293.168-6.615.169,2.823.168,7.193.168-1.618.168-.155.168-2.38.169,2.72.168,10.325.168.062.168,1.762.169-6.9.168-12.654.168,1.845.168-3.586.168-3.813.169,15.693.168,3.936.168-.361.168,6.811.169,6.378L81.1,98.1l.168,1.247.168,2.473.168.134.169-.083.168,1.082.168.258.168-1.546.169-1.68.168,2.648.168.165.168,2.247.168-.742.169.495.168-1.247.168-1.34.168-1.371.169.526.168.35.168,1.329.168-.866.168-1.556.169.175.168,1.041.168.66.168-.515.169,1.741.168-1.278.168-.927.168-2.195.168-14.292.169,15.632.168-5.008.168,1.9.168-8.336.169-.515.168,3.854.168,12.963.168,1.37.168-.515.169-.134.168-.288.168.422.168.35.169.309.168.752.168-.464.168.113.169-2.112.168,2.154.168-.113.168-2.133.168-.237.169,2.081.168-.453.168.422.168-.711.169.185.168-1.144.168-.072.168,1.9.168.68.169.732.168.134.168-1.906.168.392.169-1.144.168.3.168.67.168,1.082.168-.4.169-2.092.168.124.168.731.168.392.169.175.168-.227.168-.433.168-.525.168.608.169-.6.168-.052.168,1.484.168.01.169-.495.168-1.319.168,1.051.168.484.168-.752.169.783.168-1.061.168.093.168-1.164.169.855.168.165.168.3.168.165.168.618.169-.495.168.412.168-1.381.168.742.169.134.168.361.168-.474.168-.165.168-1.7.169.732.168.392.168-1.288.168,1.092.169.124.168-2.463.168.546.168-.546.168,2.5h.169l.168-.6.168,1.113.168-.824.169-2.39.168.773.168,1.494.168.1.168-.845.169,1.391.168-1.072.168-.7.168-.505.169-.247.168.927.168.721.168.062.168.165.169-.608.168.979.168-2.03.168-.3.169.721.168-.1.168-4.555.168.319.169,1.69.168-3.936.168,1.453.168,2.8.168.577.169.288.168-.989.168.69.168-.495.169-.216.168,1.01.168-.526.168-3.936.168,2.875.169-.618.168-.288.168-1.123.168,3.565.169-1.865.168-1.154.168,1.69.168-.392.168-1.144.169-.021.168,3.679.168-1.535.168-.649.169.361.168-2.391.168,1.875.168-.114.168.8.169.536.168-1.02.168-1.783.168-1.587.169.68.168-1.164.168,2.72.168.546.168-.752.169-1.37.168.2.168-2,.168,1.247.169,2.071.168-1.216.168-4.472.168-1.01.168,5.08.169-2.906.168,1.968.168-.814.168-1.875.169-.217.168-2.3.168-.216.168-.082.168-.989.169.433.168-1.144.168-5.07.168.01.169-6.677.168,3.1.168-5.461.168,5.451.168-1.937.169-2.658.168-11.448.168-2.2.168,6.172.169,2.483.168,5,.168-2.535.168,2.226.168-14.591.169-5.585.168,8.656.168-8.553.168,13.416.169-2.1.168,4.39.168-5.451.168-2.123.168,5.173.169-3.3.168,6L119.8,60.07l.168-10.48.169,12.159.168,3.833.168-1.556.168-.021.169,1.412.168-3.37.168-5.873.168-15.085.168-.433.169-2.432.168,17.445.168-2.988.168,5.2.169-4.575.168,8.615.168-16.044.168,11.345.168,13.643.169,3.71.168-1.278.168-9.5.168,3.39.169-.021.168,5.7.168-1.813.168,3.122.168,7.275.169-13.221.168-3.1.168-.546.168-2.576.169,7.584.168,7.893.168-2.277.168-3.421.168-6.409.169,7.5.168,1.494.168,3.338.168,3.854.169-6.986.168-7.151.168,5.039.168,4.781.168,2.247.169-5.946.168,8.14.168-7.285.168-4.142.169-4.987.168,3.988.168-3.74.168-1.659.168-.052.169,1.391.168-4.029.168-6.213.168,5.286.169-4.41.168-6.265.168.546.168,1.917.168-11.1.169-11.139.168-2.37.168,3.854.168,1.164.169,10.469.168,11.335.168-4.369.168.031.168.392.169,5.43.168-3.679.168-.536.168-4.039.169-7.9.168-13.911.168,7.677.168-4.39.168,1.113.169,13.818.168,7.986.168-20.073.168-7.522.169-6.739.168.886.168,4.6.168,12.458.168,9.387.169-8.017.168-4.987.168,2.8.168.175.169-9.521.168.9.168,17.2.168-8.316.169,1.628.168-5.564.168,7.945.168-2.741.168,1.319.169-3.3.168-4.925.168-8.079.168,6.389.169-.567.168-.464.168,1.226.168,2.968.168-1.453.169-4.936.168.793.168,5.513.168-5.327.169,7.069.168-3.225.168-4.668.168,3.112.168.34.169-4.451.168.062.168-.021.168.9.169,14.508.168,14.952L141.5,60l.168-6.007.168-6.4.169,20.9.168,1.814.168-11.572.168-10.954.169-.134.168,1.082.168-.917.168,5.605.168-1.69.169-5.966.168-4.936.168-1.3.168-.732.169,6.306.168,14.952.168,7.192.168-6.626.168-4.132.169-1.2.168-4.183.168,4.142.168,2.215.169-.814.168-4.122.168-4.575.168-2.123.168,3.607.169-2.349.168,5.338.168,1.855.168-5.977.169.309.168.433.168-2.288.168,1.453.168-2.978.169-1.072.168-8.285.168.876.168,2.1.169,2.112.168-7.594.168,3.163.168-7.46.168-10.376.169-1.752.168,1.2.168-3.194.168-1.206.169-.484.168,1.721.168,1.01.168-.031.168,2.236.169-4.709.168,4.833.168.33.168,1.391.169-3.308.168-3.411.168,3.493.168-2.875.169,2.525.168,6.193.168,4.585.168,6.955.168-4.451.169-6.42.168-.773.168-6.214.168,3.947.169,4.421.168,1.566.168-8.9.168-1.577.168-.433.169.227.168-.474.168-.608.168-.5.169,1.144.168-.2.168,1.061.168-1.206.168-.7.169.969.168-1.927.168.989.168,1.566.169.144.168,5.029.168-.495.168,1.443.168-1.649.169-.2.168,4.163.168,4.5.168-3.555.169,8.707.168-5.008.168-3.339L159,23.253l.168-.629.169-2.246.168,2.865.168,4.163.168,1.494.169-1.968.168.433.168.7.168,4.41.168-3.586.169-1.577.168,2.823L161.185,29l.168,3.967.169-.639.168-1.937.168.556.168-1.628.168-1.175.169-1.69.168-6.492.168,3.04.168,4.771.169,2.607.168-1.546.168.989.168.144.168.526.169-3.39.168,3.339.168-4.792.168,5.317.169-2.844.168-.082.168,3.328.168-2.174.168,1.391.169,1.525.168,1.989.168,3.339.168-6.8.169,4.513.168-.5.168.835.168,1.412.168,6.9.169-10.212.168,2.009.168,2.092.168-4.039.169,6.986.168-2.185.168,4.6.168,1.515.169-.186.168,2.463.168,2.071.168-3.174.168-6.141.169,1.762.168,1.36.168-2.215.168-6.244.169-3.009.168-.021.168-3.246.168,9.923.168-3.06.169-.175.168,5.049.168-4.967.168-6.9.169-1.814.168,6.2.168-.309.168-8.862.168.495.169-3.462.168-.814.168-.886.168,5.977.169-.608.168-1.113.168-.969.168,2.164.168,1.494.169,1.422.168,1.917.168-2.906.168-2.7.169-2.844.168-.433.168-.134.168.453.168.464.169.556.168,1.741.168-.567.168-1.772.169-3.06.168.979.168.464.168-.227.168-.845.169.371.168-.824.168-.052.168.907.169.361.168.062.168-.659.168-.556.168,1.288.169-1.319.168.855.168.824.168-1,.169-1.4.168-.752.168.814.168-2.164.168,1.494.169,1.319.168-.577.168-.556.168.5.169,3.349.168-.866.168-.845.168,1.525.168-.515.169-.917.168.721.168,2.617.168,9.047.169-1.319.168-6.43.168,3.215.168-1.216.168-4.39.169-1.8.168,1.443.168,1.535.168,9.377.169-1.072.168-7.234.168-.443.168.371.169.835.168.392.168-6,.168-3.38.168,1.7.169-.752.168-.35.168.639.168.392.169-.649.168,6.718.168-4.936.168,1.968.168-.577.169-1.37.168-2.349.168.5.168,2.185.169,1.649.168-.155.168.5.168-1.731.168-.381.169.948.168-.041.168-.289.168,1.237.169-.639.168-.113.168,4.781.168,7.275.168.556.169-7.223.168-1.906.168-2.9.168.072.169.35.168,1.216.168.5.168-2.586.168-2.854.169-1.577.168,1.133.168,4.792.168,6.821.169-.237.168-.268.168,1.133.168-5.41.168-.206.169-3.431.168.433.168,2.741.168.773.169-2.411.168.258.168-.567.168.041.168.68.169.144.168,1.638.168-2.844.168,3.411.169-1.34.168-.752.168-.124.168,2.535.168-1.154.169.536.168,2.9.168-2.009.168-2.061.169-1.453.168.876.168,2.318.168,2.257.168-2.277.169,3.37.168-1.587.168-3.112.168,1.278.169.2.168.515.168-1.3.168,3.029.168-1.278.169.453.168.958.168-1.237.168-.34.169-2.174.168.5.168,1.257.168,4.812.168,1.144.169,1.474.168-.443.168-3.926.168.2.169,1.772.168,1.978.168,11.829.168-6.142.169-1.237.168,6.049.168-7.635.168-1.422.168,4.823.169,1.834.168,3.3.168-4.967.168-1.01.169-.32.168,2.082.168-.113.168-.752.168-3.73.169,3.174.168-3.452.168-4.451.168,4.6.169,5.791.168.67.168-2.081.168.484.168.124.169.629.168-.01.168,2.349.168-1.3.169-2.4.168.371.168.907.168-.227.168,1.515.169-1.2.168-.361.168.876.168,1.473.169-3.988.168,1.474.168.546.168.082.168-2.36.169-8.089.168,3.349.168,3.184.168,2.669.169-1.133.168,7.893.168-2.8.168-3.658.168-3.607.169-3.5.168-3.6.168-3.009.168,7.852.169,1.989.168-3.545.168-.01.168-3.153.168,2.349.169,1.783.168,3.442.168,1.494.168,1.03.169-1.422.168,1.082.168-1.329.168,1.226.168-1.051.169.268L213,34.1l.168-1.443.168-.649.169-.577.168.814.168,4.926.168-1.7.168-2.648.169-1.051.168,1.927.168,2.473.168-2.03.169,2.885.168-5.07.168,4.637.168,4,.168-4.555.169-1.494.168.062.168,4.225.168,4.555.169-3.71.168,1.072.168.34.168-2.617.169-2.628.168,8.048.168,1.525.168-9.058v76.633H5.059" transform="translate(-2.932 -9.95)"/><path class="e" d="M5.059,112.993H6.236L6.4,99.422l.168,8.748.168,4.575.168-.216.168-.557.168.567.168-.093.168.1.168.082.168-.01h.168l.168-.072.168-.134.168.062.168-.175.168.124.168-.206.168.155.168-.113.168.082.168-.381.168.237.168.041.168-.062.168-.216.168-.134.168-.113.168.052.168-.01.168.175.168.124.168-.227.168.1.168-.072.168.206.168-.093.168-.2.168.041.168.01.168.155.168.041.168-.031.168-.433.168.453.168-.3.168.041.168-.134.168.113.168.052.168.062.168.072.168-.072.168-.041.168.082.168-.01.168.062.168-.072.168-.02.168-.031.168-.247.168.155.168-.227.168.175.168.113.168.041.168.165.168-.278.168-.155.168.144.168-1.03.168-.371.168,1.2.168-.165.168.226.168.175.168.072.168-.433h.168l.168.278.168.247.168-.268.168-.938.168.958.168-.2.168-.031.168-.33.168-.113.168.752.168-.268.168.371.168-.134.168-.69.168-1.834.168.134.168,2.3.168-.484.168-.835.168-.206.168,1.113.168-.515.168.886.168.237.168.093.168-.165.168-.659.168.422.168.185h.168l.168-.2.168.1.168-.165.168.423.168.041.168-.711.168.7.168-1.329.168.948.168.072.168.175.168-.227.168-.041.168-.628.168.979.168.021.168.01.168-.175.168-.443.168-.536.168.268.168-7.265.168-3.174.168,6.935.168,1.6.168-.01.168.423.168-.824.168-.546.168-2.277.168-2.195.168,3.658.168,2.452.168-.608.168-4.42.168,3.843.168.34.168-4.678.168,5.822.168.989.168-.412.168.01.168-.227.168-4.287.168-1.144.168-.072.168,5.018.168-1.608.168,1.515.168.062.168-.041.168-3.493.168,3.483.168.5.168-.072.168.618L34,109.17l.168-.649.168,2.205H34.5l.168-1.463.168,1.587.168-.546.168-2.2.168.6.168-2.215.168,1.587.168.557.168.783.168.021.168.495.168-.01.168.206.168-.309.168-.288.168-6.482.168,7.007.168.031.168-.072.168-.268.168-1.216.168.938.168-.556.168.7.168-.217.168-.247.168-1.041.168,1.35.168-.742.168,1.03.168-.052.168-.268.168-6.667.168,4.431.168,2.164.168-2.6.168,2.731.168.082.168-.546.168.144.168-.113.168-.3.168,1.226.168-.495.168-.464.168.33.168.474h.168l.168.268.168.1.168-.7.168-.041.168-.557.168.793.168.062.168-.464.168.237.168-1.072.168.34.168.144.168.01.168-.443.168-1.34.168,1.092.168-.031L45.6,110l.168-1.329.168.752.168-1.216.169.845.168.031.168.989.168.01.168-1.113.169-.618.168,1.2.168-.072.168-.505.169.763.168.216.168.062.168-.752.168-.793.169.464.168.258.168,1.051.168-1.607.169,1.082.168.144.168-.762.168-.66.168,1.216.169.227.168-.6.168-.144.168.4.169.134.168-.35.168-.186.168-1.133.168-.577.169,1.329.168.093L52,108.6l.168-.526.169-.9.168,2.1.168-.845.168.288.168-.134.169-.762.168-.69.168-.124.168.33.169.443.168.608.168-.031.168-.865.168.206.169-.721.168.1.168,1.34.168-.258.169.237.168-.732.168-.557.168-.134.169-4.75.168,4.833.168.8.168-.062.168.021.169,1,.168.041.168.093.168.082.169-.134.168-6.265.168,5.812.168-.113.168-.175.169.361.168-.227.168-1.36.168-.288.169,1.288.168-1.546L59.4,77.185l.168-12.633.168,39.527.169-.021.168-1.463.168,2.185.168,2.865.169-1.3.168,1.9.168-.608.168-1.577.168-.773.169-1.608.168-5.461.168,7.079.168,3.607.169-1.072.168.752.168-.618.168.062.168.546.169-2.3.168-1.618.168,3.7.168-.082.169-.814.168,1.4.168-1.288.168.464.168,1.02.169.69.168-.989.168-.752.168-8.285.169,7.687.168-.793.168,1.041.168-.639.168-.392.169-1.061.168,1.35.168-1.484.168.2.169,2.36.168.1.168-.093.168-.618.168.2.169.237.168.484.168.392.168-.237.169-4.72L68.317,108l.168-.319.168.165.168.33.169.69.168.155.168-.433.168-.711.169.412.168-1.206.168,1.1.168.423.168-.206.169-.3.168-7.615.168,7.574.168-.464.169.134.168.6.168.474.168-.608.169-.546.168.464.168-.361.168-2.287.168,3,.169-3.339.168,3.184.168-.886.168-.052.169-1.154.168-.113.168,2.453.168.052.168-1.185.169.577.168-1.051.168.031.168-1.9.169,2.174.168.68.168.845.168-1.051.168.216.169-6.564.168-10.789.168-11.221.168,14.457L76.393,83.1l.168.02.168,5.4.168,8.81.168,1.113.169-32.809L77.4,70.6l.168,12.293.168-6.615.169,2.823.168,7.193.168-1.618.168-.155.168-2.38.169,2.72.168,10.325.168.062.168,1.762.169-6.9.168-12.654.168,1.845.168-3.586.168-3.813.169,15.693.168,3.936.168-.361.168,6.811.169,6.378L81.1,98.1l.168,1.247.168,2.473.168.134.169-.083.168,1.082.168.258.168-1.546.169-1.68.168,2.648.168.165.168,2.247.168-.742.169.495.168-1.247.168-1.34.168-1.371.169.526.168.35.168,1.329.168-.866.168-1.556.169.175.168,1.041.168.66.168-.515.169,1.741.168-1.278.168-.927.168-2.195.168-14.292.169,15.632.168-5.008.168,1.9.168-8.336.169-.515.168,3.854.168,12.963.168,1.37.168-.515.169-.134.168-.288.168.422.168.35.169.309.168.752.168-.464.168.113.169-2.112.168,2.154.168-.113.168-2.133.168-.237.169,2.081.168-.453.168.422.168-.711.169.185.168-1.144.168-.072.168,1.9.168.68.169.732.168.134.168-1.906.168.392.169-1.144.168.3.168.67.168,1.082.168-.4.169-2.092.168.124.168.731.168.392.169.175.168-.227.168-.433.168-.525.168.608.169-.6.168-.052.168,1.484.168.01.169-.495.168-1.319.168,1.051.168.484.168-.752.169.783.168-1.061.168.093.168-1.164.169.855.168.165.168.3.168.165.168.618.169-.495.168.412.168-1.381.168.742.169.134.168.361.168-.474.168-.165.168-1.7.169.732.168.392.168-1.288.168,1.092.169.124.168-2.463.168.546.168-.546.168,2.5h.169l.168-.6.168,1.113.168-.824.169-2.39.168.773.168,1.494.168.1.168-.845.169,1.391.168-1.072.168-.7.168-.505.169-.247.168.927.168.721.168.062.168.165.169-.608.168.979.168-2.03.168-.3.169.721.168-.1.168-4.555.168.319.169,1.69.168-3.936.168,1.453.168,2.8.168.577.169.288.168-.989.168.69.168-.495.169-.216.168,1.01.168-.526.168-3.936.168,2.875.169-.618.168-.288.168-1.123.168,3.565.169-1.865.168-1.154.168,1.69.168-.392.168-1.144.169-.021.168,3.679.168-1.535.168-.649.169.361.168-2.391.168,1.875.168-.114.168.8.169.536.168-1.02.168-1.783.168-1.587.169.68.168-1.164.168,2.72.168.546.168-.752.169-1.37.168.2.168-2,.168,1.247.169,2.071.168-1.216.168-4.472.168-1.01.168,5.08.169-2.906.168,1.968.168-.814.168-1.875.169-.217.168-2.3.168-.216.168-.082.168-.989.169.433.168-1.144.168-5.07.168.01.169-6.677.168,3.1.168-5.461.168,5.451.168-1.937.169-2.658.168-11.448.168-2.2.168,6.172.169,2.483.168,5,.168-2.535.168,2.226.168-14.591.169-5.585.168,8.656.168-8.553.168,13.416.169-2.1.168,4.39.168-5.451.168-2.123.168,5.173.169-3.3.168,6L119.8,60.07l.168-10.48.169,12.159.168,3.833.168-1.556.168-.021.169,1.412.168-3.37.168-5.873.168-15.085.168-.433.169-2.432.168,17.445.168-2.988.168,5.2.169-4.575.168,8.615.168-16.044.168,11.345.168,13.643.169,3.71.168-1.278.168-9.5.168,3.39.169-.021.168,5.7.168-1.813.168,3.122.168,7.275.169-13.221.168-3.1.168-.546.168-2.576.169,7.584.168,7.893.168-2.277.168-3.421.168-6.409.169,7.5.168,1.494.168,3.338.168,3.854.169-6.986.168-7.151.168,5.039.168,4.781.168,2.247.169-5.946.168,8.14.168-7.285.168-4.142.169-4.987.168,3.988.168-3.74.168-1.659.168-.052.169,1.391.168-4.029.168-6.213.168,5.286.169-4.41.168-6.265.168.546.168,1.917.168-11.1.169-11.139.168-2.37.168,3.854.168,1.164.169,10.469.168,11.335.168-4.369.168.031.168.392.169,5.43.168-3.679.168-.536.168-4.039.169-7.9.168-13.911.168,7.677.168-4.39.168,1.113.169,13.818.168,7.986.168-20.073.168-7.522.169-6.739.168.886.168,4.6.168,12.458.168,9.387.169-8.017.168-4.987.168,2.8.168.175.169-9.521.168.9.168,17.2.168-8.316.169,1.628.168-5.564.168,7.945.168-2.741.168,1.319.169-3.3.168-4.925.168-8.079.168,6.389.169-.567.168-.464.168,1.226.168,2.968.168-1.453.169-4.936.168.793.168,5.513.168-5.327.169,7.069.168-3.225.168-4.668.168,3.112.168.34.169-4.451.168.062.168-.021.168.9.169,14.508.168,14.952L141.5,60l.168-6.007.168-6.4.169,20.9.168,1.814.168-11.572.168-10.954.169-.134.168,1.082.168-.917.168,5.605.168-1.69.169-5.966.168-4.936.168-1.3.168-.732.169,6.306.168,14.952.168,7.192.168-6.626.168-4.132.169-1.2.168-4.183.168,4.142.168,2.215.169-.814.168-4.122.168-4.575.168-2.123.168,3.607.169-2.349.168,5.338.168,1.855.168-5.977.169.309.168.433.168-2.288.168,1.453.168-2.978.169-1.072.168-8.285.168.876.168,2.1.169,2.112.168-7.594.168,3.163.168-7.46.168-10.376.169-1.752.168,1.2.168-3.194.168-1.206.169-.484.168,1.721.168,1.01.168-.031.168,2.236.169-4.709.168,4.833.168.33.168,1.391.169-3.308.168-3.411.168,3.493.168-2.875.169,2.525.168,6.193.168,4.585.168,6.955.168-4.451.169-6.42.168-.773.168-6.214.168,3.947.169,4.421.168,1.566.168-8.9.168-1.577.168-.433.169.227.168-.474.168-.608.168-.5.169,1.144.168-.2.168,1.061.168-1.206.168-.7.169.969.168-1.927.168.989.168,1.566.169.144.168,5.029.168-.495.168,1.443.168-1.649.169-.2.168,4.163.168,4.5.168-3.555.169,8.707.168-5.008.168-3.339L159,23.253l.168-.629.169-2.246.168,2.865.168,4.163.168,1.494.169-1.968.168.433.168.7.168,4.41.168-3.586.169-1.577.168,2.823L161.185,29l.168,3.967.169-.639.168-1.937.168.556.168-1.628.168-1.175.169-1.69.168-6.492.168,3.04.168,4.771.169,2.607.168-1.546.168.989.168.144.168.526.169-3.39.168,3.339.168-4.792.168,5.317.169-2.844.168-.082.168,3.328.168-2.174.168,1.391.169,1.525.168,1.989.168,3.339.168-6.8.169,4.513.168-.5.168.835.168,1.412.168,6.9.169-10.212.168,2.009.168,2.092.168-4.039.169,6.986.168-2.185.168,4.6.168,1.515.169-.186.168,2.463.168,2.071.168-3.174.168-6.141.169,1.762.168,1.36.168-2.215.168-6.244.169-3.009.168-.021.168-3.246.168,9.923.168-3.06.169-.175.168,5.049.168-4.967.168-6.9.169-1.814.168,6.2.168-.309.168-8.862.168.495.169-3.462.168-.814.168-.886.168,5.977.169-.608.168-1.113.168-.969.168,2.164.168,1.494.169,1.422.168,1.917.168-2.906.168-2.7.169-2.844.168-.433.168-.134.168.453.168.464.169.556.168,1.741.168-.567.168-1.772.169-3.06.168.979.168.464.168-.227.168-.845.169.371.168-.824.168-.052.168.907.169.361.168.062.168-.659.168-.556.168,1.288.169-1.319.168.855.168.824.168-1,.169-1.4.168-.752.168.814.168-2.164.168,1.494.169,1.319.168-.577.168-.556.168.5.169,3.349.168-.866.168-.845.168,1.525.168-.515.169-.917.168.721.168,2.617.168,9.047.169-1.319.168-6.43.168,3.215.168-1.216.168-4.39.169-1.8.168,1.443.168,1.535.168,9.377.169-1.072.168-7.234.168-.443.168.371.169.835.168.392.168-6,.168-3.38.168,1.7.169-.752.168-.35.168.639.168.392.169-.649.168,6.718.168-4.936.168,1.968.168-.577.169-1.37.168-2.349.168.5.168,2.185.169,1.649.168-.155.168.5.168-1.731.168-.381.169.948.168-.041.168-.289.168,1.237.169-.639.168-.113.168,4.781.168,7.275.168.556.169-7.223.168-1.906.168-2.9.168.072.169.35.168,1.216.168.5.168-2.586.168-2.854.169-1.577.168,1.133.168,4.792.168,6.821.169-.237.168-.268.168,1.133.168-5.41.168-.206.169-3.431.168.433.168,2.741.168.773.169-2.411.168.258.168-.567.168.041.168.68.169.144.168,1.638.168-2.844.168,3.411.169-1.34.168-.752.168-.124.168,2.535.168-1.154.169.536.168,2.9.168-2.009.168-2.061.169-1.453.168.876.168,2.318.168,2.257.168-2.277.169,3.37.168-1.587.168-3.112.168,1.278.169.2.168.515.168-1.3.168,3.029.168-1.278.169.453.168.958.168-1.237.168-.34.169-2.174.168.5.168,1.257.168,4.812.168,1.144.169,1.474.168-.443.168-3.926.168.2.169,1.772.168,1.978.168,11.829.168-6.142.169-1.237.168,6.049.168-7.635.168-1.422.168,4.823.169,1.834.168,3.3.168-4.967.168-1.01.169-.32.168,2.082.168-.113.168-.752.168-3.73.169,3.174.168-3.452.168-4.451.168,4.6.169,5.791.168.67.168-2.081.168.484.168.124.169.629.168-.01.168,2.349.168-1.3.169-2.4.168.371.168.907.168-.227.168,1.515.169-1.2.168-.361.168.876.168,1.473.169-3.988.168,1.474.168.546.168.082.168-2.36.169-8.089.168,3.349.168,3.184.168,2.669.169-1.133.168,7.893.168-2.8.168-3.658.168-3.607.169-3.5.168-3.6.168-3.009.168,7.852.169,1.989.168-3.545.168-.01.168-3.153.168,2.349.169,1.783.168,3.442.168,1.494.168,1.03.169-1.422.168,1.082.168-1.329.168,1.226.168-1.051.169.268L213,34.1l.168-1.443.168-.649.169-.577.168.814.168,4.926.168-1.7.168-2.648.169-1.051.168,1.927.168,2.473.168-2.03.169,2.885.168-5.07.168,4.637.168,4,.168-4.555.169-1.494.168.062.168,4.225.168,4.555.169-3.71.168,1.072.168.34.168-2.617.169-2.628.168,8.048.168,1.525.168-9.058" transform="translate(-2.932 -9.95)"/></g></g><g transform="translate(10.067 92.869)"><text class="f" transform="translate(7 43.928) rotate(-90)"><tspan x="-29.778" y="0">Average GasUsed / GasLimit (Percentage%)</tspan></text></g><g transform="translate(56.449 193.12)"><text class="f" transform="translate(-1 2)"><tspan x="-4.92" y="0">Jan &apos;16</tspan></text><text class="f" transform="translate(30.024 2)"><tspan x="-4.448" y="0">Jul &apos;16</tspan></text><text class="f" transform="translate(61.723 2)"><tspan x="-4.92" y="0">Jan &apos;17</tspan></text><text class="f" transform="translate(92.581 2)"><tspan x="-4.448" y="0">Jul &apos;17</tspan></text><text class="f" transform="translate(123.279 2)"><tspan x="-4.92" y="0">Jan &apos;18</tspan></text><text class="f" transform="translate(153.138 2)"><tspan x="-4.448" y="0">Jul &apos;18</tspan></text><text class="f" transform="translate(188.628 2)"><tspan x="-9.84" y="0">Jan &apos;19</tspan></text></g><g transform="translate(21.418 79)"><text class="f" transform="translate(3.974 110.898)"><tspan x="-1.668" y="0">0</tspan></text><text class="f" transform="translate(4.487 90.465)"><tspan x="-3.336" y="0">20</tspan></text><text class="f" transform="translate(4.487 70.033)"><tspan x="-3.336" y="0">40</tspan></text><text class="f" transform="translate(4.487 49.601)"><tspan x="-3.336" y="0">60</tspan></text><text class="f" transform="translate(4.487 28.168)"><tspan x="-3.336" y="0">80</tspan></text><text class="f" transform="translate(4 8)"><tspan x="-5.004" y="0">100</tspan></text></g></g></svg>