
<svg xmlns="http://www.w3.org/2000/svg" xmlns:xlink="http://www.w3.org/1999/xlink" viewBox="0 0 231.563 111.037"><defs><style>.a{fill:#77838f;font-size:3px;font-family:HelveticaNeue, Helvetica Neue;}.b,.e{fill:none;stroke-width:0.5px;}.b{stroke:#d8d8d8;opacity:0.8;}.c{clip-path:url(#a);}.d{fill:url(#b);}.e{stroke:#bbbfc4;stroke-linecap:round;stroke-linejoin:round;}</style><clipPath id="a"><rect width="216.423" height="107.037"/></clipPath><linearGradient id="b" x2="0" y2="1" gradientUnits="objectBoundingBox"><stop offset="0" stop-color="#d8d8d8"/><stop offset="1" stop-color="#bbbfc4" stop-opacity="0"/></linearGradient></defs><g transform="translate(23614.689 -157.312)"><g transform="translate(-23617.6 171.16)"><text class="a" transform="translate(5.911 42.361) rotate(-90)"><tspan x="-21.393" y="0">Pending Txn Count (Per Minute)</tspan></text></g><g transform="translate(-23599.549 160.013)"><path class="b" d="M77,510.5H293.423" transform="translate(-77 -403.201)"/><path class="b" d="M77,428.5H293.423" transform="translate(-77 -342.661)"/><path class="b" d="M77,346.5H293.423" transform="translate(-77 -282.121)"/><path class="b" d="M77,265.5H293.423" transform="translate(-77 -222.319)"/><path class="b" d="M77,183.5H293.423" transform="translate(-77 -161.779)"/><path class="b" d="M77,100.5H293.423" transform="translate(-77 -100.5)"/></g><g transform="translate(-23599.549 160.144)"><g class="c"><path class="d" d="M5.029,68.689l.037-1.013L5.1,65.989,5.14,64.5l.037-1.109L5.214,60.5l.037-7.666.037.009.037-.39.037.077.037-.079.037.028.037-.784.037.456.037.186L5.582,51.2l.037.593.037.407.037-.15.037-.024.037.276.037-.169.037-.488.037.39.037-.1.037.539.037.092.037-.771.037.484.037-.1.037.047.037.079.037.1.037-.544.037.428.037-.467.037.013.037.535.037-.006.037-.554.037-.469.037-.081.037,1.1.037.071.037-.173.037-.456.037.253.037.454.037.131.037-.208.037-.188.037.482.037-.289.037-.039.037-.071.037.161.037-.349.037-.287.037-.039.037.021H7.24l.037.051.037-.392.037-.013.037.017.037.621.037-.248.037.387.037-.276.037.158.037-.24.037.325.037-.06.037-.235.037.139.037-.548.037-.469.037.835.037-.212.037.617.037-.43.037.248.037-.139.037.242.037-.03.037.176.037-.075.037-.527.037,10.025.037,1,.037-.126.037.218.037,0,.037-.06.037-.077.037-.026L8.566,63l.037-.351.037.321.037.135.037-.516.037.447.037-.1.037-.195.037-.443.037.109.037.608.037.086.037.015.037-.244.037.454.037-.345.037.343.037-.3.037-.668.037.075.037-.013.037.385.037.462.037-1.355.037,0,.037.03.037.135.037-.064.037-.837.037,1.094.037-.88.037-.428.037.657.037-.111.037.131.037.617.037.36.037-.39.037.28.037.034.037-.214.037.1.037-.313.037-.156.037.6.037.139.037.062.037-.107.037.135.037-.265.037.092.037.246.037.152.037-.619.037-.013.037.263.037.2.037-.068.037-.075.037.227.037-.387.037.372.037-.31.037-.315.037.1.037.3L11,62.311l.037-.392.037.5.037-.319.037.191.037-.876.037.484.037-.064.037.056.037.011.037.193.037-.546.037.381.037-.107.037-.081.037-.139.037.122.037-.458.037-.375.037.891.037,0,.037-.034.037.092.037.188.037-.732.037.422.037.233.037-.03.037-.338.037-.34.037-1.314.037,1.21.037.2.037.006.037.056.037.071.037-.006.037-.332.037-.435.037-.026.037-.18.037-.171.037.176.037.661.037-.066.037-.268.037.278.037.1.037-.43.037-.64.037-.049.037.659.037-.726.037.036.037.544.037.011.037.351.037-.332.037-.148.037.169.037-.152.037-.169.037.263.037-.171.037-.047.037-.332.037.032.037-.25.037-.274.037.4.037.557.037-.439.037.039.037.343.037-.017.037-.4.037.308.037-.107.037-.006.037-.655.037.441.037-.375.037.452.037-.334.037.43.037-.357.037.173.037-.578.037.026.037-.991.037.377.037.141.037-.15.037.634.037-.3.037-.33.037-.045.037-.437.037.24.037-.013.037.111.037-.171.037-.578.037-.48.037,1.218.037-.272.037-.7.037.743.037-.76.037-.353.037.672.037.086.037,1.332.037-.3.037.751.037-.328.037.283.037-.516.037.377.037-.809.037-.265.037.492.037-.679.037.792.037-.961.037.661.037-.006.037-.957.037-.3.037.539.037-.126.037.045.037-.218.037-.233.037.625.037.91.037.146.037.246.037-.349.037-.942.037.09.037-.364.037.019.037-.441.037.505.037-.492.037-.1.037.244.037.088.037-.182.037.332.037-.385.037.364.037,0,.037-.238.037.649.037.381.037.28.037.353.037-.034.037-.094.037-.353.037-.165.037.569.037-.308.037-.122.037.364.037.428.037-.31.037-.131.037.293.037-.306.037-.3.037-.165.037-.334.037.021.037-.443.037-2.188.037.48.037.392.037.075.037.467.037.214.037.876.037-.467.037.52.037-.46.037.445.037-.257.037-.25.037.657.037-.366.037-.054.037.058.037.4.037-.422.037.6.037-.3.037.242.037-.034.037-.058.037-.364.037-.141.037.253.037.131.037.664.037.092.037.751h.037l.037.332.037.094.037-.426.037-.152.037.24.037,0,.037-.634.037.392.037-.657.037.64.037.045L19.1,59.4l.037-.1.037.109.037.334.037.094.037-.109.037-.011.037.051L19.4,60l.037-.257.037.1.037-.739.037-.653.037.006.037-.706.037-.118.037.657.037-.3.037.118.037-.495.037.392.037-.225.037.561.037.445.037.263.037-.3.037.375.037.163.037-.051.037-.12.037.1.037-.368.037-.379.037.167.037.27.037.289.037.075.037-.176.037-.118.037.086.037.193.037-.193.037.03.037-.642.037-.409.037.285.037.128.037.471.037-.4.037-.319.037.347.037.355.037-.158.037-.071.037-.4.037.039.037-.036.037.43.037.071.037-.152.037-.313.037.165.037.206.037-.612.037.1.037-.062.037-.456.037.334.037-.116.037.308.037-.42.037.056.037-.169.037.332.037-.184.037.139.037.021.037-.2.037,2.068.037-.135.037-.931.037.058.037-.006.037-.223.037-.385.037-.377.037.291.037.445.037.289.037.574.037.191.037-.182.037.587.037.124.037-.238.037.225.037-.1.037-.328.037.325.037-.111.037.225.037-.343.037-.8.037-.492.037.861.037.1.037-.638.037.184.037.171.037-.173.037-.8.037.876.037.259.037.332.037-.55.037-.077.037.33.037-.066.037-.021.037-.1.037-.559.037.409.037.146.037.068.037-.325.037.3.037.334.037.111.037-.552.037.567.037-.3.037.244.037-.133L24,59.5l.037-.259.037-.21.037.163.037.075.037-.064.037.34.037-.495.037-.032.037.036.037-.231.037.409.037-.332.037-.441.037.546.037.026.037.432.037-.548.037.372.037-.372.037-.972.037,1.214.037-.3.037-.31.037-.195.037.113.037-.223.037,0,.037-.158.037-.056.037.349.037.362.037-.377.037.255.037-.126.037-.169.037.278.037.043.037,1.4.037-.358.037-.073.037.1.037.158.037-.293.037-.394.037.248.037-.4.037-.032.037.238.037.019.037-.48.037-.116.037.323.037-.355.037.152.037-.15.037.229.037-.019.037-.259.037.31.037-.372.037-.407.037.668.037.109.037-.009.037.212.037-.259.037.34.037-.544.037-.233.037-.589.037.062.037,1.064.037-.392.037.223.037-.017.037-.619.037.623.037-.574.037.178.037.28.037-.3.037-.614.037.43.037-.3.037-.1.037.075.037.173.037.069.037-.141.037-.043.037.116.037-.308.037-.3.037-.355.037.679.037.287.037-.355.037.212.037.024.037-.325.037.349.037.041.037-.387.037.332.037.424L27.909,58l.037-.492.037-.664.037.21.037.843.037.075.037-.173.037-.141.037.323.037-.253.037.285.037-.308.037.176.037.058.037.006.037-.163.037-.047.037.465.037-.355.037.152.037-.186.037-.167.037.2.037-.086.037.437.037.46.037-.394.037-.113.037.073.037.073.037-.034.037.212.037-.229.037.006.037.4.037.227.037.013.037-.4.037-.364.037.064.037-.171.037.441.037-.375.037.334.037.135.037.163.037-.021.037-.246.037-.218.037.593.037-.572.037-.285.037.484.037.458.037-.212.037-.1.037.272.037-.039.037.092.037-.349.037-.017.037.55.037-.073.037-.214.037.216.037.045.037-.426.037.557.037.086.037-.015.037.381.037-.233.037.047.037-.032.037.06.037.126.037-.214.037-.017.037-.347.037.539.037-.259.037.077.037-.141.037.011L31,58.856l.037.751.037-.122.037.066.037-.4.037-.206.037.261.037.306.037-.589.037.559.037,0,.037.148.037-.64.037.467.037-.1.037-.056.037-.914.037.274.037-.006.037-1.22.037.858.037-.85.037,1.252.037.073.037-1.017.037.154.037.854L32,57.949l.037.233.037-.009.037-.321.037.539.037.013.037.18.037.351.037-.34.037.443.037.113.037-.03.037-.4.037.139.037-.09.037.22.037.12.037-.2.037.206.037.049.037-.34.037.291.037.062.037.036.037-.377.037.225.037-.415.037.3.037.24.037-.319L33.1,58.8l.037-.278.037.083.037-.621.037.212.037.507.037-.083.037.15.037.216.037-.111.037.011.037-.428.037.332.037-.458.037-.083.037.531.037-.6.037-.131.037.655.037.328.037-.308.037.081.037.373.037-.37.037-.161.037.152.037-.276.037.225.037-.006.037.077.037-.051.037-.137.037-.45.037.056.037-.428.037.6.037-.15.037.3.037-.1.037-.18.037.15.037.229.037.066.037-.289.037.3.037-.1.037.184.037.073.037-.141.037,0,.037-.394.037.317.037-.041.037-.18.037.45.037-.191.037-.255.037.407.037.131.037.206.037-.011.037.051.037-.154.037-.092.037-.109.037.261.037-.116.037.334.037-.308.037.111.037.495.037.2.037-.426.037.165.037.233.037-.488.037-.071.037-.214.037-.3.037.3.037.223.037-.135.037-.223.037-.283.037.711.037-.169.037.083.037.122.037,0,.037-.542.037.081.037.227.037-.257.037.009.037.024.037.5.037-.073.037.195.037-.137.037.062.037-.435.037.48.037-.287.037.225.037.088.037-.071.037-.473.037-.034.037.084.037.024.037-.026.037.124.037-.12.037-.432.037.58.037.03.037-.073.037.195.037.349.037-.76.037-.619.037,1.145.037-.422.037.383.037-.178.037-.045.037.03.037.066.037.223.037-.12.037.165.037-.246.037.161L38,59.8l.037-.25.037-.276.037.143.037.036.037.081.037.1.037.184.037-.3.037.257.037-.024.037-.4.037.227.037.051.037-.171.037-.7.037.617.037-.345.037.006.037-.387.037.736.037-.33.037.362.037-.387.037.567.037-.242.037.047L39,59.325l.037.514.037.522.037.486.037.1.037.024.037,0,.037-.034.037.212.037-.33.037-.137.037.195.037-.1.037-.18.037.113.037-.336.037.27.037.1.037-.231.037-.659.037.3.037.283.037.781.037.066.037.069.037-.188.037.026.037-.086.037.137.037-.257.037.066.037.244.037.111.037.039.037-.09.037.163.037-.15.037.12.037-.152.037.047.037-.276.037-.289.037.4.037-.09.037.051.037.193.037.227.037.118.037-.1.037.06.037-.062.037-.289.037-.152.037.214.037-.345.037-.22.037.383.037.122.037.184.037.077.037-.039.037.135.037.041.037-.026.037-.182.037-.531.037.3.037.156.037.2.037-.377.037.15.037-.051.037.244.037-.169.037.332.037-.081.037-.062.037-.336.037,0,.037-.032.037.31.037.143.037-.278.037-.058.037.113.037.1.037-.182.037.274.037-.032.037-.233.037.257.037.1.037-.178.037-.028.037.336.037-.531.037.225.037.152.037.081.037-.208.037.006.037.011.037.032.037-.171.037-.135.037.137.037.036.037-.3.037-.182.037-.081.037.248.037-.268.037.069.037-.019.037.015.037.163.037.107.037-.289.037.148.037-.505.037.135.037.512L43.494,61l.037.184.037-.1.037-.148.037.315.037.081.037-.069.037-.246.037.009.037.094.037-.306.037-.561.037-.5.037.071.037.229.037.062.037-.488.037.554.037-.223.037.034.037-.336.037.366.037-.006.037-.049.037.049.037.28.037.148.037-.265.037-.032.037-.265.037.156.037-.25.037-.377.037.216.037.107.037-.075.037.368.037.041.037.287.037-.165.037.182L45,60.083l.037.437.037.278.037-.026.037.165.037.158.037-.056.037,0,.037.049.037-.111.037.154.037-.411.037.462.037-.071.037-.079.037.319.037-.165.037.021.037.036.037-.131.037-.163.037-.235.037.471.037.073.037,0,.037-.131.037.128L46,61.089l.037.079.037,0,.037-.062.037.036.037-.323.037-.233.037.394.037.088.037-.208.037.036.037-.208.037.462.037.032.037-.355.037.338.037-.381.037.308.037-.173.037.235.037-.049.037-.062.037.124.037.122.037-.1.037.124.037-.111.037-.257.037.047.037-.218.037.315.037-.186.037.081.037-.039.037.062.037.036.037-.233.037.482.037-.231.037,0,.037-.111.037.392.037-.073.037,0,.037.015.037-.265.037.456.037.062.037.107.037-.18.037.03.037-.22.037.049.037.062.037.156.037.1.037-.011.037-.049.037-.111.037.058.037.128.037.03.037-.094.037.12.037-.233.037.019.037.238.037-.152.037-.06.037.158.037-.246.037.109.037-.186.037.148.037-.208.037.161L48.8,62l.037-.028.037.021.037-.041.037-.043.037.041.037,0,.037.186.037-.094.037.242.037.024.037-.03.037.561.037-.1.037.285.037.1.037-.041.037.015.037.079L49.5,62.9l.037,0,.037.141.037-.088.037-.355.037.5.037-.559.037-.079.037-.195.037.143.037-.265.037-.028.037.22.037-.364.037.265.037.655h.037l.037.313.037-.079.037-.563.037.539.037.028.037-.051.037-.024.037.015.037-.3.037.109.037.2.037.073.037-.071.037.146.037-.049.037.246.037.1.037-.133.037-.206.037.152.037-.066.037.4.037.021.037.062.037.083.037.253.037-.173.037.083.037-.1.037-.032.037-.2.037.182.037.009.037-.5.037.263.037.041.037-.034.037.133.037.116.037.218.037-.115.037.272.037-.186.037-.216.037-.06.037-.31.037.39.037-.268.037.015.037.272.037.092L52,63.932l.037-.171.037.152.037.24.037.015.037-.227.037-.625.037.43.037.081.037-.071.037-.831.037,0,.037-.27.037.109.037-.056.037.034.037-.146.037.133.037-.176.037.141.037.176.037.154.037-.362.037.111.037-.036.037-.165.037-.1.037.411.037.2.037-.178.037.507.037-.161.037-.223.037-.642.037.754.037-.212.037-.073.037-.18L53.4,62.4l.037.554.037.274.037-.561.037-.011.037-.165.037-.015.037.355.037-.154.037-.291.037.122.037.18.037-.261.037-.218.037.041.037-.021.037.246.037-.325.037.171.037-.1.037.407.037-.148.037-.357.037.077.037.068.037.51.037-.212.037-.332.037.379.037-.529.037-.158.037.3.037.2.037.131.037.049.037.1.037-.462.037-.649.037-.158.037-.013.037.706.037.3.037.043.037-.276.037.073.037.026.037.184.037-.154.037-.259.037-.37.037.242.037-.056.037-.475.037.233.037-.512.037.366.037.647L55.5,61.9l.037.447.037-.1.037.092.037.03.037.126.037-.364.037.173L55.8,62l.037-.1.037.443.037-.126.037,0,.037.238.037.31.037-.687.037-1.1.037.4.037-.621.037-.062.037.019.037.773.037.1.037.193.037-.325.037.075.037-.567.037.589.037-.319.037-.683.037.135.037.471.037.372.037-.34.037.49.037-.193.037-.676.037.55L56.9,60.5l.037.544.037-.687.037,1.094.037-.047.037.4.037-.021.037-.058.037.231.037-.216.037-.5.037.306.037.25.037.184.037-.411.037.034.037.195.037.131.037.212.037-.141.037.066.037.259.037-.589.037.495.037-.188.037-.163.037.1.037.208.037.051.037.184.037.019.037-.056.037-.826.037.6.037-.184.037-.283.037-.6.037-.529.037.709.037.18.037-.131.037-.047.037.31.037-.328.037.276.037-.186.037,0,.037.081.037.015.037.225.037.244.037.375.037-.141.037.019.037-.12.037-.036.037.1L59,62.031l.037.439.037.321.037.009.037-.319.037.109.037.649.037-.011.037-.015.037-.325.037.09.037.184.037.139.037-.128.037.428.037-.724.037-.015.037.584.037.169.037-.034.037-.505.037.073.037.133.037-.148.037-.381.037.458.037.39.037.143.037-.5.037.293.037-.45.037.18.037.216.037.188.037-.186.037.116.037-.113.037.1.037-.109.037-.143.037-.047.037.358.037-.161.037.06.037-.351.037.118.037-.385.037.34.037.066.037.03.037-.227.037-.071.037.467.037-.5.037.73.037-.214.037.062.037-.4.037.167.037.452.037-.634.037.61.037-.152.037.128.037-.141.037.139.037.124.037-.355.037.1.037.026.037.381.037-.007.037-.043.037-.069.037-.36.037.113.037.227.037.128.037.077.037-.026.037-.053.037.122.037-.075.037.2.037.015.037-.126.037-.079.037-.355.037.019.037.539.037.1.037-.445.037.439.037.032.037-.191.037-.092.037.208.037-.415.037.205.037.017.037-.161.037.083.037.195.037-.167.037.285.037.154.037.052.037.236.037-.364.037.238.037-.21.037-.113.037.109.037.2.037-.045.037-.227.037.169.037-.032.037.021.037-.308.037.368.037-.129.037-.507.037.336.037.167.037.169.037-.336.037.24.037.1.037-.055.037-.071.037-.1.037-.205.037.253.037-.06.037-.043.037.034.037.148.037.293.037-.253.037-.334.037.651.037-.1.037-.133.037-.36.037.336.037-.126.037.627.037-.569.037.327.037-.184.037-.424.037.253.037-.118.037.159.037-.619.037.3.037.12.037-.2.037-.329.037.154.037-.1.037.5.037.263.037-.278.037.542.037.22.037.169.037-.156.037.178.037-.158.037-.4.037.257.037-.407.037-.242.037.525.037-.259.037.424.037-.006.037-.317.037.477.037-.008.037-.221.037.353.037-.306.037.289.037-.107.037-.071.037.017.037-.261.037.552.037-.021.037-.193.037.244.037-.184.037.317.037.409.037-.193.037-.073.037.167.037-.056.037-.068.037.195.037.21.037.028.037-.094.037.032.037-.6.037.3.037.441.037-.068.037.006.037.225.037-.383.037.524.037-.42.037-.317L67,65.861l.037.223.037-.719.037.319.037.6.037-.606.037-.15.037-.36.037.514.037-.186.037.394.037-.24.037.434.037-.621.037.137.037.188.037-.214.037.52.037-.071.037-.753.037-.458.037.441.037.606.037.36.037-.524.037-.542.037.454.037.55.037-.559.037-.85.037-.083.037,1.325.037-.531.037-.146.037.049.037.561.037-.036.037-.719.037-.548.037.85.037-1.214.037.552.037-.158.037.456.037-.013.037-.1.037-.2.037.015.037.315.037.111.037-.364.037-.193.037.942.037-.24.037.034.037.131.037-.026L69.1,66l.037-.281.037-.25.037.541.037.066.037.086.037-.066.037-.212.037-.488.037-.377.037.7L69.5,66l.037.362.037-.088.037-.1.037.015.037.212.037.088.037.039.037.2.037-.222.037.329.037-.139.037-.281.037.253.037-.4.037-.572.037.028.037.854.037.122.037-.073.037-.154.037.255.037.07.037.18.037-.544.037.165.037.118.037-.058.037-.028.037-.053.037-.126.037-.06.037.518.037-.482.037-.026.037.116.037.315.037-.3.037-.394.037-.248.037.745.037-.1.037-.589.037-.264.037,1.083.037-.18.037.146.037.045.037-.306.037.141.037-.317.037-.287.037.708.037.266.037-.109.037-.39.037.049.037-.516.037-.1.037.045.037.317.037.471.037-.081.037-.355.037-.246.037-.013.037-.1.037.041.037.024.037.019.037-.531.037.25.037-.058.037-.182.037.047.037.317.037.1.037-.107.037.021.037-.529.037-.58.037.886.037-.5.037.317.037-.116.037-.261.037.621.037-.417.037.409.037-.6.037-.668.037.527.037.6.037,1.017.037.261.037-.323.037.056.037.473.037-.283.037-1.229.037-.278.037-.006.037-.334.037.034.037.582.037-.452.037-.178.037.638.037-.608.037-.165.037-.013.037.33.037.276.037-.073.037-.276.037.353.037-.013.037.071.037-.713.037.424.037.143.037-.666.037.116.037.267.037.139.037-.182.037.15.037-.188.037.133L74.258,65l.037.077.037.1.037-.135.037-.37h.037l.037.364.037-.492.037.276.037.328.037.13.037-.212.037-.064.037.407.037-.177.037.146.037.1.037-.064.037-.486.037,0,.037.462.037.079.037-.31.037.368.037-.788.037.539.037.2.037-.533.037.133.037.283.037-.2.037-.032.037-.512.037.655.037-.236.037-.007.037-.12.037-.312.037.182.037.265.037.094.037-.539.037-.193.037.409.037.293.037-.366.037.259.037-.589.037.454.037.03.037.576.037-.494.037-.336.037.332.037-.362.037.077.037,2.342.037.31.037-.066.037.124.037-.026L76.5,66.33l.037.126.037-.165.037.445.037-.122.037-.428.037-.428.037.353.037.054.037.051.037-.092.037.308.037-.1.037.219.037-.441.037.06.037-.052.037-.458.037-.471.037.559.037.024.037-.176.037.478.037-.259.037-.272.037-.448.037.09.037-.154.037.075.037.128.037.077.037-5.05.037.347.037.083.037.285.037-.563.037.454.037.169.037.191.037.6.037-.308.037.146.037-.268.037.754.037.647.037.325.037-.6.037,1.261.037-.807.037-.411.037.368.037-.3.037.124.037.246.037.764.037-.152.037.054.037.133.037.668.037-.175.037.235.037.214.037-.1.037-.079.037-.542.037.336.037.355.037.205.037-.047.037-.092.037-.118.037.124.037-.122.037.394.037.011.037-.2.037-.141.037.028.037.7.037-.107.037-.047.037-.178.037-.073.037.392L79.6,65.3l.037-.214.037.351.037-.36.037.61.037.321.037.516.037-.456.037.086.037.081.037-.253.037-.758.037.424.037-.25.037.366.037.225.037-.283.037-.216.037.008.037.049.037-.208.037-.244.037-.086.037-.163.037.745.037-.184.037-.174.037.807.037-.163.037-.011.037.328.037-.047.037-.283.037.343.037-.383.037-.2.037-.184.037-.255.037.165.037.912.037-.052.037.186.037-.128.037-.212.037-.09.037.338.037-.458.037.636.037-.546.037.278.037-.36.037-.118.037.36.037.2L81.589,66l.037.182.037-1.077.037.315.037,1.087.037-.019.037-.3.037.3.037-.034.037-.073.037.081.037-.152.037.011.037.006L82.105,66l.037-.259.037.191.037-.914.037-.1.037.4.037.259.037-.257.037-.263.037.79.037.18.037.051.037-.268.037-.276.037.191.037.223.037-.36.037.015.037-.265h.037l.037.4.037-.013.037-.1.037-.255.037-.462.037.968.037-.732.037.514.037.282.037.565.037-.158.037-.223.037-.411.037.587.037.5.037-.649.037.045.037.03.037-.722.037-.347.037.76.037-.231.037-.21.037-1.021.037,1.4.037-.574.037.36.037.362.037-.212.037.092.037.021.037-.073.037-.554.037,1.025.037-.555.037.317.037.017.037-.443.037.015.037.233.037-.188.037.218.037.212.037.047.037-.03.037-.221.037-.028.037-.154.037-.184.037-.289.037-.113.037-.257.037.644.037-.011.037.075.037-.109.037.09.037-.229.037.22.037-.278.037.038.037-.379.037.128.037.22.037.251.037-.071.037.306.037,0,.037-.388.037.435.037.013.037-.186.037.233.037-.045.037-.214.037-.3.037.4.037.034.037.2.037-.107.037.036.037.086.037-.139.037.073.037-.071.037-.173.037-.505.037.368.037.227.037-.7.037.2.037.186.037-.024.037-.169.037.282.037-.124.037.174.037.156.037-.25.037-.27.037-.24.037,2.074.037-.736.037-.173.037-.278.037-.1.037-.038.037.82.037.107.037.028.037.024.037-.066.037.084.037-.133.037-.109.037-.077.037-.233.037-.047.037.248.037.167.037-.148.037-.036.037-.017.037.088.037-.516.037.638.037-.056.037.205.037-.407.037.176.037-.631.037.248.037.541.037-.064.037-.223.037.42.037-.49.037.077.037-.071.037.347.037.236.037-.321.037.011.037.066.037.18.037.12.037-.278.037.066.037.058.037-.1.037-.619.037.691.037.291.037-.482.037.567.037.071.037-.257.037-.368.037.357.037-.182.037-.075.037-.2.037.154.037-.092.037.55.037-.43.037.524.037-.6.037-.036.037.343.037.013.037.308.037-.538.037.146.037-.124.037.193.037.049.037.058.037-.358.037.077.037-.372.037.685.037-.374.037-.083.037-.266.037-.041.037-.225.037.193.037.255.037.135.037-.116.037.415.037,1.047.037.557.037-.015.037.015.037-.158.037.118.037-.3.037-.16.037.445.037.109.037.143.037-.445.037.079.037.293.037-.368.037.373.037-.223.037.1.037-.283.037-.075.037.261.037-.066.037.2.037.073.037.015.037-.563.037.267.037.236.037.009.037-.047.037.026.037-.238L91.095,68l.037.387.037-.118.037.188.037-.2.037-.083.037.114.037-.25.037.351.037.052.037.126.037.086.037-.171.037-.154.037-.193.037.086.037-.086.037.426.037.113.037-.289L91.832,68l.037-.3.037.259.037.272.037-.109.037.27.037-.255.037.522.037-.165.037.3.037-.3.037-.173.037-.114.037-.137.037-.036.037.343.037.088.037-.024.037.238.037.041.037.054.037-.214.037.075.037-.39.037.45.037.045.037-.017.037-.176.037.25.037.024.037-.443.037.306.037.208.037.222.037-.038.037-.428.037-.154.037.2.037-.131.037.477.037.073.037.069.037.047.037-.724.037.854.037-.141.037.231.037-.118.037-.094.037.216.037.007.037-.379.037.39.037-.186.037-.261.037-.049.037.565.037-.086.037.133.037-.308.037.34.037.1.037-.18.037-.017.037.026.037-.34.037-.383.037.76.037-.306.037.355.037.034.037-.255.037.381.037.073.037.1.037-.178.037.062.037.1.037-.066.037.176.037-.34.037-.349.037.625.037-.218.037.139.037-.135.037-.12.037.244.037-.041.037-.133.037-.43.037.6.037.139.037-.092.037.071.037-.328.037.229.037-.527.037.45.037-.381.037.482.037.075.037.21.037-.608.037.462.037-.276.037.233.037-.193.037.047.037-.073.037-.312.037.351.037-.092.037.015.037-.261.037.227.037-.188.037.161.037-.25.037.235.037.109.037.246.037.007.037.073.037-.109.037.122.037-.045.037-.049.037-.3.037.266.037.122.037.27.037-.291.037.152.037-.126.037-.282.037.572.037-.077h.037l.037.135.037-.013.037-.041.037-.158.037-.424.037-.038.037.486.037-.49.037.458.037-.15.037.073.037.1.037.066.037.03.037.133.037-.038.037.248.037-.287.037.6.037-.216.037-.06.037.1.037.193.037-.2h.037l.037.235.037-.389.037-.159.037.116.037.156.037-.171.037-.079.037-.092.037-.011.037-.173.037.582.037-.015.037.225.037.017.037-.306.037.281.037-.246.037.135.037.109.037.088.037-.51.037-.06.037.242.037-.113.037.409.037-.083.037.019.037-.21.037.139.037-.041.037.088.037.038.037.064.037-.388.037,0,.037.392.037-.122.037.1.037.1.037-.306.037.163.037.16.037-.009.037.013.037-.16.037-.3.037.332.037-.109.037.139.037-.037.037-.349.037.1.037.385.037-.056.037-.267.037.424.037-.017.037-.114.037.069.037-.37.037.253.037-.527.037-.09.037.058.037.289.037-.475.037.182.037.186.037-.06.037-.116.037-.193.037.52.037-.011.037.266.037.053.037-.631.037.4.037.248.037.079.037-.03.037.081.037-.109.037-.385.037-.137.037-.092.037.146.037.2.037.214.037-.368.037-.068.037.426.037.068.037,0,.037.049.037-.083.037-.274.037-.03.037-.03.037.114.037-.379.037.7.037.026.037.034.037-.013.037-.177.037.188.037-.032.037-.281.037.124.037.092.037.1.037-.227.037.229.037-.3.037.392.037-.054.037-.034.037-.351.037-.48.037-.689.037-.518.037-.507.037-.674.037-.437.037-.347.037.77.037,3.228.037-.013.037-.054.037.024.037.028.037.135.037-.576.037.437.037.007.037-.094.037.24.037-.113.037-.308.037.115.037.244.037.015.037-.062.037-.238.037-.114.037.242.037.374.037-.038.037.021.037-.062.037-.133.037.039.037-.195.037.321.037-.124.037.171.037-.212.037.1.037-.015.037-.176.037.248.037,0,.037-.447.037.055.037.054.037.377.037-.1.037.2.037-.49.037.317.037-.011.037.06.037-.056.037.206.037-.285.037-.176.037.34.037-.028.037-.176.037.259.037-.366.037.1.037.122.037.06.037-.12.037-.056.037.051.037-.21.037.021.037-.034.037.371.037-.272.037-.409.037.293.037.1.037.028.037,0,.037-.223.037.248.037-.066.037.026.037-.214.037.225.037.024.037.086.037-.246.037.336.037-.148.037-.034.037.225.037-.357.037.146.037.227.037-.114.037,0,.037-.032.037.024.037-.135.037.131.037-.2.037.017.037.2.037-.236.037-.195.037.124.037-.019.037-.565.037.385.037.163.037-.347.037-.069.037.165.037.392.037-.019.037.115.037-.075.037.227.037.024.037-.09.037-.146.037.019.037.032.037.154.037-.364.037-.561.037.317.037.023.037.242.037-.013.037.156.037.1.037-.055.037.165.037-.289.037.266.037.1.037-.056.037-.176.037.021.037-.3.037.191.037-.062.037-.083.037.283.037.032.037-.368.037-.011.037.315.037-.047.037.1.037.041.037-.2.037,0,.037-.143.037.126.037.1.037.019.037-.257.037-.191.037-.492.037-.075.037.111.037-.116.037-.447.037-.859.037.462.037.109.037.672.037-.013.037.229.037.043.037-.458.037.422.037-.026.037-1.92.037-.118.037.287.037.071.037,1.636.037-.777.037-3.13.037.7.037.687.037.062.037,2.383.037-.22.037-2.5.037-1.391.037.82.037.338.037.752.037-1.184.037,1.366.037.182.037.559.037.959.037.366.037-.34.037.306.037-.233.037.218.037.248.037-.238.037-.118.037.231.037.021.037.884.037-.522.037.5.037-.574.037.424.037-.272.037-.272.037-.431.037-.293.037-.041.037,1.041.037.267.037.036.037-.081.037-.028.037.116.037-.073.037-.308.037-.154.037-.017.037,0,.037.514.037-.111.037-.011.037-.032.037.047.037-.038.037-.176.037.216.037.032.037-.073.037-.355.037.276.037-.017.037-.281.037-.1.037.6.037-.527.037.143.037-.12.037.18.037-.028.037.2.037-.516.037-.2.037-.017.037.343.037-.42.037.465.037.323.037.167.037-.152.037-.047.037-.024.037-.154.037.274.037-.278.037-.1.037.079.037.242.037.013.037-.114.037-.186.037.379.037.1.037-.437.037.1.037.267.037-.208.037-.1.037.036.037-.019.037-.225.037.137.037.264.037-.131.037-.328.037.026.037.163.037.244.037-.3.037-.015.037.122.037-.374.037.46.037.073.037.18.037-.006.037-.908.037.715.037.34.037-.026.037-.227.037.062.037.047.037-.2.037.086.037-.083.037.131.037-.246.037.092.037.079.037-.274.037-.053.037.158.037.3.037-.42.037.49.037-.156.037-.092.037-.176.037.1.037-.64.037.636.037.392.037-.225.037.206h.037l.037-.227.037.148.037.122.037.034.037-.081.037-.077.037-.1.037,0,.037.285.037-.038.037-.107.037.028.037-.124.037.332.037-.355.037-.373.037.083.037.259.037.024.037.06.037.045.037-.287.037.3.037.143.037-.21.037-.068.037.038.037.248.037-.165.037-.263.037-.163.037-.31.037.223.037.616.037-.2.037-.019.037-.441.037-.156.037.265h.037l.037.12.037.332.037-.038.037.054.037.146.037-.092.037-.263.037.086.037.158.037-.171.037-.713.037-.041.037.691.037-.062.037.321.037-.37.037-.176.037.152.037.1.037.343.037-.131.037-.064.037-.524.037.159.037-.135.037.623.037-.422.037.42.037-.038.037.083.037-.092.037.023.037.071.037.017.037-.141.037.077.037-.253.037.227.037.238.037-.31.037-.156.037-.2.037.028.037.259.037.146.037-.169.037.315.037.107.037-.312.037-.283.037-.379.037.3.037.18.037.12.037-.1.037.332.037-.218.037.064.037-.375.037-.054.037.233.037-.017.037-.227.037.49.037-.392.037-.283.037.679.037-.1.037-.222.037.021.037-.237.037.182.037.278.037.122.037-.1.037-.45.037.306.037.364.037-.73.037.173.037-.291.037.122.037-.248.037.552.037-.18.037.137.037-.051.037.205.037-.387.037.008.037,0,.037.216.037-.3.037.18.037,0,.037-.045.037-.563.037.627.037.111.037-.176.037.028.037.017.037-.036.037-.465.037.37.037-.126.037.188.037-.58.037.535.037-.107.037.032.037.051.037.169.037-.259.037.122.037.231.037-.049.037.073.037-.255.037.113.037-.467.037.39.037-.505.037-.128.037-.355.037-.392.037.22.037,1.319.037-.4.037-.334.037.3.037.244.037-.357.037.007.037-.066.037.3.037-.306.037-.12.037-.653.037.486.037.4.037.191.037-.375.037.161.037-.336.037.246.037-.4.037.171.037-.717.037.672.037-.12.037.056.037.122.037.007.037.329.037-.345.037-.325.037-.255.037.452.037.353.037.154.037-.452.037.51.037.028.037-.064.037.167.037-.578.037.208.037.422.037.291.037-.651.037.325.037-.055.037.2.037.045.037-.321.037.159.037.043.037-.327.037-.34.037-.732.037,1,.037.071.037-.49.037.146.037.4.037.092.037-.3.037.6.037-.178.037-.469.037.045.037,0,.037.67.037-.375.037-.231.037-.593.037.447.037.48.037-.094.037.088.037.366.037-.25.037.126.037-.34.037.7.037-.075.037-.469.037.357.037-.066.037-.1.037.049.037.274.037-.527.037.392.037-.229.037.246.037.137.037-.227.037.118.037.036.037-.281.037-.332.037.212.037-.141.037.225.037.045.037.139.037-.165.037-.15.037.013.037.522.037-.212.037.06.037-.229.037.559.037-.276.037-.03.037-.278.037-.081.037-.285.037.028.037.319.037-.069.037.375.037.094.037-.221.037-.2.037.411.037-.229.037.167.037.349.037-.45.037.25.037.188.037-.1.037-.471.037.327.037-.115.037-.015.037-.122.037.043.037.122.037-.113.037.122.037.2.037-.238.037,0,.037.332.037-.3.037.246.037-.3.037-.212.037.139.037.16.037,0,.037-.572.037.524.037-.017.037-.056.037-.338.037.456.037-.411.037-.03.037-.088.037.126.037.193.037.013.037-.411.037.236.037-.321.037-.079.037.163.037.205.037-.261.037.58.037.032.037.148.037-.265.037.415.037-.505.037-.18.037-.221.037.251.037.488.037-.276.037-.43.037.563.037.034.037-.473.037.319.037,0,.037-.088.037-.043.037-.343.037.587.037-.152.037.034.037-.109.037.177.037-.077.037.2.037-.034.037-.038.037-.146.037.148.037-.1.037.064.037-.011.037.131.037-.086.037-.2.037.163.037-.244.037.214.037-.171.037.066.037-.092.037.111.037.114.037.049.037.169h.037l.037-.505.037-.06.037.024.037.437.037-.007.037-.261.037.381.037.137.037-.306.037-.081.037.195.037-.263.037.3.037-.1.037-.066.037-.31.037.086.037.345.037-.062.037.013.037-.649.037.567.037-.651.037.293.037-.193.037-.154.037.159.037-.255.037.195.037-.077.037.328.037-.15.037.261.037.1.037-.381.037.655.037,0,.037.032.037-.3.037-.212.037.58.037-.531.037.3.037.321.037.163L130,71.32l.037.2.037-.27.037.306.037-.334.037.454.037-.212.037.229.037-.058.037-.052.037-.006.037-.2.037-.111.037.3.037-.146.037-.216.037-.717.037.685.037-.433.037.7.037-.051.037.184.037-.037.037-.653.037-.383.037.291.037.058L131,70.8l.037-.229.037-.011.037-.1.037.351.037-.233.037.454.037.321.037-.426.037-.18.037.377.037-.09.037-.131.037.274.037.287.037-.739.037.527.037-.2.037.317.037.058.037-.069.037-.287.037.375.037.047.037-.321.037.1.037.18.037-.066.037-.118.037.27.037-.409.037.467.037-.141.037-.565.037-.195.037.929.037-.225.037.169.037-.156.037.143.037-.835.037.486.037-.2.037-4.436.037.045.037-.677.037-.726.037-.248.037.469.037.214.037-.176.037-.593.037-.135.037.315.037-.6.037.861.037-.278.037-.265.037-.319.037.364.037.205.037-.137.037.261.037.017.037-.5.037.452.037.411.037.6.037.3.037-.154.037-.038.037.024.037.174.037.661.037-.1.037.081.037.1.037-.325.037.4.037.16.037.116.037.355.037-.188.037-.319.037.651.037.51.037-.052.037-.045.037-.214.037-.345.037.223.037.212.037-.7.037.141.037-.086.037.357.037.223.037-.137.037.1.037.7.037-.968.037,1.379.037-.242.037.638.037-.328.037.229.037-.792.037.409.037-.225.037.512.037.293.037-.415.037.377.037.049.037.458.037.1.037.458.037.223.037-.111.037-.49.037-.109.037.251.037.334.037-.193.037-.372.037.557.037-.054.037.3.037-.075.037.12.037-.255.037-.043.037.041.037-.028.037-.073.037-.21.037.3.037-.447.037,0,.037-.073.037-.013.037.229.037-.4.037.148.037,0,.037-.512.037.2.037-.122.037.21.037.458.037-.18.037.263.037-.507.037.542.037-.1.037.178.037.443.037,0,.037.308.037-.334.037-.42.037-.379.037.711.037.058.037.088.037-.165.037.006.037.212.037-.22.037-.1.037-.338.037.4.037-.7.037.816.037-.308.037.143.037.128.037,0,.037-.212.037-.743.037-.278.037.826.037-.152.037.062.037.088.037.1.037.22.037-.411.037.03.037-.013.037-.086.037.049.037.011.037.323.037.257.037-.128.037-.45.037.244.037.2.037-.328.037.368.037-.09.037-.574.037-.148.037-.248.037-.221.037-.214.037.48.037.794.037-.178.037.385.037-.036.037-.143.037.332.037-.195.037.052.037-.165.037-.024.037.3.037,0,.037-.049.037.092.037-.484.037.1.037-.116.037-.409.037.385.037.33.037.205.037-.017.037-.026.037.051.037-.092.037-.03.037-.383.037-.557.037.608.037-.131.037-.362.037-.069.037-.09.037.212.037-.075.037-.2.037.272.037.2.037.3.037.208.037-.415.037.062.037-.578.037.839.037-.27.037.449.037.019.037.1.037-.154.037.154.037.165.037.158.037-.357.037-.5.037-.137.037-.079.037-1,.037.364.037.4.037.27.037-1.877.037-.865.037.58.037,1.1.037.141.037-.454.037-.114.037.469.037-.135.037-.332.037-.544.037-.548.037-.965.037.717.037-.255.037-.572.037-.537.037.1.037.484.037.732.037-.161.037-.259.037.443.037.3.037-.2.037.024.037-.043.037-.218.037.18.037-.1.037.019.037-.116.037-.019.037.135.037-.212.037.062.037.768.037.351.037.16.037-.135.037.619.037-.411.037.3.037.1.037-.1.037-.115.037-.026.037.3.037-.1.037-.15.037.435.037-.373.037-.021.037-.043.037.856.037-.107.037-.116.037.071.037.283.037-.174.037.287.037-.173.037-.2.037.533.037-.094.037-.03.037.439.037-.387.037-.017.037.381.037-.1.037.047.037.216.037.274.037-.261.037.576.037-.634.037.011.037.21.037.131.037-.135.037-.475.037.437.037-.06.037.246.037-.066.037.37.037-.285.037.212.037-.308.037.326.037,0,.037-.15.037.216.037.086.037-.312.037-.039.037-.1.037.327.037.118.037-.111.037-.212.037.024.037.347.037-.184.037-.285.037.21.037-.079.037.013.037-.18.037.441.037-.24.037-.178.037.208.037.137.037-.073.037.135.037-.114.037-.338.037-.066.037-.053.037.61.037-.724.037.43.037.011.037-.7.037-.773.037.824.037.274.037-.077.037-.154.037-.835.037-.128.037.062.037.141.037.3.037.308.037-.141.037.113.037-.364.037.186.037.67.037.094.037-.27.037.272.037-.09.037-.21.037.49.037-.229.037-.619.037.619.037-.394.037-.349.037.259.037.417.037-.081.037.4.037.051.037-.255.037.272.037.111.037-.25.037.013.037.3.037-.319.037-.154.037.49.037-.128.037.124.037.03.037-.026h.037l.037.038.037-.353.037.415.037-.188.037.131.037-.329.037.278.037-.1.037.3.037-.345.037.25.037-.021.037.045.037-.664.037.047.037.364.037-.422.037.289.037-.131.037.041.037-.353.037.807.037.129.037-.2.037.068.037-.212.037-.141.037.364.037-.274.037.1.037.06.037-.287.037.291.037-.158.037.16.037-.141.037.154.037-.141.037-.34.037.482.037-.055.037-.338.037.49.037-.362.037-.056.037.233.037,0,.037.028.037,0,.037-.131.037.158.037-.045.037-.182.037-.263.037.381.037-.165.037.077.037.143.037.075.037-.056.037.094.037.141.037-.233.037.278.037-.06.037-.227.037.31.037-.137.037-.081.037.255.037-.028.037-.113.037.191.037-.092.037-.37.037-.15.037.48.037-.015.037-.088.037-.156.037-.058.037.3.037-.038.037.33.037.282.037.083.037-.06.037-.494.037.24.037.026.037-.225.037.357.037.193.037-.437.037.049.037.139.037.051.037-.208.037.163.037-.51.037.477.037.143.037.073L151,72.4l.037-.319.037-.064.037.141.037.036.037.056.037-.079.037-.443.037.139.037.038.037.259.037.09.037-.026.037.086.037-.289.037-.021.037.131.037.15.037-.109.037-.362.037.326.037.045.037-.073.037.25.037.019.037.1.037-.291.037-.173.037.364.037-.1.037.146.037-.064.037-.165.037-.107.037-.36.037.533.037.195.037-.163.037.246.037-.205.037-.073.037.208.037,0,.037-.1.037.171.037-.267.037-.019.037.06.037.1.037.1.037-.051.037.045.037-.655.037.407.037.036.037.221.037.028.037-.015.037-.171.037-.055.037.259.037-.118.037,0,.037.007.037-.062.037.18.037.051.037-.263.037-.09.037,2.351.037-.565.037-.017.037.366.037.019.037-.184.037-.131.037-.368.037.456.037.171.037.079.037-.21.037.233.037-.1.037-.1.037.1.037.1.037-.051.037.055.037.036.037-.212.037.043.037.268.037,0,.037-.041.037-.2.037-.351.037-.3.037.9.037-.186.037.141.037.058.037-.141.037-.174.037.362.037.107.037-.467.037.154.037.263.037.039.037.006.037-.253.037.343.037-.167.037-.156.037-.505.037.141.037.4.037,0,.037-.034.037.116.037-.1.037-.206L155.5,74l.037.261.037.321.037-.036.037-.047.037.174.037-.351.037.176.037-.242.037-.011.037-.246.037-.049.037.7.037-.482.037.128.037.557.037-.281.037.013.037.182.037-.18.037-.015.037.058.037-.2.037.088.037-.22.037-.026.037.075.037.283.037-.214.037.071.037.255.037-.31.037-.09.037-.084.037.03.037-1.122.037-.152.037.927.037-.09.037.122.037.171.037.216.037.066.037-.007.037-.006.037.077.037-.193.037.25.037-.054.037.088.037-.347.037.253.037.248.037-.31.037.107.037-.054.037-.437.037.362.037.39.037-.441.037.514.037-.092.037-.03.037-.431.037.083.037.069.037-.5.037.482.037.06.037.116.037-.206.037-.107.037,0,.037-.233.037.371.037.216.037-.248.037.133.037-.118.037.086.037.2.037-.013.037-.034.037-.064.037.184.037.017.037,0,.037.026.037.041.037-.484.037.007.037.312.037.171.037-.281.037-.3.037-.071.037-.379.037.689.037-1.655.037.906.037,0,.037.334.037-.18.037.049.037-.227.037-.255.037.689.037.1.037-.15.037-.139.037-.171.037.565.037-.484.037.03.037.043.037.22.037.077.037-.55.037.049.037.064.037.165.037.024.037-.013.037.086.037.024.037-.353.037-.407.037.886.037-.285.037-.118.037-.507.037.25.037-.7.037,1.319.037.253.037-.086.037-.135.037-.276.037-.546.037.486.037.195.037.357.037-.533.037-.15.037.36.037.122.037.019.037.193.037-.448.037.107.037.246.037.334.037-.227.037.12.037-.064.037-.538.037-.058.037.439.037.244.037-.146.037-.24.037.27.037.139.037-.109.037-.041.037-.107.037.415.037-.465.037.032.037.083.037-.46.037.315.037.024.037.308.037-.531.037-.009.037.265.037.045.037-.156.037.12.037-.073.037-.034.037.126.037.178.037-.18.037.257.037-.051.037-.3.037-.122.037.028.037-.024.037.343.037-.06.037.255.037.036.037-.754.037.266.037-2.036.037.677.037-.212.037-.854.037,1.381.037-.505.037-3.911.037-.255.037.578.037.8.037.236.037.342.037,3.16.037-1.117.037-3.62.037-.552.037.2.037,1.908.037-.34.037.06.037.559.037.674.037,1.725.037-.417.037.659.037.437.037-.415.037.336.037-.09.037.411.037.214.037.111.037-.259.037-.116.037.441.037,0,.037-.214.037.1.037.051.037-.212.037-.03.037.1.037-.231.037-.09.037.51.037-.385.037-.634.037.651.037.36.037.053.037-.578.037.529.037-.009.037-.338.037-.306.037.285.037-.169.037-.634.037-.122.037.91.037-.1.037.206.037.115.037-.257.037.5.037.006.037-.285.037.266.037-.274.037.351.037-.178.037.088.037-.036.037-.041.037.253.037-.4.037.081.037.2.037.081.037-.191.037.1.037-.445.037.263.037.049.037.2.037-.4.037.233.037-.2.037.21.037.073.037-.25.037.1.037-.293.037.426.037-.779.037.514.037.188.037.176.037-.308.037.208.037-.347.037-.139.037.143.037.083.037.139.037-.374.037.3.037-.263.037-.319.037.319.037.143.037.024.037.03.037.334.037.124h.037l.037-.229.037-.308.037-.2.037.109.037.518.037-.465.037.593.037.066.037-.03.037-.4.037.154.037.126.037-.319.037.439.037-.158.037.244.037-.282.037-.272.037.37.037.047.037.141.037-.591.037-.644.037,1.027.037.208.037-.381.037.118.037-.229.037.34.037-.315.037.146.037.069.037.263.037-.852.037.051.037.287.037.3.037-.013.037-.141.037.01.037-.177.037-.2.037.246.037.1.037-.178.037-.094.037.12.037.432.037-.34.037-.385.037.388.037-.21.037.477.037-.456.037.133.037.315.037-.426.037-.946.037.465.037.126.037-.888.037-.644.037.563.037.3.037-.073.037.09.037.668.037.287.037.428.037-.336.037-1.468.037.383.037-.126.037.276.037-.329.037.987.037-.21.037-.045.037.52.037-.569.037-.122.037.372.037-.066.037-.225.037.584.037-.34.037.306.037.1.037.165.037-.015.037.3.037.011.037-.03.037.15.037-.347.037-.216.037.428.037-.381.037.411.037.143.037-.822.037.242.037.473.037-.355.037.349.037-.229h.037l.037.255.037-.178.037-.047.037.167.037.109.037-.541.037,0,.037.131.037,0,.037-.073.037-.03.037-.051.037-.032.037.135.037.281.037.069.037-.009.037-.154.037-.8.037-.555.037,1.267.037-.238.037.15.037-.353.037.374.037-.073.037.094.037-.212.037.092.037-.169.037-.563.037.358.037.043.037.223.037-.171.037.278.037-.088.037.171.037-.081.037.017.037.161.037-.051.037-.159.037.227.037-.4.037.437.037.011.037-.126.037.24.037-.184h.037l.037.274.037-.081.037-.135.037-.171.037.272.037-.244.037-.081.037-.285.037-.163.037-.071.037-1.147.037-.413.037,1.053.037.572.037.208.037-.5.037-.3.037.141.037.927.037.122.037.124.037-.032.037-.343.037-.051.037.443.037-.244.037-.176.037-.681.037.4.037.334.037-.328.037-.43.037-.051.037.22.037.3.037-.139.037.55.037-.751.037-.2.037-.484.037-.163.037-.069.037.39.037.659.037-.1.037-1.177.037,1.212.037.285.037.608.037-.3.037.128.037-.2.037-.1.037-.627.037.878.037.15.037-.762.037.443.037-.411.037-.026.037.285.037-.385.037-.443.037-.2.037.452.037-.619.037.154.037.437.037-.505.037.174.037-.482.037.734.037-.289.037.07.037.454.037-.736.037-.024.037.349.037.822L175.76,74l.037-.092.037.383.037.238.037-.051.037-.407.037.255.037.22.037-.158.037-.225.037.34.037-.242.037-.075.037.216.037.133.037-.113.037-.64.037-.36.037.439.037.351.037-.28.037-.281.037-.12.037-.555.037-.158.037,1.134.037-.655.037.448.037.131.037-.539.037-.007.037.625.037.233.037-.079.037.4.037-.593.037.092.037-.1.037.629.037-.268.037-.479.037.681.037-.467.037.165.037.1.037-.15.037.079.037.056.037-.42.037.353.037-.225.037.182.037-.259.037-.413.037.347.037.471.037.056.037-.013.037.06.037-.417.037-.3.037-.019.037-.169.037.691.037.208.037-.233.037-.3.037.79.037-.086.037-.479.037-.585.037.437.037-.351.037-.548.037,1.032.037.323.037.161.037.058.037-.353.037-.154.037-.432.037.906.037-.569.037-.047.037.4.037-.287.037-.711.037.655.037.225.037,0,.037.163.037-.627.037.126.037.338.037-.141.037.163.037-.013.037-.058.037-.156.037-.524.037.083.037.011.037-.124.037.053.037-.188.037.287.037-.535.037.227.037.281.037-.058.037-.293.037-.032.037-.276.037-.231.037-.178.037.128.037.054.037.441.037.31.037-.1.037-.133.037-.169.037-.009.037.5.037.062.037,1.192.037-.886.037.743.037-.191.037-.687.037-.8.037.071.037.473.037.328.037.218.037-.045.037.021.037.548.037-.058.037-.032.037.086.037-.21.037-.351.037.448.037.107.037-.313.037.276.037-.174.037,0,.037.154.037-.231.037.152.037-.261.037-.008.037-.548.037.537.037.081.037.274.037-.338.037-.52.037-.548.037-.3.037.578.037.644.037-.6.037.1.037.24.037-.263.037.126.037.094.037.366.037.064.037,0,.037-.79.037.383.037-.013h.037l.037.238.037.021.037-.236.037-.734.037.608.037.283.037.019.037-.784.037.276.037-.113.037.329.037.231.037-.047.037.133.037-.253.037.124.037.34.037-.552.037-.293.037.533.037.013.037-.137.037-.417.037.681.037-.484.037-.546.037.133.037.3.037.582.037-.929.037.317.037.4.037-.364.037.034.037-.533.037.7.037-.91.037.734.037-.006.037.672.037-.139.037-.276.037-.008.037.428.037-.009.037-.06.037-.33.037,0,.037.366.037-.336.037-.036.037.1.037.235.037-.454.037-.088.037.563.037-.653.037.007.037.7.037-.216.037.051.037-.068.037-.351.037.323.037-.126.037.345.037-.024.037-.056.037-.12.037.051.037-.73.037.293.037.73.037-.178.037.1.037.195.037.118.037-.839.037-.537.037-.261.037.492.037-.06.037.542.037.024.037.458.037-1.149.037-.955.037-.028.037-.409.037,1.137.037-.135.037,1.265.037-.85.037.439.037.589.037-.315.037-.208.037.124.037-.3.037-.544.037-.036.037.167.037.407.037.111.037-.373.037.407.037-.118.037-.368.037.377.037.1.037-.236.037-.047.037-.287.037-.31.037.948.037.462.037-.313.037-.4.037.338.037-.019.037.109.037-.357.037.4.037-.531.037.276.037.184.037.555.037-.1.037-.888.037.334.037-.011.037.3.037.062.037-.092.037.253.037-.621.037-.494.037.942.037-.839.037-.2.037-.15.037.554.037-.139.037.432.037.161.037-.073.037.126.037-.5.037-.244.037.18.037.158.037.22.037-.16.037.148.037-1.124.037.276.037.073.037.524.037.131.037-.387.037-.174.037.148.037-.561.037.878.037-.589.037-.075.037.741.037-.826.037-.158.037.092.037-.036.037,0,.037-.435.037-.167.037,1.01.037-.655.037.55.037.06.037-.092.037-.109.037-.2.037-.2.037,0,.037.175.037.171.037-.266.037-.079.037-.024.037.6.037-.195.037-.283h.037l.037.5.037.193.037.312.037.188.037-.146.037.036.037-.167.037.045.037-.216.037-.158.037.377.037.244.037-.306.037-.278.037.274.037-.379.037-.176.037.041.037-.054.037.674.037.231.037-.728.037.64.037-.1.037-.083.037.2.037.066.037-.542.037.2.037.379.037-.274.037-.2.037,1,.037.047.037-.173.037.332.037-.094.037-.139.037.219.037.068.037-.374.037-.129.037.141.037.58.037-.24.037-.306.037.392.037-.377.037-.191.037.424.037.032.037.124.037-.086.037-.118.037-.3.037.334.037-.028.037-.332.037-.075.037.175.037-.278.037.39.037-.1.037.041.037-.019.037.253.037-.432.037-.092.037-.071.037.479.037-.18.037.338.037-.462.037.055.037.445.037-.079.037-.1.037.272.037-.668.037-.21.037.27.037.146.037.019.037-.03.037-.355.037.184.037-.158.037.291.037-.694.037.79.037-.456.037.064.037-.516.037.58.037-.158.037.069.037-.2.037-.007.037-.148.037-.248.037.122.037.047.037.045.037.051.037.246.037-.152.037.274.037-.276.037.043.037-.1.037.214.037-.165.037.531.037-.5.037.12.037.428.037-.206.037.135.037.195.037-.056.037.034.037-.034.037.09.037.255.037-.015.037-.051.037-.334.037.319.037.009.037.045.037-.345.037.261.037.079.037.122.037-.246.037.045.037.193.037-.724.037.362.037.191.037-.047.037-.388.037.259.037.073.037.026.037-.642.037.4.037.052.037-1.023.037-.351.037.289.037.781.037-.133.037-.55.037.184.037-1.132.037.364.037.465.037.514.037.013.037-.169.037.25.037.193.037-.03.037.253.037-.047.037.128.037-.126.037.133.037.1.037.041.037-.593.037.36.037.283.037-.212.037.09.037.036.037.2.037-.424.037.006.037-.107.037-.133.037-.1.037.619.037-.064.037-.58.037-.006.037.191.037.173.037.06.037.086.037.165.037-.178.037.219.037-.223.037.182.037-.263.037.244.037-.088.037-.128.037-.017.037.366.037-2.689.037.218.037.178.037.1.037.174.037.343.037-1.711.037.12.037.129.037.135.037-.111.037-.512.037-.032.037-.306.037.338.037.377.037-.3.037.208.037.584.037-.086.037.4.037-.013.037-.291.037,1.137.037.373.037.109.037-.1.037.312.037-.482.037-.325.037.813.037.415.037-.454.037.141.037.31.037.066.037-.537.037-.246.037.535.037-.086.037.184.037-.3.037.3.037-.212.037.047.037.265.037.345.037-.2.037,0,.037-.531.037.12.037.1.037.193.037.1.037.317.037-.263.037-.043.037.03.037.345.037.114.037.1.037-3.335.037.274.037-.1.037-.264.037.261.037-.068.037.276L199.3,72l.037-.135.037.726.037.017.037-.27.037.191.037.37.037-.214.037-.163.037-.055.037.024.037.516.037.229.037-.3.037.255.037-.317.037-.409.037.957.037.116.037-.047.037.163.037-.394.037-.3.037.544.037.467.037.058.037.486.037-.064.037-.366.037-.049.037.507.037-.026.037-.038.037.126.037-.36.037.231.037.195.037,0,.037-.216.037.246.037-.233.037.15.037.086.037-.075.037-.041.037-.006.037,0,.037-.3.037.524.037-.141.037-.026.037.193.037-.115.037.135.037-.321.037.032.037-.165.037.437.037-.158.037.028.037-.163.037-.2.037.49.037,0,.037-.407.037.233.037-.141.037.021.037-.137.037.306.037-.079.037.146.037-.15.037-.092.037.332.037-.4.037.09.037.124.037-.043.037.026.037-.357.037.375.037.169.037-.064.037.135.037-.272.037-.1.037.195.037.122.037-.079.037-.524.037.015.037.034.037.205.037-.193.037-.013.037.308.037.071h.037l.037.009.037-.086.037.137.037.178.037.049.037-.319.037.2.037-.047.037-.017.037-.516.037.394.037.334.037-.261.037.118.037-.387.037.212.037.064.037.09.037.037.037.013.037.062.037.024.037-.422.037.159.037.053.037.058.037-.225.037,0,.037.465.037.03.037-.021.037-.366.037.332.037-.242.037-.09.037.051.037-.184.037.6.037.015.037-.45.037-.116.037.336.037-.111.037-.03.037.3.037-.1.037.193.037-.435.037.5.037-.259.037.167.037-.092.037-.435.037.385.037.1.037-.454.037.026.037.5.037-.176.037-.064.037-.362.037.559.037-.024.037.083.037-.482.037.2.037-.415.037.415.037.336.037-.129.037.034.037-.015L205.6,75l.037.208.037.055.037-.118.037-.178.037.238.037-.22.037-.253.037-.114.037.231.037,0,.037-.3.037.191.037.165.037.062.037.038.037-.152.037-.161.037-.3.037-.184.037.6.037-.248.037-.054.037.261.037.156.037.021.037-.137.037-.486.037.668.037-.017.037-.062.037-.116.037-.047.037-.822.037.745.037.16.037.4.037-.137.037-.417.037.176.037-.31.037-.338.037.114.037-.015.037-.122.037.251.037.038h.037l.037.452.037.109.037.009.037-.015.037.015.037-.019.037-.024.037.122.037-.158.037.2.037-.293.037.094.037.3.037-.336.037.062.037.3.037-.33.037.42.037-.308.037-.3.037.625.037-.173.037.169.037-.343.037.373.037-.582.037-.231.037.833.037-.193.037-.484.037.31.037.139.037-.019.037-.111.037.013.037-.216.037.225.037.379.037-.182h.037l.037-.353.037.265.037-.2.037.159.037-.259.037.524.037-.163.037.2.037-.118.037-.293.037.111.037.038.037-.1.037-.036.037-.229.037-.122.037.319.037.1.037.032.037-.24.037.415.037-.27.037.017.037-.051.037.278.037-.139.037-.178.037-.253.037.038.037.407.037-.118.037.261.037-.066.037-.064L210.1,75l.037-.075.037.069.037.182.037-.126.037.238.037-.433.037.216.037.118.037.049.037.075.037-.86.037-.126.037.938.037.195.037-.208.037-.054.037-.069.037-.043.037-.184.037.308.037.169.037-.124.037-.36.037.548.037-.1.037.141.037-.111.037-.071.037.257.037-.18.037.038.037-.16.037-.27.037.049.037.032.037-.058.037-.055.037-.649.037.46.037.306.037.081.037.21.037-.139.037-.135.037-.312.037-.893.037.462.037.745.037.263.037-.193.037.109.037-.1.037-.66.037.666.037-.392.037-.458.037.7.037-.07.037-.086.037.364.037-.46.037-.167.037-.152.037.585.037.267.037-.76.037-.3.037.274.037.163.037-.443.037.124.037-.278.037-.319.037.831.037-.272.037.009.037-.238.037.229.037.111.037.139.037-.043.037.058.037-.009.037-.178.037.107.037.03.037-.028.037-.021.037-.666.037.5.037.083.037-.49.037.011.037.58.037-.283.037.516.037-.428.037.137.037-.439.037.388.037-.009.037.015h.037l.037-.263.037.863.037.3.037-.319.037.045.037.261.037-.052.037.021.037-.066.037-.388.037-.116.037.685.037-.114.037-.385.037-.428.037.285.037-.135.037.539.037-.713.037.482.037.077.037.122.037.028.037-.133.037-.253.037.026.037-.045.037.293.037-.156.037-.216.037-.077.037.627.037-.148.037-.1.037-.7.037.3.037.09.037.265.037.242.037-.109.037-.394.037-.062.037.6.037-.182.037-.054.037-.12.037.075.037-.452.037.188.037.124.037-.225.037.533.037-.34.037-.683.037.8.037-.381.037.206.037.152.037-.152.037-.366.037.242.037-.008.037.428.037-.454.037.522.037-.173.037.066.037-.045.037.049.037-.527.037-.265.037-.31.037.006.037-.165.037-.246.037.685.037-.448.037.069.037.015.037-.107.037.631.037.156.037.188.037-.195.037-.636.037.651.037-.141.037.007.037.246.037.238v69.94H5.029" transform="translate(-2.908 -37.697)"/><path class="e" d="M5.029,68.689l.037-1.013L5.1,65.989,5.14,64.5l.037-1.109L5.214,60.5l.037-7.666.037.009.037-.39.037.077.037-.079.037.028.037-.784.037.456.037.186L5.582,51.2l.037.593.037.407.037-.15.037-.024.037.276.037-.169.037-.488.037.39.037-.1.037.539.037.092.037-.771.037.484.037-.1.037.047.037.079.037.1.037-.544.037.428.037-.467.037.013.037.535.037-.006.037-.554.037-.469.037-.081.037,1.1.037.071.037-.173.037-.456.037.253.037.454.037.131.037-.208.037-.188.037.482.037-.289.037-.039.037-.071.037.161.037-.349.037-.287.037-.039.037.021H7.24l.037.051.037-.392.037-.013.037.017.037.621.037-.248.037.387.037-.276.037.158.037-.24.037.325.037-.06.037-.235.037.139.037-.548.037-.469.037.835.037-.212.037.617.037-.43.037.248.037-.139.037.242.037-.03.037.176.037-.075.037-.527.037,10.025.037,1,.037-.126.037.218.037,0,.037-.06.037-.077.037-.026L8.566,63l.037-.351.037.321.037.135.037-.516.037.447.037-.1.037-.195.037-.443.037.109.037.608.037.086.037.015.037-.244.037.454.037-.345.037.343.037-.3.037-.668.037.075.037-.013.037.385.037.462.037-1.355.037,0,.037.03.037.135.037-.064.037-.837.037,1.094.037-.88.037-.428.037.657.037-.111.037.131.037.617.037.36.037-.39.037.28.037.034.037-.214.037.1.037-.313.037-.156.037.6.037.139.037.062.037-.107.037.135.037-.265.037.092.037.246.037.152.037-.619.037-.013.037.263.037.2.037-.068.037-.075.037.227.037-.387.037.372.037-.31.037-.315.037.1.037.3L11,62.311l.037-.392.037.5.037-.319.037.191.037-.876.037.484.037-.064.037.056.037.011.037.193.037-.546.037.381.037-.107.037-.081.037-.139.037.122.037-.458.037-.375.037.891.037,0,.037-.034.037.092.037.188.037-.732.037.422.037.233.037-.03.037-.338.037-.34.037-1.314.037,1.21.037.2.037.006.037.056.037.071.037-.006.037-.332.037-.435.037-.026.037-.18.037-.171.037.176.037.661.037-.066.037-.268.037.278.037.1.037-.43.037-.64.037-.049.037.659.037-.726.037.036.037.544.037.011.037.351.037-.332.037-.148.037.169.037-.152.037-.169.037.263.037-.171.037-.047.037-.332.037.032.037-.25.037-.274.037.4.037.557.037-.439.037.039.037.343.037-.017.037-.4.037.308.037-.107.037-.006.037-.655.037.441.037-.375.037.452.037-.334.037.43.037-.357.037.173.037-.578.037.026.037-.991.037.377.037.141.037-.15.037.634.037-.3.037-.33.037-.045.037-.437.037.24.037-.013.037.111.037-.171.037-.578.037-.48.037,1.218.037-.272.037-.7.037.743.037-.76.037-.353.037.672.037.086.037,1.332.037-.3.037.751.037-.328.037.283.037-.516.037.377.037-.809.037-.265.037.492.037-.679.037.792.037-.961.037.661.037-.006.037-.957.037-.3.037.539.037-.126.037.045.037-.218.037-.233.037.625.037.91.037.146.037.246.037-.349.037-.942.037.09.037-.364.037.019.037-.441.037.505.037-.492.037-.1.037.244.037.088.037-.182.037.332.037-.385.037.364.037,0,.037-.238.037.649.037.381.037.28.037.353.037-.034.037-.094.037-.353.037-.165.037.569.037-.308.037-.122.037.364.037.428.037-.31.037-.131.037.293.037-.306.037-.3.037-.165.037-.334.037.021.037-.443.037-2.188.037.48.037.392.037.075.037.467.037.214.037.876.037-.467.037.52.037-.46.037.445.037-.257.037-.25.037.657.037-.366.037-.054.037.058.037.4.037-.422.037.6.037-.3.037.242.037-.034.037-.058.037-.364.037-.141.037.253.037.131.037.664.037.092.037.751h.037l.037.332.037.094.037-.426.037-.152.037.24.037,0,.037-.634.037.392.037-.657.037.64.037.045L19.1,59.4l.037-.1.037.109.037.334.037.094.037-.109.037-.011.037.051L19.4,60l.037-.257.037.1.037-.739.037-.653.037.006.037-.706.037-.118.037.657.037-.3.037.118.037-.495.037.392.037-.225.037.561.037.445.037.263.037-.3.037.375.037.163.037-.051.037-.12.037.1.037-.368.037-.379.037.167.037.27.037.289.037.075.037-.176.037-.118.037.086.037.193.037-.193.037.03.037-.642.037-.409.037.285.037.128.037.471.037-.4.037-.319.037.347.037.355.037-.158.037-.071.037-.4.037.039.037-.036.037.43.037.071.037-.152.037-.313.037.165.037.206.037-.612.037.1.037-.062.037-.456.037.334.037-.116.037.308.037-.42.037.056.037-.169.037.332.037-.184.037.139.037.021.037-.2.037,2.068.037-.135.037-.931.037.058.037-.006.037-.223.037-.385.037-.377.037.291.037.445.037.289.037.574.037.191.037-.182.037.587.037.124.037-.238.037.225.037-.1.037-.328.037.325.037-.111.037.225.037-.343.037-.8.037-.492.037.861.037.1.037-.638.037.184.037.171.037-.173.037-.8.037.876.037.259.037.332.037-.55.037-.077.037.33.037-.066.037-.021.037-.1.037-.559.037.409.037.146.037.068.037-.325.037.3.037.334.037.111.037-.552.037.567.037-.3.037.244.037-.133L24,59.5l.037-.259.037-.21.037.163.037.075.037-.064.037.34.037-.495.037-.032.037.036.037-.231.037.409.037-.332.037-.441.037.546.037.026.037.432.037-.548.037.372.037-.372.037-.972.037,1.214.037-.3.037-.31.037-.195.037.113.037-.223.037,0,.037-.158.037-.056.037.349.037.362.037-.377.037.255.037-.126.037-.169.037.278.037.043.037,1.4.037-.358.037-.073.037.1.037.158.037-.293.037-.394.037.248.037-.4.037-.032.037.238.037.019.037-.48.037-.116.037.323.037-.355.037.152.037-.15.037.229.037-.019.037-.259.037.31.037-.372.037-.407.037.668.037.109.037-.009.037.212.037-.259.037.34.037-.544.037-.233.037-.589.037.062.037,1.064.037-.392.037.223.037-.017.037-.619.037.623.037-.574.037.178.037.28.037-.3.037-.614.037.43.037-.3.037-.1.037.075.037.173.037.069.037-.141.037-.043.037.116.037-.308.037-.3.037-.355.037.679.037.287.037-.355.037.212.037.024.037-.325.037.349.037.041.037-.387.037.332.037.424L27.909,58l.037-.492.037-.664.037.21.037.843.037.075.037-.173.037-.141.037.323.037-.253.037.285.037-.308.037.176.037.058.037.006.037-.163.037-.047.037.465.037-.355.037.152.037-.186.037-.167.037.2.037-.086.037.437.037.46.037-.394.037-.113.037.073.037.073.037-.034.037.212.037-.229.037.006.037.4.037.227.037.013.037-.4.037-.364.037.064.037-.171.037.441.037-.375.037.334.037.135.037.163.037-.021.037-.246.037-.218.037.593.037-.572.037-.285.037.484.037.458.037-.212.037-.1.037.272.037-.039.037.092.037-.349.037-.017.037.55.037-.073.037-.214.037.216.037.045.037-.426.037.557.037.086.037-.015.037.381.037-.233.037.047.037-.032.037.06.037.126.037-.214.037-.017.037-.347.037.539.037-.259.037.077.037-.141.037.011L31,58.856l.037.751.037-.122.037.066.037-.4.037-.206.037.261.037.306.037-.589.037.559.037,0,.037.148.037-.64.037.467.037-.1.037-.056.037-.914.037.274.037-.006.037-1.22.037.858.037-.85.037,1.252.037.073.037-1.017.037.154.037.854L32,57.949l.037.233.037-.009.037-.321.037.539.037.013.037.18.037.351.037-.34.037.443.037.113.037-.03.037-.4.037.139.037-.09.037.22.037.12.037-.2.037.206.037.049.037-.34.037.291.037.062.037.036.037-.377.037.225.037-.415.037.3.037.24.037-.319L33.1,58.8l.037-.278.037.083.037-.621.037.212.037.507.037-.083.037.15.037.216.037-.111.037.011.037-.428.037.332.037-.458.037-.083.037.531.037-.6.037-.131.037.655.037.328.037-.308.037.081.037.373.037-.37.037-.161.037.152.037-.276.037.225.037-.006.037.077.037-.051.037-.137.037-.45.037.056.037-.428.037.6.037-.15.037.3.037-.1.037-.18.037.15.037.229.037.066.037-.289.037.3.037-.1.037.184.037.073.037-.141.037,0,.037-.394.037.317.037-.041.037-.18.037.45.037-.191.037-.255.037.407.037.131.037.206.037-.011.037.051.037-.154.037-.092.037-.109.037.261.037-.116.037.334.037-.308.037.111.037.495.037.2.037-.426.037.165.037.233.037-.488.037-.071.037-.214.037-.3.037.3.037.223.037-.135.037-.223.037-.283.037.711.037-.169.037.083.037.122.037,0,.037-.542.037.081.037.227.037-.257.037.009.037.024.037.5.037-.073.037.195.037-.137.037.062.037-.435.037.48.037-.287.037.225.037.088.037-.071.037-.473.037-.034.037.084.037.024.037-.026.037.124.037-.12.037-.432.037.58.037.03.037-.073.037.195.037.349.037-.76.037-.619.037,1.145.037-.422.037.383.037-.178.037-.045.037.03.037.066.037.223.037-.12.037.165.037-.246.037.161L38,59.8l.037-.25.037-.276.037.143.037.036.037.081.037.1.037.184.037-.3.037.257.037-.024.037-.4.037.227.037.051.037-.171.037-.7.037.617.037-.345.037.006.037-.387.037.736.037-.33.037.362.037-.387.037.567.037-.242.037.047L39,59.325l.037.514.037.522.037.486.037.1.037.024.037,0,.037-.034.037.212.037-.33.037-.137.037.195.037-.1.037-.18.037.113.037-.336.037.27.037.1.037-.231.037-.659.037.3.037.283.037.781.037.066.037.069.037-.188.037.026.037-.086.037.137.037-.257.037.066.037.244.037.111.037.039.037-.09.037.163.037-.15.037.12.037-.152.037.047.037-.276.037-.289.037.4.037-.09.037.051.037.193.037.227.037.118.037-.1.037.06.037-.062.037-.289.037-.152.037.214.037-.345.037-.22.037.383.037.122.037.184.037.077.037-.039.037.135.037.041.037-.026.037-.182.037-.531.037.3.037.156.037.2.037-.377.037.15.037-.051.037.244.037-.169.037.332.037-.081.037-.062.037-.336.037,0,.037-.032.037.31.037.143.037-.278.037-.058.037.113.037.1.037-.182.037.274.037-.032.037-.233.037.257.037.1.037-.178.037-.028.037.336.037-.531.037.225.037.152.037.081.037-.208.037.006.037.011.037.032.037-.171.037-.135.037.137.037.036.037-.3.037-.182.037-.081.037.248.037-.268.037.069.037-.019.037.015.037.163.037.107.037-.289.037.148.037-.505.037.135.037.512L43.494,61l.037.184.037-.1.037-.148.037.315.037.081.037-.069.037-.246.037.009.037.094.037-.306.037-.561.037-.5.037.071.037.229.037.062.037-.488.037.554.037-.223.037.034.037-.336.037.366.037-.006.037-.049.037.049.037.28.037.148.037-.265.037-.032.037-.265.037.156.037-.25.037-.377.037.216.037.107.037-.075.037.368.037.041.037.287.037-.165.037.182L45,60.083l.037.437.037.278.037-.026.037.165.037.158.037-.056.037,0,.037.049.037-.111.037.154.037-.411.037.462.037-.071.037-.079.037.319.037-.165.037.021.037.036.037-.131.037-.163.037-.235.037.471.037.073.037,0,.037-.131.037.128L46,61.089l.037.079.037,0,.037-.062.037.036.037-.323.037-.233.037.394.037.088.037-.208.037.036.037-.208.037.462.037.032.037-.355.037.338.037-.381.037.308.037-.173.037.235.037-.049.037-.062.037.124.037.122.037-.1.037.124.037-.111.037-.257.037.047.037-.218.037.315.037-.186.037.081.037-.039.037.062.037.036.037-.233.037.482.037-.231.037,0,.037-.111.037.392.037-.073.037,0,.037.015.037-.265.037.456.037.062.037.107.037-.18.037.03.037-.22.037.049.037.062.037.156.037.1.037-.011.037-.049.037-.111.037.058.037.128.037.03.037-.094.037.12.037-.233.037.019.037.238.037-.152.037-.06.037.158.037-.246.037.109.037-.186.037.148.037-.208.037.161L48.8,62l.037-.028.037.021.037-.041.037-.043.037.041.037,0,.037.186.037-.094.037.242.037.024.037-.03.037.561.037-.1.037.285.037.1.037-.041.037.015.037.079L49.5,62.9l.037,0,.037.141.037-.088.037-.355.037.5.037-.559.037-.079.037-.195.037.143.037-.265.037-.028.037.22.037-.364.037.265.037.655h.037l.037.313.037-.079.037-.563.037.539.037.028.037-.051.037-.024.037.015.037-.3.037.109.037.2.037.073.037-.071.037.146.037-.049.037.246.037.1.037-.133.037-.206.037.152.037-.066.037.4.037.021.037.062.037.083.037.253.037-.173.037.083.037-.1.037-.032.037-.2.037.182.037.009.037-.5.037.263.037.041.037-.034.037.133.037.116.037.218.037-.115.037.272.037-.186.037-.216.037-.06.037-.31.037.39.037-.268.037.015.037.272.037.092L52,63.932l.037-.171.037.152.037.24.037.015.037-.227.037-.625.037.43.037.081.037-.071.037-.831.037,0,.037-.27.037.109.037-.056.037.034.037-.146.037.133.037-.176.037.141.037.176.037.154.037-.362.037.111.037-.036.037-.165.037-.1.037.411.037.2.037-.178.037.507.037-.161.037-.223.037-.642.037.754.037-.212.037-.073.037-.18L53.4,62.4l.037.554.037.274.037-.561.037-.011.037-.165.037-.015.037.355.037-.154.037-.291.037.122.037.18.037-.261.037-.218.037.041.037-.021.037.246.037-.325.037.171.037-.1.037.407.037-.148.037-.357.037.077.037.068.037.51.037-.212.037-.332.037.379.037-.529.037-.158.037.3.037.2.037.131.037.049.037.1.037-.462.037-.649.037-.158.037-.013.037.706.037.3.037.043.037-.276.037.073.037.026.037.184.037-.154.037-.259.037-.37.037.242.037-.056.037-.475.037.233.037-.512.037.366.037.647L55.5,61.9l.037.447.037-.1.037.092.037.03.037.126.037-.364.037.173L55.8,62l.037-.1.037.443.037-.126.037,0,.037.238.037.31.037-.687.037-1.1.037.4.037-.621.037-.062.037.019.037.773.037.1.037.193.037-.325.037.075.037-.567.037.589.037-.319.037-.683.037.135.037.471.037.372.037-.34.037.49.037-.193.037-.676.037.55L56.9,60.5l.037.544.037-.687.037,1.094.037-.047.037.4.037-.021.037-.058.037.231.037-.216.037-.5.037.306.037.25.037.184.037-.411.037.034.037.195.037.131.037.212.037-.141.037.066.037.259.037-.589.037.495.037-.188.037-.163.037.1.037.208.037.051.037.184.037.019.037-.056.037-.826.037.6.037-.184.037-.283.037-.6.037-.529.037.709.037.18.037-.131.037-.047.037.31.037-.328.037.276.037-.186.037,0,.037.081.037.015.037.225.037.244.037.375.037-.141.037.019.037-.12.037-.036.037.1L59,62.031l.037.439.037.321.037.009.037-.319.037.109.037.649.037-.011.037-.015.037-.325.037.09.037.184.037.139.037-.128.037.428.037-.724.037-.015.037.584.037.169.037-.034.037-.505.037.073.037.133.037-.148.037-.381.037.458.037.39.037.143.037-.5.037.293.037-.45.037.18.037.216.037.188.037-.186.037.116.037-.113.037.1.037-.109.037-.143.037-.047.037.358.037-.161.037.06.037-.351.037.118.037-.385.037.34.037.066.037.03.037-.227.037-.071.037.467.037-.5.037.73.037-.214.037.062.037-.4.037.167.037.452.037-.634.037.61.037-.152.037.128.037-.141.037.139.037.124.037-.355.037.1.037.026.037.381.037-.007.037-.043.037-.069.037-.36.037.113.037.227.037.128.037.077.037-.026.037-.053.037.122.037-.075.037.2.037.015.037-.126.037-.079.037-.355.037.019.037.539.037.1.037-.445.037.439.037.032.037-.191.037-.092.037.208.037-.415.037.205.037.017.037-.161.037.083.037.195.037-.167.037.285.037.154.037.052.037.236.037-.364.037.238.037-.21.037-.113.037.109.037.2.037-.045.037-.227.037.169.037-.032.037.021.037-.308.037.368.037-.129.037-.507.037.336.037.167.037.169.037-.336.037.24.037.1.037-.055.037-.071.037-.1.037-.205.037.253.037-.06.037-.043.037.034.037.148.037.293.037-.253.037-.334.037.651.037-.1.037-.133.037-.36.037.336.037-.126.037.627.037-.569.037.327.037-.184.037-.424.037.253.037-.118.037.159.037-.619.037.3.037.12.037-.2.037-.329.037.154.037-.1.037.5.037.263.037-.278.037.542.037.22.037.169.037-.156.037.178.037-.158.037-.4.037.257.037-.407.037-.242.037.525.037-.259.037.424.037-.006.037-.317.037.477.037-.008.037-.221.037.353.037-.306.037.289.037-.107.037-.071.037.017.037-.261.037.552.037-.021.037-.193.037.244.037-.184.037.317.037.409.037-.193.037-.073.037.167.037-.056.037-.068.037.195.037.21.037.028.037-.094.037.032.037-.6.037.3.037.441.037-.068.037.006.037.225.037-.383.037.524.037-.42.037-.317L67,65.861l.037.223.037-.719.037.319.037.6.037-.606.037-.15.037-.36.037.514.037-.186.037.394.037-.24.037.434.037-.621.037.137.037.188.037-.214.037.52.037-.071.037-.753.037-.458.037.441.037.606.037.36.037-.524.037-.542.037.454.037.55.037-.559.037-.85.037-.083.037,1.325.037-.531.037-.146.037.049.037.561.037-.036.037-.719.037-.548.037.85.037-1.214.037.552.037-.158.037.456.037-.013.037-.1.037-.2.037.015.037.315.037.111.037-.364.037-.193.037.942.037-.24.037.034.037.131.037-.026L69.1,66l.037-.281.037-.25.037.541.037.066.037.086.037-.066.037-.212.037-.488.037-.377.037.7L69.5,66l.037.362.037-.088.037-.1.037.015.037.212.037.088.037.039.037.2.037-.222.037.329.037-.139.037-.281.037.253.037-.4.037-.572.037.028.037.854.037.122.037-.073.037-.154.037.255.037.07.037.18.037-.544.037.165.037.118.037-.058.037-.028.037-.053.037-.126.037-.06.037.518.037-.482.037-.026.037.116.037.315.037-.3.037-.394.037-.248.037.745.037-.1.037-.589.037-.264.037,1.083.037-.18.037.146.037.045.037-.306.037.141.037-.317.037-.287.037.708.037.266.037-.109.037-.39.037.049.037-.516.037-.1.037.045.037.317.037.471.037-.081.037-.355.037-.246.037-.013.037-.1.037.041.037.024.037.019.037-.531.037.25.037-.058.037-.182.037.047.037.317.037.1.037-.107.037.021.037-.529.037-.58.037.886.037-.5.037.317.037-.116.037-.261.037.621.037-.417.037.409.037-.6.037-.668.037.527.037.6.037,1.017.037.261.037-.323.037.056.037.473.037-.283.037-1.229.037-.278.037-.006.037-.334.037.034.037.582.037-.452.037-.178.037.638.037-.608.037-.165.037-.013.037.33.037.276.037-.073.037-.276.037.353.037-.013.037.071.037-.713.037.424.037.143.037-.666.037.116.037.267.037.139.037-.182.037.15.037-.188.037.133L74.258,65l.037.077.037.1.037-.135.037-.37h.037l.037.364.037-.492.037.276.037.328.037.13.037-.212.037-.064.037.407.037-.177.037.146.037.1.037-.064.037-.486.037,0,.037.462.037.079.037-.31.037.368.037-.788.037.539.037.2.037-.533.037.133.037.283.037-.2.037-.032.037-.512.037.655.037-.236.037-.007.037-.12.037-.312.037.182.037.265.037.094.037-.539.037-.193.037.409.037.293.037-.366.037.259.037-.589.037.454.037.03.037.576.037-.494.037-.336.037.332.037-.362.037.077.037,2.342.037.31.037-.066.037.124.037-.026L76.5,66.33l.037.126.037-.165.037.445.037-.122.037-.428.037-.428.037.353.037.054.037.051.037-.092.037.308.037-.1.037.219.037-.441.037.06.037-.052.037-.458.037-.471.037.559.037.024.037-.176.037.478.037-.259.037-.272.037-.448.037.09.037-.154.037.075.037.128.037.077.037-5.05.037.347.037.083.037.285.037-.563.037.454.037.169.037.191.037.6.037-.308.037.146.037-.268.037.754.037.647.037.325.037-.6.037,1.261.037-.807.037-.411.037.368.037-.3.037.124.037.246.037.764.037-.152.037.054.037.133.037.668.037-.175.037.235.037.214.037-.1.037-.079.037-.542.037.336.037.355.037.205.037-.047.037-.092.037-.118.037.124.037-.122.037.394.037.011.037-.2.037-.141.037.028.037.7.037-.107.037-.047.037-.178.037-.073.037.392L79.6,65.3l.037-.214.037.351.037-.36.037.61.037.321.037.516.037-.456.037.086.037.081.037-.253.037-.758.037.424.037-.25.037.366.037.225.037-.283.037-.216.037.008.037.049.037-.208.037-.244.037-.086.037-.163.037.745.037-.184.037-.174.037.807.037-.163.037-.011.037.328.037-.047.037-.283.037.343.037-.383.037-.2.037-.184.037-.255.037.165.037.912.037-.052.037.186.037-.128.037-.212.037-.09.037.338.037-.458.037.636.037-.546.037.278.037-.36.037-.118.037.36.037.2L81.589,66l.037.182.037-1.077.037.315.037,1.087.037-.019.037-.3.037.3.037-.034.037-.073.037.081.037-.152.037.011.037.006L82.105,66l.037-.259.037.191.037-.914.037-.1.037.4.037.259.037-.257.037-.263.037.79.037.18.037.051.037-.268.037-.276.037.191.037.223.037-.36.037.015.037-.265h.037l.037.4.037-.013.037-.1.037-.255.037-.462.037.968.037-.732.037.514.037.282.037.565.037-.158.037-.223.037-.411.037.587.037.5.037-.649.037.045.037.03.037-.722.037-.347.037.76.037-.231.037-.21.037-1.021.037,1.4.037-.574.037.36.037.362.037-.212.037.092.037.021.037-.073.037-.554.037,1.025.037-.555.037.317.037.017.037-.443.037.015.037.233.037-.188.037.218.037.212.037.047.037-.03.037-.221.037-.028.037-.154.037-.184.037-.289.037-.113.037-.257.037.644.037-.011.037.075.037-.109.037.09.037-.229.037.22.037-.278.037.038.037-.379.037.128.037.22.037.251.037-.071.037.306.037,0,.037-.388.037.435.037.013.037-.186.037.233.037-.045.037-.214.037-.3.037.4.037.034.037.2.037-.107.037.036.037.086.037-.139.037.073.037-.071.037-.173.037-.505.037.368.037.227.037-.7.037.2.037.186.037-.024.037-.169.037.282.037-.124.037.174.037.156.037-.25.037-.27.037-.24.037,2.074.037-.736.037-.173.037-.278.037-.1.037-.038.037.82.037.107.037.028.037.024.037-.066.037.084.037-.133.037-.109.037-.077.037-.233.037-.047.037.248.037.167.037-.148.037-.036.037-.017.037.088.037-.516.037.638.037-.056.037.205.037-.407.037.176.037-.631.037.248.037.541.037-.064.037-.223.037.42.037-.49.037.077.037-.071.037.347.037.236.037-.321.037.011.037.066.037.18.037.12.037-.278.037.066.037.058.037-.1.037-.619.037.691.037.291.037-.482.037.567.037.071.037-.257.037-.368.037.357.037-.182.037-.075.037-.2.037.154.037-.092.037.55.037-.43.037.524.037-.6.037-.036.037.343.037.013.037.308.037-.538.037.146.037-.124.037.193.037.049.037.058.037-.358.037.077.037-.372.037.685.037-.374.037-.083.037-.266.037-.041.037-.225.037.193.037.255.037.135.037-.116.037.415.037,1.047.037.557.037-.015.037.015.037-.158.037.118.037-.3.037-.16.037.445.037.109.037.143.037-.445.037.079.037.293.037-.368.037.373.037-.223.037.1.037-.283.037-.075.037.261.037-.066.037.2.037.073.037.015.037-.563.037.267.037.236.037.009.037-.047.037.026.037-.238L91.095,68l.037.387.037-.118.037.188.037-.2.037-.083.037.114.037-.25.037.351.037.052.037.126.037.086.037-.171.037-.154.037-.193.037.086.037-.086.037.426.037.113.037-.289L91.832,68l.037-.3.037.259.037.272.037-.109.037.27.037-.255.037.522.037-.165.037.3.037-.3.037-.173.037-.114.037-.137.037-.036.037.343.037.088.037-.024.037.238.037.041.037.054.037-.214.037.075.037-.39.037.45.037.045.037-.017.037-.176.037.25.037.024.037-.443.037.306.037.208.037.222.037-.038.037-.428.037-.154.037.2.037-.131.037.477.037.073.037.069.037.047.037-.724.037.854.037-.141.037.231.037-.118.037-.094.037.216.037.007.037-.379.037.39.037-.186.037-.261.037-.049.037.565.037-.086.037.133.037-.308.037.34.037.1.037-.18.037-.017.037.026.037-.34.037-.383.037.76.037-.306.037.355.037.034.037-.255.037.381.037.073.037.1.037-.178.037.062.037.1.037-.066.037.176.037-.34.037-.349.037.625.037-.218.037.139.037-.135.037-.12.037.244.037-.041.037-.133.037-.43.037.6.037.139.037-.092.037.071.037-.328.037.229.037-.527.037.45.037-.381.037.482.037.075.037.21.037-.608.037.462.037-.276.037.233.037-.193.037.047.037-.073.037-.312.037.351.037-.092.037.015.037-.261.037.227.037-.188.037.161.037-.25.037.235.037.109.037.246.037.007.037.073.037-.109.037.122.037-.045.037-.049.037-.3.037.266.037.122.037.27.037-.291.037.152.037-.126.037-.282.037.572.037-.077h.037l.037.135.037-.013.037-.041.037-.158.037-.424.037-.038.037.486.037-.49.037.458.037-.15.037.073.037.1.037.066.037.03.037.133.037-.038.037.248.037-.287.037.6.037-.216.037-.06.037.1.037.193.037-.2h.037l.037.235.037-.389.037-.159.037.116.037.156.037-.171.037-.079.037-.092.037-.011.037-.173.037.582.037-.015.037.225.037.017.037-.306.037.281.037-.246.037.135.037.109.037.088.037-.51.037-.06.037.242.037-.113.037.409.037-.083.037.019.037-.21.037.139.037-.041.037.088.037.038.037.064.037-.388.037,0,.037.392.037-.122.037.1.037.1.037-.306.037.163.037.16.037-.009.037.013.037-.16.037-.3.037.332.037-.109.037.139.037-.037.037-.349.037.1.037.385.037-.056.037-.267.037.424.037-.017.037-.114.037.069.037-.37.037.253.037-.527.037-.09.037.058.037.289.037-.475.037.182.037.186.037-.06.037-.116.037-.193.037.52.037-.011.037.266.037.053.037-.631.037.4.037.248.037.079.037-.03.037.081.037-.109.037-.385.037-.137.037-.092.037.146.037.2.037.214.037-.368.037-.068.037.426.037.068.037,0,.037.049.037-.083.037-.274.037-.03.037-.03.037.114.037-.379.037.7.037.026.037.034.037-.013.037-.177.037.188.037-.032.037-.281.037.124.037.092.037.1.037-.227.037.229.037-.3.037.392.037-.054.037-.034.037-.351.037-.48.037-.689.037-.518.037-.507.037-.674.037-.437.037-.347.037.77.037,3.228.037-.013.037-.054.037.024.037.028.037.135.037-.576.037.437.037.007.037-.094.037.24.037-.113.037-.308.037.115.037.244.037.015.037-.062.037-.238.037-.114.037.242.037.374.037-.038.037.021.037-.062.037-.133.037.039.037-.195.037.321.037-.124.037.171.037-.212.037.1.037-.015.037-.176.037.248.037,0,.037-.447.037.055.037.054.037.377.037-.1.037.2.037-.49.037.317.037-.011.037.06.037-.056.037.206.037-.285.037-.176.037.34.037-.028.037-.176.037.259.037-.366.037.1.037.122.037.06.037-.12.037-.056.037.051.037-.21.037.021.037-.034.037.371.037-.272.037-.409.037.293.037.1.037.028.037,0,.037-.223.037.248.037-.066.037.026.037-.214.037.225.037.024.037.086.037-.246.037.336.037-.148.037-.034.037.225.037-.357.037.146.037.227.037-.114.037,0,.037-.032.037.024.037-.135.037.131.037-.2.037.017.037.2.037-.236.037-.195.037.124.037-.019.037-.565.037.385.037.163.037-.347.037-.069.037.165.037.392.037-.019.037.115.037-.075.037.227.037.024.037-.09.037-.146.037.019.037.032.037.154.037-.364.037-.561.037.317.037.023.037.242.037-.013.037.156.037.1.037-.055.037.165.037-.289.037.266.037.1.037-.056.037-.176.037.021.037-.3.037.191.037-.062.037-.083.037.283.037.032.037-.368.037-.011.037.315.037-.047.037.1.037.041.037-.2.037,0,.037-.143.037.126.037.1.037.019.037-.257.037-.191.037-.492.037-.075.037.111.037-.116.037-.447.037-.859.037.462.037.109.037.672.037-.013.037.229.037.043.037-.458.037.422.037-.026.037-1.92.037-.118.037.287.037.071.037,1.636.037-.777.037-3.13.037.7.037.687.037.062.037,2.383.037-.22.037-2.5.037-1.391.037.82.037.338.037.752.037-1.184.037,1.366.037.182.037.559.037.959.037.366.037-.34.037.306.037-.233.037.218.037.248.037-.238.037-.118.037.231.037.021.037.884.037-.522.037.5.037-.574.037.424.037-.272.037-.272.037-.431.037-.293.037-.041.037,1.041.037.267.037.036.037-.081.037-.028.037.116.037-.073.037-.308.037-.154.037-.017.037,0,.037.514.037-.111.037-.011.037-.032.037.047.037-.038.037-.176.037.216.037.032.037-.073.037-.355.037.276.037-.017.037-.281.037-.1.037.6.037-.527.037.143.037-.12.037.18.037-.028.037.2.037-.516.037-.2.037-.017.037.343.037-.42.037.465.037.323.037.167.037-.152.037-.047.037-.024.037-.154.037.274.037-.278.037-.1.037.079.037.242.037.013.037-.114.037-.186.037.379.037.1.037-.437.037.1.037.267.037-.208.037-.1.037.036.037-.019.037-.225.037.137.037.264.037-.131.037-.328.037.026.037.163.037.244.037-.3.037-.015.037.122.037-.374.037.46.037.073.037.18.037-.006.037-.908.037.715.037.34.037-.026.037-.227.037.062.037.047.037-.2.037.086.037-.083.037.131.037-.246.037.092.037.079.037-.274.037-.053.037.158.037.3.037-.42.037.49.037-.156.037-.092.037-.176.037.1.037-.64.037.636.037.392.037-.225.037.206h.037l.037-.227.037.148.037.122.037.034.037-.081.037-.077.037-.1.037,0,.037.285.037-.038.037-.107.037.028.037-.124.037.332.037-.355.037-.373.037.083.037.259.037.024.037.06.037.045.037-.287.037.3.037.143.037-.21.037-.068.037.038.037.248.037-.165.037-.263.037-.163.037-.31.037.223.037.616.037-.2.037-.019.037-.441.037-.156.037.265h.037l.037.12.037.332.037-.038.037.054.037.146.037-.092.037-.263.037.086.037.158.037-.171.037-.713.037-.041.037.691.037-.062.037.321.037-.37.037-.176.037.152.037.1.037.343.037-.131.037-.064.037-.524.037.159.037-.135.037.623.037-.422.037.42.037-.038.037.083.037-.092.037.023.037.071.037.017.037-.141.037.077.037-.253.037.227.037.238.037-.31.037-.156.037-.2.037.028.037.259.037.146.037-.169.037.315.037.107.037-.312.037-.283.037-.379.037.3.037.18.037.12.037-.1.037.332.037-.218.037.064.037-.375.037-.054.037.233.037-.017.037-.227.037.49.037-.392.037-.283.037.679.037-.1.037-.222.037.021.037-.237.037.182.037.278.037.122.037-.1.037-.45.037.306.037.364.037-.73.037.173.037-.291.037.122.037-.248.037.552.037-.18.037.137.037-.051.037.205.037-.387.037.008.037,0,.037.216.037-.3.037.18.037,0,.037-.045.037-.563.037.627.037.111.037-.176.037.028.037.017.037-.036.037-.465.037.37.037-.126.037.188.037-.58.037.535.037-.107.037.032.037.051.037.169.037-.259.037.122.037.231.037-.049.037.073.037-.255.037.113.037-.467.037.39.037-.505.037-.128.037-.355.037-.392.037.22.037,1.319.037-.4.037-.334.037.3.037.244.037-.357.037.007.037-.066.037.3.037-.306.037-.12.037-.653.037.486.037.4.037.191.037-.375.037.161.037-.336.037.246.037-.4.037.171.037-.717.037.672.037-.12.037.056.037.122.037.007.037.329.037-.345.037-.325.037-.255.037.452.037.353.037.154.037-.452.037.51.037.028.037-.064.037.167.037-.578.037.208.037.422.037.291.037-.651.037.325.037-.055.037.2.037.045.037-.321.037.159.037.043.037-.327.037-.34.037-.732.037,1,.037.071.037-.49.037.146.037.4.037.092.037-.3.037.6.037-.178.037-.469.037.045.037,0,.037.67.037-.375.037-.231.037-.593.037.447.037.48.037-.094.037.088.037.366.037-.25.037.126.037-.34.037.7.037-.075.037-.469.037.357.037-.066.037-.1.037.049.037.274.037-.527.037.392.037-.229.037.246.037.137.037-.227.037.118.037.036.037-.281.037-.332.037.212.037-.141.037.225.037.045.037.139.037-.165.037-.15.037.013.037.522.037-.212.037.06.037-.229.037.559.037-.276.037-.03.037-.278.037-.081.037-.285.037.028.037.319.037-.069.037.375.037.094.037-.221.037-.2.037.411.037-.229.037.167.037.349.037-.45.037.25.037.188.037-.1.037-.471.037.327.037-.115.037-.015.037-.122.037.043.037.122.037-.113.037.122.037.2.037-.238.037,0,.037.332.037-.3.037.246.037-.3.037-.212.037.139.037.16.037,0,.037-.572.037.524.037-.017.037-.056.037-.338.037.456.037-.411.037-.03.037-.088.037.126.037.193.037.013.037-.411.037.236.037-.321.037-.079.037.163.037.205.037-.261.037.58.037.032.037.148.037-.265.037.415.037-.505.037-.18.037-.221.037.251.037.488.037-.276.037-.43.037.563.037.034.037-.473.037.319.037,0,.037-.088.037-.043.037-.343.037.587.037-.152.037.034.037-.109.037.177.037-.077.037.2.037-.034.037-.038.037-.146.037.148.037-.1.037.064.037-.011.037.131.037-.086.037-.2.037.163.037-.244.037.214.037-.171.037.066.037-.092.037.111.037.114.037.049.037.169h.037l.037-.505.037-.06.037.024.037.437.037-.007.037-.261.037.381.037.137.037-.306.037-.081.037.195.037-.263.037.3.037-.1.037-.066.037-.31.037.086.037.345.037-.062.037.013.037-.649.037.567.037-.651.037.293.037-.193.037-.154.037.159.037-.255.037.195.037-.077.037.328.037-.15.037.261.037.1.037-.381.037.655.037,0,.037.032.037-.3.037-.212.037.58.037-.531.037.3.037.321.037.163L130,71.32l.037.2.037-.27.037.306.037-.334.037.454.037-.212.037.229.037-.058.037-.052.037-.006.037-.2.037-.111.037.3.037-.146.037-.216.037-.717.037.685.037-.433.037.7.037-.051.037.184.037-.037.037-.653.037-.383.037.291.037.058L131,70.8l.037-.229.037-.011.037-.1.037.351.037-.233.037.454.037.321.037-.426.037-.18.037.377.037-.09.037-.131.037.274.037.287.037-.739.037.527.037-.2.037.317.037.058.037-.069.037-.287.037.375.037.047.037-.321.037.1.037.18.037-.066.037-.118.037.27.037-.409.037.467.037-.141.037-.565.037-.195.037.929.037-.225.037.169.037-.156.037.143.037-.835.037.486.037-.2.037-4.436.037.045.037-.677.037-.726.037-.248.037.469.037.214.037-.176.037-.593.037-.135.037.315.037-.6.037.861.037-.278.037-.265.037-.319.037.364.037.205.037-.137.037.261.037.017.037-.5.037.452.037.411.037.6.037.3.037-.154.037-.038.037.024.037.174.037.661.037-.1.037.081.037.1.037-.325.037.4.037.16.037.116.037.355.037-.188.037-.319.037.651.037.51.037-.052.037-.045.037-.214.037-.345.037.223.037.212.037-.7.037.141.037-.086.037.357.037.223.037-.137.037.1.037.7.037-.968.037,1.379.037-.242.037.638.037-.328.037.229.037-.792.037.409.037-.225.037.512.037.293.037-.415.037.377.037.049.037.458.037.1.037.458.037.223.037-.111.037-.49.037-.109.037.251.037.334.037-.193.037-.372.037.557.037-.054.037.3.037-.075.037.12.037-.255.037-.043.037.041.037-.028.037-.073.037-.21.037.3.037-.447.037,0,.037-.073.037-.013.037.229.037-.4.037.148.037,0,.037-.512.037.2.037-.122.037.21.037.458.037-.18.037.263.037-.507.037.542.037-.1.037.178.037.443.037,0,.037.308.037-.334.037-.42.037-.379.037.711.037.058.037.088.037-.165.037.006.037.212.037-.22.037-.1.037-.338.037.4.037-.7.037.816.037-.308.037.143.037.128.037,0,.037-.212.037-.743.037-.278.037.826.037-.152.037.062.037.088.037.1.037.22.037-.411.037.03.037-.013.037-.086.037.049.037.011.037.323.037.257.037-.128.037-.45.037.244.037.2.037-.328.037.368.037-.09.037-.574.037-.148.037-.248.037-.221.037-.214.037.48.037.794.037-.178.037.385.037-.036.037-.143.037.332.037-.195.037.052.037-.165.037-.024.037.3.037,0,.037-.049.037.092.037-.484.037.1.037-.116.037-.409.037.385.037.33.037.205.037-.017.037-.026.037.051.037-.092.037-.03.037-.383.037-.557.037.608.037-.131.037-.362.037-.069.037-.09.037.212.037-.075.037-.2.037.272.037.2.037.3.037.208.037-.415.037.062.037-.578.037.839.037-.27.037.449.037.019.037.1.037-.154.037.154.037.165.037.158.037-.357.037-.5.037-.137.037-.079.037-1,.037.364.037.4.037.27.037-1.877.037-.865.037.58.037,1.1.037.141.037-.454.037-.114.037.469.037-.135.037-.332.037-.544.037-.548.037-.965.037.717.037-.255.037-.572.037-.537.037.1.037.484.037.732.037-.161.037-.259.037.443.037.3.037-.2.037.024.037-.043.037-.218.037.18.037-.1.037.019.037-.116.037-.019.037.135.037-.212.037.062.037.768.037.351.037.16.037-.135.037.619.037-.411.037.3.037.1.037-.1.037-.115.037-.026.037.3.037-.1.037-.15.037.435.037-.373.037-.021.037-.043.037.856.037-.107.037-.116.037.071.037.283.037-.174.037.287.037-.173.037-.2.037.533.037-.094.037-.03.037.439.037-.387.037-.017.037.381.037-.1.037.047.037.216.037.274.037-.261.037.576.037-.634.037.011.037.21.037.131.037-.135.037-.475.037.437.037-.06.037.246.037-.066.037.37.037-.285.037.212.037-.308.037.326.037,0,.037-.15.037.216.037.086.037-.312.037-.039.037-.1.037.327.037.118.037-.111.037-.212.037.024.037.347.037-.184.037-.285.037.21.037-.079.037.013.037-.18.037.441.037-.24.037-.178.037.208.037.137.037-.073.037.135.037-.114.037-.338.037-.066.037-.053.037.61.037-.724.037.43.037.011.037-.7.037-.773.037.824.037.274.037-.077.037-.154.037-.835.037-.128.037.062.037.141.037.3.037.308.037-.141.037.113.037-.364.037.186.037.67.037.094.037-.27.037.272.037-.09.037-.21.037.49.037-.229.037-.619.037.619.037-.394.037-.349.037.259.037.417.037-.081.037.4.037.051.037-.255.037.272.037.111.037-.25.037.013.037.3.037-.319.037-.154.037.49.037-.128.037.124.037.03.037-.026h.037l.037.038.037-.353.037.415.037-.188.037.131.037-.329.037.278.037-.1.037.3.037-.345.037.25.037-.021.037.045.037-.664.037.047.037.364.037-.422.037.289.037-.131.037.041.037-.353.037.807.037.129.037-.2.037.068.037-.212.037-.141.037.364.037-.274.037.1.037.06.037-.287.037.291.037-.158.037.16.037-.141.037.154.037-.141.037-.34.037.482.037-.055.037-.338.037.49.037-.362.037-.056.037.233.037,0,.037.028.037,0,.037-.131.037.158.037-.045.037-.182.037-.263.037.381.037-.165.037.077.037.143.037.075.037-.056.037.094.037.141.037-.233.037.278.037-.06.037-.227.037.31.037-.137.037-.081.037.255.037-.028.037-.113.037.191.037-.092.037-.37.037-.15.037.48.037-.015.037-.088.037-.156.037-.058.037.3.037-.038.037.33.037.282.037.083.037-.06.037-.494.037.24.037.026.037-.225.037.357.037.193.037-.437.037.049.037.139.037.051.037-.208.037.163.037-.51.037.477.037.143.037.073L151,72.4l.037-.319.037-.064.037.141.037.036.037.056.037-.079.037-.443.037.139.037.038.037.259.037.09.037-.026.037.086.037-.289.037-.021.037.131.037.15.037-.109.037-.362.037.326.037.045.037-.073.037.25.037.019.037.1.037-.291.037-.173.037.364.037-.1.037.146.037-.064.037-.165.037-.107.037-.36.037.533.037.195.037-.163.037.246.037-.205.037-.073.037.208.037,0,.037-.1.037.171.037-.267.037-.019.037.06.037.1.037.1.037-.051.037.045.037-.655.037.407.037.036.037.221.037.028.037-.015.037-.171.037-.055.037.259.037-.118.037,0,.037.007.037-.062.037.18.037.051.037-.263.037-.09.037,2.351.037-.565.037-.017.037.366.037.019.037-.184.037-.131.037-.368.037.456.037.171.037.079.037-.21.037.233.037-.1.037-.1.037.1.037.1.037-.051.037.055.037.036.037-.212.037.043.037.268.037,0,.037-.041.037-.2.037-.351.037-.3.037.9.037-.186.037.141.037.058.037-.141.037-.174.037.362.037.107.037-.467.037.154.037.263.037.039.037.006.037-.253.037.343.037-.167.037-.156.037-.505.037.141.037.4.037,0,.037-.034.037.116.037-.1.037-.206L155.5,74l.037.261.037.321.037-.036.037-.047.037.174.037-.351.037.176.037-.242.037-.011.037-.246.037-.049.037.7.037-.482.037.128.037.557.037-.281.037.013.037.182.037-.18.037-.015.037.058.037-.2.037.088.037-.22.037-.026.037.075.037.283.037-.214.037.071.037.255.037-.31.037-.09.037-.084.037.03.037-1.122.037-.152.037.927.037-.09.037.122.037.171.037.216.037.066.037-.007.037-.006.037.077.037-.193.037.25.037-.054.037.088.037-.347.037.253.037.248.037-.31.037.107.037-.054.037-.437.037.362.037.39.037-.441.037.514.037-.092.037-.03.037-.431.037.083.037.069.037-.5.037.482.037.06.037.116.037-.206.037-.107.037,0,.037-.233.037.371.037.216.037-.248.037.133.037-.118.037.086.037.2.037-.013.037-.034.037-.064.037.184.037.017.037,0,.037.026.037.041.037-.484.037.007.037.312.037.171.037-.281.037-.3.037-.071.037-.379.037.689.037-1.655.037.906.037,0,.037.334.037-.18.037.049.037-.227.037-.255.037.689.037.1.037-.15.037-.139.037-.171.037.565.037-.484.037.03.037.043.037.22.037.077.037-.55.037.049.037.064.037.165.037.024.037-.013.037.086.037.024.037-.353.037-.407.037.886.037-.285.037-.118.037-.507.037.25.037-.7.037,1.319.037.253.037-.086.037-.135.037-.276.037-.546.037.486.037.195.037.357.037-.533.037-.15.037.36.037.122.037.019.037.193.037-.448.037.107.037.246.037.334.037-.227.037.12.037-.064.037-.538.037-.058.037.439.037.244.037-.146.037-.24.037.27.037.139.037-.109.037-.041.037-.107.037.415.037-.465.037.032.037.083.037-.46.037.315.037.024.037.308.037-.531.037-.009.037.265.037.045.037-.156.037.12.037-.073.037-.034.037.126.037.178.037-.18.037.257.037-.051.037-.3.037-.122.037.028.037-.024.037.343.037-.06.037.255.037.036.037-.754.037.266.037-2.036.037.677.037-.212.037-.854.037,1.381.037-.505.037-3.911.037-.255.037.578.037.8.037.236.037.342.037,3.16.037-1.117.037-3.62.037-.552.037.2.037,1.908.037-.34.037.06.037.559.037.674.037,1.725.037-.417.037.659.037.437.037-.415.037.336.037-.09.037.411.037.214.037.111.037-.259.037-.116.037.441.037,0,.037-.214.037.1.037.051.037-.212.037-.03.037.1.037-.231.037-.09.037.51.037-.385.037-.634.037.651.037.36.037.053.037-.578.037.529.037-.009.037-.338.037-.306.037.285.037-.169.037-.634.037-.122.037.91.037-.1.037.206.037.115.037-.257.037.5.037.006.037-.285.037.266.037-.274.037.351.037-.178.037.088.037-.036.037-.041.037.253.037-.4.037.081.037.2.037.081.037-.191.037.1.037-.445.037.263.037.049.037.2.037-.4.037.233.037-.2.037.21.037.073.037-.25.037.1.037-.293.037.426.037-.779.037.514.037.188.037.176.037-.308.037.208.037-.347.037-.139.037.143.037.083.037.139.037-.374.037.3.037-.263.037-.319.037.319.037.143.037.024.037.03.037.334.037.124h.037l.037-.229.037-.308.037-.2.037.109.037.518.037-.465.037.593.037.066.037-.03.037-.4.037.154.037.126.037-.319.037.439.037-.158.037.244.037-.282.037-.272.037.37.037.047.037.141.037-.591.037-.644.037,1.027.037.208.037-.381.037.118.037-.229.037.34.037-.315.037.146.037.069.037.263.037-.852.037.051.037.287.037.3.037-.013.037-.141.037.01.037-.177.037-.2.037.246.037.1.037-.178.037-.094.037.12.037.432.037-.34.037-.385.037.388.037-.21.037.477.037-.456.037.133.037.315.037-.426.037-.946.037.465.037.126.037-.888.037-.644.037.563.037.3.037-.073.037.09.037.668.037.287.037.428.037-.336.037-1.468.037.383.037-.126.037.276.037-.329.037.987.037-.21.037-.045.037.52.037-.569.037-.122.037.372.037-.066.037-.225.037.584.037-.34.037.306.037.1.037.165.037-.015.037.3.037.011.037-.03.037.15.037-.347.037-.216.037.428.037-.381.037.411.037.143.037-.822.037.242.037.473.037-.355.037.349.037-.229h.037l.037.255.037-.178.037-.047.037.167.037.109.037-.541.037,0,.037.131.037,0,.037-.073.037-.03.037-.051.037-.032.037.135.037.281.037.069.037-.009.037-.154.037-.8.037-.555.037,1.267.037-.238.037.15.037-.353.037.374.037-.073.037.094.037-.212.037.092.037-.169.037-.563.037.358.037.043.037.223.037-.171.037.278.037-.088.037.171.037-.081.037.017.037.161.037-.051.037-.159.037.227.037-.4.037.437.037.011.037-.126.037.24.037-.184h.037l.037.274.037-.081.037-.135.037-.171.037.272.037-.244.037-.081.037-.285.037-.163.037-.071.037-1.147.037-.413.037,1.053.037.572.037.208.037-.5.037-.3.037.141.037.927.037.122.037.124.037-.032.037-.343.037-.051.037.443.037-.244.037-.176.037-.681.037.4.037.334.037-.328.037-.43.037-.051.037.22.037.3.037-.139.037.55.037-.751.037-.2.037-.484.037-.163.037-.069.037.39.037.659.037-.1.037-1.177.037,1.212.037.285.037.608.037-.3.037.128.037-.2.037-.1.037-.627.037.878.037.15.037-.762.037.443.037-.411.037-.026.037.285.037-.385.037-.443.037-.2.037.452.037-.619.037.154.037.437.037-.505.037.174.037-.482.037.734.037-.289.037.07.037.454.037-.736.037-.024.037.349.037.822L175.76,74l.037-.092.037.383.037.238.037-.051.037-.407.037.255.037.22.037-.158.037-.225.037.34.037-.242.037-.075.037.216.037.133.037-.113.037-.64.037-.36.037.439.037.351.037-.28.037-.281.037-.12.037-.555.037-.158.037,1.134.037-.655.037.448.037.131.037-.539.037-.007.037.625.037.233.037-.079.037.4.037-.593.037.092.037-.1.037.629.037-.268.037-.479.037.681.037-.467.037.165.037.1.037-.15.037.079.037.056.037-.42.037.353.037-.225.037.182.037-.259.037-.413.037.347.037.471.037.056.037-.013.037.06.037-.417.037-.3.037-.019.037-.169.037.691.037.208.037-.233.037-.3.037.79.037-.086.037-.479.037-.585.037.437.037-.351.037-.548.037,1.032.037.323.037.161.037.058.037-.353.037-.154.037-.432.037.906.037-.569.037-.047.037.4.037-.287.037-.711.037.655.037.225.037,0,.037.163.037-.627.037.126.037.338.037-.141.037.163.037-.013.037-.058.037-.156.037-.524.037.083.037.011.037-.124.037.053.037-.188.037.287.037-.535.037.227.037.281.037-.058.037-.293.037-.032.037-.276.037-.231.037-.178.037.128.037.054.037.441.037.31.037-.1.037-.133.037-.169.037-.009.037.5.037.062.037,1.192.037-.886.037.743.037-.191.037-.687.037-.8.037.071.037.473.037.328.037.218.037-.045.037.021.037.548.037-.058.037-.032.037.086.037-.21.037-.351.037.448.037.107.037-.313.037.276.037-.174.037,0,.037.154.037-.231.037.152.037-.261.037-.008.037-.548.037.537.037.081.037.274.037-.338.037-.52.037-.548.037-.3.037.578.037.644.037-.6.037.1.037.24.037-.263.037.126.037.094.037.366.037.064.037,0,.037-.79.037.383.037-.013h.037l.037.238.037.021.037-.236.037-.734.037.608.037.283.037.019.037-.784.037.276.037-.113.037.329.037.231.037-.047.037.133.037-.253.037.124.037.34.037-.552.037-.293.037.533.037.013.037-.137.037-.417.037.681.037-.484.037-.546.037.133.037.3.037.582.037-.929.037.317.037.4.037-.364.037.034.037-.533.037.7.037-.91.037.734.037-.006.037.672.037-.139.037-.276.037-.008.037.428.037-.009.037-.06.037-.33.037,0,.037.366.037-.336.037-.036.037.1.037.235.037-.454.037-.088.037.563.037-.653.037.007.037.7.037-.216.037.051.037-.068.037-.351.037.323.037-.126.037.345.037-.024.037-.056.037-.12.037.051.037-.73.037.293.037.73.037-.178.037.1.037.195.037.118.037-.839.037-.537.037-.261.037.492.037-.06.037.542.037.024.037.458.037-1.149.037-.955.037-.028.037-.409.037,1.137.037-.135.037,1.265.037-.85.037.439.037.589.037-.315.037-.208.037.124.037-.3.037-.544.037-.036.037.167.037.407.037.111.037-.373.037.407.037-.118.037-.368.037.377.037.1.037-.236.037-.047.037-.287.037-.31.037.948.037.462.037-.313.037-.4.037.338.037-.019.037.109.037-.357.037.4.037-.531.037.276.037.184.037.555.037-.1.037-.888.037.334.037-.011.037.3.037.062.037-.092.037.253.037-.621.037-.494.037.942.037-.839.037-.2.037-.15.037.554.037-.139.037.432.037.161.037-.073.037.126.037-.5.037-.244.037.18.037.158.037.22.037-.16.037.148.037-1.124.037.276.037.073.037.524.037.131.037-.387.037-.174.037.148.037-.561.037.878.037-.589.037-.075.037.741.037-.826.037-.158.037.092.037-.036.037,0,.037-.435.037-.167.037,1.01.037-.655.037.55.037.06.037-.092.037-.109.037-.2.037-.2.037,0,.037.175.037.171.037-.266.037-.079.037-.024.037.6.037-.195.037-.283h.037l.037.5.037.193.037.312.037.188.037-.146.037.036.037-.167.037.045.037-.216.037-.158.037.377.037.244.037-.306.037-.278.037.274.037-.379.037-.176.037.041.037-.054.037.674.037.231.037-.728.037.64.037-.1.037-.083.037.2.037.066.037-.542.037.2.037.379.037-.274.037-.2.037,1,.037.047.037-.173.037.332.037-.094.037-.139.037.219.037.068.037-.374.037-.129.037.141.037.58.037-.24.037-.306.037.392.037-.377.037-.191.037.424.037.032.037.124.037-.086.037-.118.037-.3.037.334.037-.028.037-.332.037-.075.037.175.037-.278.037.39.037-.1.037.041.037-.019.037.253.037-.432.037-.092.037-.071.037.479.037-.18.037.338.037-.462.037.055.037.445.037-.079.037-.1.037.272.037-.668.037-.21.037.27.037.146.037.019.037-.03.037-.355.037.184.037-.158.037.291.037-.694.037.79.037-.456.037.064.037-.516.037.58.037-.158.037.069.037-.2.037-.007.037-.148.037-.248.037.122.037.047.037.045.037.051.037.246.037-.152.037.274.037-.276.037.043.037-.1.037.214.037-.165.037.531.037-.5.037.12.037.428.037-.206.037.135.037.195.037-.056.037.034.037-.034.037.09.037.255.037-.015.037-.051.037-.334.037.319.037.009.037.045.037-.345.037.261.037.079.037.122.037-.246.037.045.037.193.037-.724.037.362.037.191.037-.047.037-.388.037.259.037.073.037.026.037-.642.037.4.037.052.037-1.023.037-.351.037.289.037.781.037-.133.037-.55.037.184.037-1.132.037.364.037.465.037.514.037.013.037-.169.037.25.037.193.037-.03.037.253.037-.047.037.128.037-.126.037.133.037.1.037.041.037-.593.037.36.037.283.037-.212.037.09.037.036.037.2.037-.424.037.006.037-.107.037-.133.037-.1.037.619.037-.064.037-.58.037-.006.037.191.037.173.037.06.037.086.037.165.037-.178.037.219.037-.223.037.182.037-.263.037.244.037-.088.037-.128.037-.017.037.366.037-2.689.037.218.037.178.037.1.037.174.037.343.037-1.711.037.12.037.129.037.135.037-.111.037-.512.037-.032.037-.306.037.338.037.377.037-.3.037.208.037.584.037-.086.037.4.037-.013.037-.291.037,1.137.037.373.037.109.037-.1.037.312.037-.482.037-.325.037.813.037.415.037-.454.037.141.037.31.037.066.037-.537.037-.246.037.535.037-.086.037.184.037-.3.037.3.037-.212.037.047.037.265.037.345.037-.2.037,0,.037-.531.037.12.037.1.037.193.037.1.037.317.037-.263.037-.043.037.03.037.345.037.114.037.1.037-3.335.037.274.037-.1.037-.264.037.261.037-.068.037.276L199.3,72l.037-.135.037.726.037.017.037-.27.037.191.037.37.037-.214.037-.163.037-.055.037.024.037.516.037.229.037-.3.037.255.037-.317.037-.409.037.957.037.116.037-.047.037.163.037-.394.037-.3.037.544.037.467.037.058.037.486.037-.064.037-.366.037-.049.037.507.037-.026.037-.038.037.126.037-.36.037.231.037.195.037,0,.037-.216.037.246.037-.233.037.15.037.086.037-.075.037-.041.037-.006.037,0,.037-.3.037.524.037-.141.037-.026.037.193.037-.115.037.135.037-.321.037.032.037-.165.037.437.037-.158.037.028.037-.163.037-.2.037.49.037,0,.037-.407.037.233.037-.141.037.021.037-.137.037.306.037-.079.037.146.037-.15.037-.092.037.332.037-.4.037.09.037.124.037-.043.037.026.037-.357.037.375.037.169.037-.064.037.135.037-.272.037-.1.037.195.037.122.037-.079.037-.524.037.015.037.034.037.205.037-.193.037-.013.037.308.037.071h.037l.037.009.037-.086.037.137.037.178.037.049.037-.319.037.2.037-.047.037-.017.037-.516.037.394.037.334.037-.261.037.118.037-.387.037.212.037.064.037.09.037.037.037.013.037.062.037.024.037-.422.037.159.037.053.037.058.037-.225.037,0,.037.465.037.03.037-.021.037-.366.037.332.037-.242.037-.09.037.051.037-.184.037.6.037.015.037-.45.037-.116.037.336.037-.111.037-.03.037.3.037-.1.037.193.037-.435.037.5.037-.259.037.167.037-.092.037-.435.037.385.037.1.037-.454.037.026.037.5.037-.176.037-.064.037-.362.037.559.037-.024.037.083.037-.482.037.2.037-.415.037.415.037.336.037-.129.037.034.037-.015L205.6,75l.037.208.037.055.037-.118.037-.178.037.238.037-.22.037-.253.037-.114.037.231.037,0,.037-.3.037.191.037.165.037.062.037.038.037-.152.037-.161.037-.3.037-.184.037.6.037-.248.037-.054.037.261.037.156.037.021.037-.137.037-.486.037.668.037-.017.037-.062.037-.116.037-.047.037-.822.037.745.037.16.037.4.037-.137.037-.417.037.176.037-.31.037-.338.037.114.037-.015.037-.122.037.251.037.038h.037l.037.452.037.109.037.009.037-.015.037.015.037-.019.037-.024.037.122.037-.158.037.2.037-.293.037.094.037.3.037-.336.037.062.037.3.037-.33.037.42.037-.308.037-.3.037.625.037-.173.037.169.037-.343.037.373.037-.582.037-.231.037.833.037-.193.037-.484.037.31.037.139.037-.019.037-.111.037.013.037-.216.037.225.037.379.037-.182h.037l.037-.353.037.265.037-.2.037.159.037-.259.037.524.037-.163.037.2.037-.118.037-.293.037.111.037.038.037-.1.037-.036.037-.229.037-.122.037.319.037.1.037.032.037-.24.037.415.037-.27.037.017.037-.051.037.278.037-.139.037-.178.037-.253.037.038.037.407.037-.118.037.261.037-.066.037-.064L210.1,75l.037-.075.037.069.037.182.037-.126.037.238.037-.433.037.216.037.118.037.049.037.075.037-.86.037-.126.037.938.037.195.037-.208.037-.054.037-.069.037-.043.037-.184.037.308.037.169.037-.124.037-.36.037.548.037-.1.037.141.037-.111.037-.071.037.257.037-.18.037.038.037-.16.037-.27.037.049.037.032.037-.058.037-.055.037-.649.037.46.037.306.037.081.037.21.037-.139.037-.135.037-.312.037-.893.037.462.037.745.037.263.037-.193.037.109.037-.1.037-.66.037.666.037-.392.037-.458.037.7.037-.07.037-.086.037.364.037-.46.037-.167.037-.152.037.585.037.267.037-.76.037-.3.037.274.037.163.037-.443.037.124.037-.278.037-.319.037.831.037-.272.037.009.037-.238.037.229.037.111.037.139.037-.043.037.058.037-.009.037-.178.037.107.037.03.037-.028.037-.021.037-.666.037.5.037.083.037-.49.037.011.037.58.037-.283.037.516.037-.428.037.137.037-.439.037.388.037-.009.037.015h.037l.037-.263.037.863.037.3.037-.319.037.045.037.261.037-.052.037.021.037-.066.037-.388.037-.116.037.685.037-.114.037-.385.037-.428.037.285.037-.135.037.539.037-.713.037.482.037.077.037.122.037.028.037-.133.037-.253.037.026.037-.045.037.293.037-.156.037-.216.037-.077.037.627.037-.148.037-.1.037-.7.037.3.037.09.037.265.037.242.037-.109.037-.394.037-.062.037.6.037-.182.037-.054.037-.12.037.075.037-.452.037.188.037.124.037-.225.037.533.037-.34.037-.683.037.8.037-.381.037.206.037.152.037-.152.037-.366.037.242.037-.008.037.428.037-.454.037.522.037-.173.037.066.037-.045.037.049.037-.527.037-.265.037-.31.037.006.037-.165.037-.246.037.685.037-.448.037.069.037.015.037-.107.037.631.037.156.037.188.037-.195.037-.636.037.651.037-.141.037.007.037.246.037.238" transform="translate(-2.908 -37.697)"/></g></g><g transform="translate(-23603.957 158.312)"><text class="a" transform="translate(1.568 109.037)"><tspan x="-4.059" y="0">0 k</tspan></text><text class="a" transform="translate(2 87.577)"><tspan x="-5.727" y="0">10 k</tspan></text><text class="a" transform="translate(2 66.118)"><tspan x="-5.727" y="0">20 k</tspan></text><text class="a" transform="translate(2 44.658)"><tspan x="-5.727" y="0">30 k</tspan></text><text class="a" transform="translate(2 23.198)"><tspan x="-5.727" y="0">40 k</tspan></text><text class="a" transform="translate(2 2)"><tspan x="-5.727" y="0">50 k</tspan></text></g></g></svg>