
<svg xmlns="http://www.w3.org/2000/svg" xmlns:xlink="http://www.w3.org/1999/xlink" width="211.43" height="111.229" viewBox="0 0 211.43 111.229"><defs><clipPath id="a"><rect width="197.786" height="103.582" fill="none"/></clipPath></defs><g transform="translate(-9.309 0.043)"><rect width="197.786" height="103.582" transform="translate(22.952 1.984)" fill="none"/><g transform="translate(-5.85 -19.17)"><path d="M54.727,21.154V124.736" fill="none"/><path d="M82.763,21.154V124.736" fill="none"/><path d="M111.567,21.154V124.736" fill="none"/><path d="M139.6,21.154V124.736" fill="none"/><path d="M168.022,21.154V124.736" fill="none"/><path d="M196.058,21.154V124.736" fill="none"/><path d="M224.861,21.154V124.736" fill="none"/></g><g transform="translate(-5.85 -19.17)"><path d="M28.8,124.858H226.59" fill="none" stroke="#e6e6e6" stroke-width="0.5"/><path d="M28.8,110.025H226.59" fill="none" stroke="#d8d8d8" stroke-width="0.5" opacity="0.8"/><path d="M28.8,95.193H226.59" fill="none" stroke="#d8d8d8" stroke-width="0.5" opacity="0.8"/><path d="M28.8,80.361H226.59" fill="none" stroke="#d8d8d8" stroke-width="0.5" opacity="0.8"/><path d="M28.8,65.772H226.59" fill="none" stroke="#d8d8d8" stroke-width="0.5" opacity="0.8"/><path d="M28.8,50.94H226.59" fill="none" stroke="#d8d8d8" stroke-width="0.5" opacity="0.8"/><path d="M28.8,36.108H226.59" fill="none" stroke="#d8d8d8" stroke-width="0.5" opacity="0.8"/><path d="M28.8,21.032H226.59" fill="none" stroke="#d8d8d8" stroke-width="0.5" opacity="0.8"/></g><path d="M0,0H197.786V103.582H0Z" transform="translate(22.952 1.984)" fill="none"/><g transform="translate(-5.85 -19.17)"><path d="M54.727,124.736v2.432" fill="none" stroke="#ccd6eb" stroke-width="0.243"/><path d="M82.763,124.736v2.432" fill="none" stroke="#ccd6eb" stroke-width="0.243"/><path d="M111.567,124.736v2.432" fill="none" stroke="#ccd6eb" stroke-width="0.243"/><path d="M139.6,124.736v2.432" fill="none" stroke="#ccd6eb" stroke-width="0.243"/><path d="M168.022,124.736v2.432" fill="none" stroke="#ccd6eb" stroke-width="0.243"/><path d="M196.058,124.736v2.432" fill="none" stroke="#ccd6eb" stroke-width="0.243"/><path d="M224.861,124.736v2.432" fill="none" stroke="#ccd6eb" stroke-width="0.243"/><path d="M28.8,124.858H226.59" fill="none" opacity="0.8"/></g><g transform="translate(-5.85 -19.17)"><text transform="translate(18.159 72.945) rotate(-90)" fill="#ccc" font-size="3" font-family="ArialMT, Arial"><tspan x="-21.093" y="0">Total Verified Contracts per Day</tspan></text><path d="M28.8,21.154V124.736" fill="#b3b3b3"/></g><g transform="translate(-5.85 -19.17)"><g transform="translate(28.804 21.154)" clip-path="url(#a)"><path d="M1.939,100.03l.155,2.959.155-.888.155,1.184H2.56l.155-.888.155-.3.155-.888.155,1.48.155.3h.155l.155-2.664.155-.888.155-1.184.155,2.664h.155l.155-.592.155,1.776.155-1.184.155.888.155.888L5.2,100.03l.155,3.255h.311l.155-.592.155-.3.155.3.155.3h.155L6.6,102.1l.155.888h.155l.155.3.155-2.072.155,2.072h.155l.155-.592h.155l.155.592.155-1.48H8.46l.155,1.184.155.3h.155l.155-.3.155.3.155-.592.155.592.155-.592h.155l.155.3.155-.3.155-.3.155.888h.466l.155-.592.155-.592.155.888h.155l.155.3.155-.3h.311l.155.3H12.5l.155-.3.155.3h.155l.155-1.184.155,1.184.155-.592h.31l.155.592h.155l.155-.3.155.3h.155l.155-1.48.155,1.184.155-.3.155.592h.155l.155-.592.155.3.155-1.184.155,1.48.155-.888.155.592.155.3h.155l.155-1.48.155-1.48L17,102.4l.155.888.155-.888.155.3.155.3.155-.592h.155l.155.3h.155l.155-.888.155,1.184.155-.3h.155l.155.3.155-1.184.155,1.48.155-.592.155.592.155-10.358.155,8.582.155-5.327.155,5.919.155.592.155-1.184.155.888.155.888.155-.592h.155l.155.592.155-.3.155-1.184.155,1.48h.155l.155-.592.155.592.155-1.184.155-1.48.155,1.776.155.592.155-.592.155.888.155-.888.155.592.155.3h.155l.155-.888.155.888.155-.3.155.3.155-.3.155-6.511.155,5.327.155,1.48.155-.3.155.3.155-1.776.155,1.48.155-.3.155.592h.311l.155-.592.155.3h.155l.155.3h.155l.155-.3.155.3.155-.592.155.592.155-.3.155.3h.155l.155-4.143.155,3.255.155.592.155-.888.155,1.184h.155l.155-.3h.155l.155-.592h.155l.155.592.155.3.155-.592h.155l.155-.592.155-.3.155.592.155.592h.155l.155-.888.155,1.184.155-1.184.155.3.155.3.155.3h.155l.155.3h.155l.155-.3.155.3.155-2.072.155,1.184.155.888h.155l.155-.3.155-.592h.155l.155.888h.155l.155-.3.155-.888.155.888h.155l.155.3.155-4.735.155,1.184.155,2.959.155-1.48.155,1.776.155.3h.155l.155-.3.155-.888.155.888.155-.592.155.592h.155l.155-2.072.155-.3.155,2.072.155-1.184.155,1.776.155-.3h.155l.155-.592.155-.3.155-.888.155,1.48.155-1.776.155-.3L39.2,102.4l.155-1.776.155,1.776h.155l.155.592.155-.592.155.888.155-.3.155-.3.155-1.776.155,2.368.155-3.255.155,3.255.155-3.847.155,1.184.155.888.155,1.48.155-.592.155.592.155-1.776.155.592.155.3.155.592.155.3.155.3.155-.3h.155l.155-2.368.155.888.155.888.155.3h.155l.155-.592.155.888h.155l.155-1.184.155,1.48.155-2.664L45.1,102.4l.155.888.155-.888.155-1.184.155,1.776.155-1.184.155.3.155-.3.155,1.184.155-.3.155.3h.155l.155-1.184.155,1.184.155-.888h.155l.155.592h.155l.155.3.155-2.959.155,2.959.155-2.368.155,1.776h.311l.155.592.155-1.184.155-1.776.155-.888.155,1.776.155,1.184.155-1.184.155,1.48.155.3.155-.592.155-3.255.155.592.155,3.551L51,101.806l.155-6.511.155,6.807.155.3.155.3.155-.592h.155l.155-2.368.155,2.959.155.592h.155l.155-1.184.155.3.155-.3.155.888.155-.592.155-1.184.155.888.155.888.155.3.155-.592.155-1.184.155.592.155-1.776.155.3.155-1.48.155,3.847.155-.3.155-2.368.155-2.072.155-7.1.155,10.358.155-.888.155,2.368.155.3.155-1.184.155-2.072.155,2.072.155-1.184.155-.888.155,1.48.155.592.155-4.143.155,1.48.155.3.155,1.48.155-.888.155,2.072.155-.888.155,1.184.155-1.48.155.3.155-.3.155-.592h.155l.155.592.155-4.143.155,2.368L60,97.663l.155,3.255.155-1.184.155,1.776.155-7.4.155,7.4.155-3.255.155.3.155-.592.155,3.255.155-.888.155-.888.155-.592.155-.888.155-.3.155,3.255.155-.888.155-.592.155-6.807.155,2.072.155,6.511L63.263,95l.155,5.623.155.888.155-7.4.155,4.143.155-3.847.155.592.155,4.735.155-1.184h.155l.155.888.155-4.143.155-2.368.155,5.031.155-2.072.155,2.072.155-1.776L65.9,94.7l.155-.888.155-2.959.155,5.327.155,2.072.155-3.551.155,2.072.155,3.551.155-2.072L67.3,93.52l.155,5.623.155-2.664.155,3.551.155-1.48.155-1.776.155-2.959.155.592.155-1.48.155.888.155.592.155,2.072.155,2.072.155-4.143.155-2.368.155,4.143.155-.592.155,2.072.155,2.072.155-5.623L70.4,95l.155-.592.155-.592.155-1.184.155-2.959.155,5.031.155-3.255.155-3.551.155,7.4L71.8,92.04l.155-6.807.155,5.327.155,3.551.155,1.184.155,1.48.155-1.184.155-2.072.155-1.184L73.2,90.56l.155.888.155,1.184.155,2.959.155-3.847.155.592.155-2.664.155,2.368.155,1.48L74.6,94.7l.155-3.847.155-3.255.155,3.847.155-.592.155,4.439.155,2.072.155-1.776.155-2.959.155,3.255.155-5.327.155-.592.155-3.847.155,6.807.155,10.062.155-12.134.155-5.327.155,8.878.155-1.776.155-1.184L77.7,93.52l.155-1.184.155-.3.155-.888.155-3.551.155,6.215.155-7.4.155,6.215.155-.3.155.592.155-5.031.155,4.143.155-6.511.155,3.255.155,1.184.155,4.143.155-11.246.155,6.215.155-.888.155-2.368.155-2.959.155,5.919.155-1.776.155-10.062.155,5.623.155-1.184.155,3.847.155,2.072.155,8.582.155-2.664.155-10.062.155-1.184.155,6.807.155.592.155-5.623.155,10.654s.08-4.933.155-7.4c.039-1.283.155-3.847.155-3.847l.155-5.623.155,3.255.155-3.255.155,2.959.155,11.246.155-1.776.155-11.542.155,1.184.155,1.776L85,80.794l.155.888.155,5.623.155-7.4.155,5.623.155-3.551.155-5.327.155-.3L86.24,80.2l.155,5.623.155,2.368.155-.888.155-.3.155,7.4.155-4.439.155-.592.155,6.807.155-13.318.155-5.327.155,8.878L88.1,76.65l.155-.592.155,5.623.155,9.47.155-9.47.155.3.155-2.959.155,9.174.155-6.511.155,7.1.155-.3.155-.888.155-7.991.155,3.551.155-10.654.155,7.1.155,4.143.155.888.155,2.368.155,2.368.155.592.155-3.551h.155l.155-2.368.155,3.847.155-4.735h.155l.155-2.072.155,4.439.155,3.255.155-12.726.155,1.776.155-5.031.155,10.358.155-6.511.155-1.184.155-1.184.155-5.919L94,71.323l.155,13.022.155-9.47.155-4.439.155-2.072.155,4.735.155-2.664.155,6.511.155,3.255L95.4,67.476l.155-11.542.155,7.4.155,9.766.155-7.695.155.3.155-2.664.155-7.695.155,5.919.155,1.184.155.3.155-1.776.155,17.165.155-3.255L97.573,58.3l.155,2.959L97.884,51.2l.155,11.246.155-6.215.155,20.716.155-5.031.155-5.327.155-7.4L98.97,65.7l.155-.592.155,3.847.155,14.8.155-15.685.155-25.747L99.9,56.526l.155-3.255.155,13.91.155,4.735.155,1.776.155-7.1.155-3.551.155-4.143.155,7.991L101.3,66l.155,1.184.155,2.664.155,3.847.155-13.614.155,2.959h.155l.155,3.551.155-3.551.155,9.47.155,8.878.155-18.645.155,2.959.155,3.551.155,1.184.155-8.878.155,20.124.155.3.155-29,.155,6.215.155-6.511.155,14.5.155,1.48.155,7.991.155,4.143.155-23.676.155-8.287.155,2.368.155,14.8.155-2.368.155,9.174.155-5.031.155-16.869.155-2.959.155,18.645.155-5.623.155,11.838.155-1.184.155-6.807.155-9.766.155,5.623.155,5.031.155-4.439.155,6.215.155,14.5.155-.3.155-24.268.155-.592L108.751,66l.155-3.847.155,2.959.155,19.533.155-8.582.155-16.277.155,3.847.155-2.959.155,4.735.155,2.664L110.3,78.13l.155-4.143.155-19.237.155,6.215.155,13.91.155.3.155-10.95.155,14.5.155,3.255.155-20.42.155.888.155,7.1.155-9.766.155,6.511.155,7.4.155-2.368.155-19.533.155,3.847.155-8.582.155,15.389.155-1.48.155,14.8.155-2.072.155-16.277.155,10.95.155-7.991L114.34,66l.155-8.582.155,18.349.155-1.184.155-21.308.155,3.551.155-9.174.155-3.255.155,12.134.155,10.654.155,5.031.155-31.666.155-13.91.155,12.134.155-3.847.155,21.6.155,14.8.155,5.623.155-18.941.155-9.174.155-6.511.155-9.47.155.3.155,34.33.155,14.5.155-44.392.155-.888.155,6.807.155,10.358.155,1.776L119,84.05l.155-3.847.155-8.878.155-22.2.155,5.919.155-29.3.155,28.411.155,18.053.155-6.807.155-35.218.155,18.645.155-3.255.155,10.654.155,2.664.155,28.115.155,1.48.155-71.62.155,16.573.155,24.564.155-41.137.155,13.614.155,30.779.155,11.246.155-15.685.155-13.318.155.888.155,12.726.155,7.695.155,10.95.155-13.91.155-7.1h.155l.155,4.143.155,9.47.155.592.155,3.255.155,5.031.155-13.022.155,2.072.155,15.685.155-9.766.155-4.735.155,7.695.155,6.511.155-13.614.155,4.735.155-1.184.155-3.551.155,7.695.155,3.847.155-6.511.155-16.277.155,4.735.155,10.654.155-8.878.155,5.919.155,7.4.155,10.358L128,69.252l.155-7.4.155-2.664.155.888.155-6.215.155,24.268.155-1.776.155-18.941.155,7.4.155,2.959.155-6.807.155,3.847.155,15.389.155-6.215.155-9.766.155.592.155,4.143.155,2.072.155,2.664.155,10.062.155,1.776.155-17.757.155-.3.155,1.776.155-4.143.155,5.327.155,17.461.155-10.062.155-7.1.155,2.959.155-10.95.155,6.511.155-2.072.155,9.47.155-2.368.155-7.1.155,3.255.155,3.847.155-.888.155,3.847.155,7.695h.155l.155-14.8.155-2.072.155,5.919.155-8.878.155,10.95.155,6.511.155,1.776.155-21.012.155,3.847.155,5.919.155,1.776.155-1.184.155,12.726.155-1.48.155-21.9.155,3.255.155-1.776.155,6.807.155-10.95.155,22.2.155-17.461.155-2.368.155-6.215.155,10.062.155-1.48.155-1.48.155,17.757.155-3.847.155-16.573.155-12.134.155,12.726.155-1.776.155,7.991.155,13.91.155,3.551.155-18.645.155,4.143.155-1.184.155-3.847.155-.3.155,14.206.155,2.368.155-6.807.155,3.255.155-6.215.155,5.919.155,5.327.155,8.582.155-4.143.155-16.573.155-2.959.155,8.878.155-.3.155-10.654.155,14.5.155,4.735.155-15.389.155-4.439.155,8.582.155-3.551.155,7.4.155,6.511.155,5.031.155-18.941.155,11.246.155-4.735h.155l.155-6.511.155,11.542h.155l.155-20.124.155,4.735.155,2.664.155,10.358.155,4.735.155,7.4.155,3.847.155-7.991.155.3.155-6.215.155-.3.155,1.776.155,6.215.155,2.368.155,4.439.155-6.807.155-2.072.155-7.991.155,3.551.155,7.991.155.888.155-12.134h.155l.155-.3.155.592.155,2.664.155,5.623.155,5.031.155-13.91.155,1.776.155,4.735L150.2,80.5l.155,6.215.155-2.072.155,7.695.155-15.685.155,5.623.155-12.134.155,15.685.155-1.776.155,4.439.155,2.368.155-12.726.155,4.143.155.888.155,1.776.155,1.48.155,7.1.155-1.184L153,84.642l.155-3.255.155,7.695.155-3.255.155-.592.155,9.47.155-4.439.155-8.287.155.3.155.888.155.888.155-5.031.155,14.5.155-2.368.155-7.4.155-27.227.155,28.707.155-13.318.155,1.184.155,17.165L156.1,80.5l.155-2.368.155,2.072.155,10.654.155-7.4.155-9.47.155,18.645.155-2.072.155-8.582.155-1.184.155.3.155,4.439.155,3.255.155,2.664.155-3.847.155-9.766.155,8.878.155-7.991.155,2.368.155-1.48.155,10.358.155,2.368.155-16.277.155,10.654.155-9.174.155-1.184.155,2.959.155,10.654.155,1.184.155-10.358.155,2.664.155-4.143.155-.888.155,2.664.155,15.685.155-8.878L161.69,72.8l.155,9.47.155.888h.155l.155-2.072.155,15.685.155-3.551.155-14.8.155,9.766.155-3.847.155-7.991.155,6.215.155,7.1.155,5.623.155-20.124.155,3.551.155-1.184.155,2.368.155,3.551.155,6.215.155,4.143L164.95,80.2l.155-4.143.155,8.878.155-3.551h.155l.155,12.134.155,1.776.155-15.093.155-3.255.155,12.726L166.5,74.58l.155,10.95.155,8.582.155-3.255.155-7.4.155-7.991.155,7.695.155-13.614.155,14.5.155,8.878.155,4.735.155-14.8.155,4.439.155-5.031.155,4.735h.155l.155,4.735.155,1.184.155-17.461.155,7.1.155.888.155-7.4.155,7.4.155,4.143.155,7.1.155-10.95.155-.592.155-5.031.155,5.031L171,78.723,171.16,95l.155-.592.155-5.919.155-25.451.155,19.829.155,2.664.155,3.255.155,7.991.155-2.959.155-16.277.155,5.919.155-8.582.155,7.4.155-2.959.155,10.358.155,6.511.155-15.389.155-2.072.155,4.735.155,1.776.155-3.847.155,10.358.155-6.215.155-1.776.155,1.776.155-4.143.155-3.847.155,2.072.155,6.215.155,7.695.155-11.542.155-1.48.155-2.664.155,4.143.155,4.735.155,3.551.155,2.368.155-11.838.155-2.664.155,1.48.155-.888.155-2.368.155,15.685.155-5.327.155-1.776.155,2.368.155-9.47.155-2.959.155-4.439.155,16.573.155,5.919.155-13.318.155,3.551.155,3.847.155-5.327.155.592.155,8.878L180.009,95l.155-11.838.155,3.551.155-5.919.155.592.155,2.959.155,7.1.155.888.155-16.277.155.592.155,7.695.155-6.215.155,4.143.155,1.776.155,8.582.155-8.582.155-8.582.155,3.551L182.8,80.2l.155-1.776.155,12.134.155,2.072.155-8.878.155.888.155-4.439.155-3.255.155,6.807.155,4.735.155,7.1.155-13.022.155.592.155-4.439.155-10.358.155,21.012.155,3.255.155,2.664.155-9.47.155-7.4.155,5.031.155-1.184.155-2.368.155,11.838.155,1.776.155-10.062.155,3.847L187,83.458l.155,8.287.155-1.184.155,3.847.155,1.184.155-10.654.155.3.155-4.735.155,8.878.155-3.551.155,2.072.155,3.255.155-6.807.155-1.776.155,5.031.155-9.47.155,3.847.155,11.838.155-3.551.155-4.143.155-1.184.155-2.368.155,2.664.155,1.184.155,2.368.155,1.184.155-6.807.155-4.439.155,3.255.155-.592.155-.3.155,1.184.155,5.031.155-12.134.155-11.246.155,30.187.155,8.878.155-.592.155.888h.155l.155-.3.155.3.155-.3.155.3.155-1.184.155.3.155-.888.155,1.48.155.3h.31l.155-.3h.311l.155.3h.155l.155-1.184.155,1.184" fill="none" stroke="#bbbfc4" stroke-linecap="round" stroke-linejoin="round" stroke-width="0.5"/></g></g><g transform="translate(-5.85 -19.17)"><text transform="translate(54.807 129.356)" fill="#ccc" font-size="3" font-family="ArialMT, Arial"><tspan x="-4.79" y="0">Jan &apos;19</tspan></text><text transform="translate(83.062 129.356)" fill="#ccc" font-size="3" font-family="ArialMT, Arial"><tspan x="-4.289" y="0">Jul &apos;19</tspan></text><text transform="translate(111.628 129.356)" fill="#ccc" font-size="3" font-family="ArialMT, Arial"><tspan x="-4.79" y="0">Jan &apos;20</tspan></text><text transform="translate(139.729 129.356)" fill="#ccc" font-size="3" font-family="ArialMT, Arial"><tspan x="-4.289" y="0">Jul &apos;20</tspan></text><text transform="translate(168.295 129.356)" fill="#ccc" font-size="3" font-family="ArialMT, Arial"><tspan x="-4.79" y="0">Jan &apos;21</tspan></text><text transform="translate(196.395 129.356)" fill="#ccc" font-size="3" font-family="ArialMT, Arial"><tspan x="-4.289" y="0">Jul &apos;21</tspan></text><text transform="translate(219.275 129.356)" fill="#ccc" font-size="3" font-family="ArialMT, Arial"><tspan x="-4.79" y="0">Jan &apos;22</tspan></text></g><g transform="translate(-1.85 -19.17)"><text transform="translate(23.043 125.709)" fill="#ccc" font-size="3" font-family="ArialMT, Arial"><tspan x="-1.668" y="0">0</tspan></text><text transform="translate(23.043 110.876)" fill="#ccc" font-size="3" font-family="ArialMT, Arial"><tspan x="-3.337" y="0">50</tspan></text><text transform="translate(23.043 96.044)" fill="#ccc" font-size="3" font-family="ArialMT, Arial"><tspan x="-5.005" y="0">100</tspan></text><text transform="translate(23.043 81.212)" fill="#ccc" font-size="3" font-family="ArialMT, Arial"><tspan x="-5.005" y="0">150</tspan></text><text transform="translate(23.043 66.623)" fill="#ccc" font-size="3" font-family="ArialMT, Arial"><tspan x="-5.005" y="0">200</tspan></text><text transform="translate(23.043 51.791)" fill="#ccc" font-size="3" font-family="ArialMT, Arial"><tspan x="-5.005" y="0">250</tspan></text><text transform="translate(23.043 36.959)" fill="#ccc" font-size="3" font-family="ArialMT, Arial"><tspan x="-5.005" y="0">300</tspan></text><text transform="translate(23.043 22.127)" fill="#ccc" font-size="3" font-family="ArialMT, Arial"><tspan x="-5.005" y="0">350</tspan></text></g></g></svg>