
<svg xmlns="http://www.w3.org/2000/svg" viewBox="0 0 578.568 343.298">
  <g id="bg1-right-side" transform="translate(0)" opacity="0.25">
    <g id="List" transform="translate(413.891 178.874)" opacity="0.5">
      <path id="Fill_253" data-name="Fill 253" d="M10.494,4.461c0,8.228.42,16.626-1.1,24.755-.459,2.461-.821,7.175-3.418,8.452A3.959,3.959,0,0,1,.2,34.836c-.756-3.11.9-7.765,1.07-11.03.231-4.461.246-8.927.248-13.393C1.516,7.188.455,2,4.262.34a4.582,4.582,0,0,1,6.233,4.121" transform="translate(150.61 8.608)" fill="#3498db" opacity="0.5"/>
      <path id="Fill_255" data-name="Fill 255" d="M128.284,46.682c-27.26-2.736-54.912-3.305-82.27-4.732-12.646-.659-27.93.182-39.844-4.713-2.211-.909-10.136-5.969-3.7-8.029,2.005-.643,4.042,1.518,5.688,2.241,2.742,1.2,5.916,1.577,8.84,2.047,24.859,3.992,50.862,3.3,75.976,5.162,6.435.478,12.874.97,19.3,1.6,4.588.451,14.232,3.758,18.466,2.067,7.235-2.89,7.066-21.669,7.209-28.127.074-3.34-3.168-15.329,3.277-14.114,5.158.973,3.29,13.428,2.888,16.835-1.054,8.931-2.854,31.074-15.824,29.76" transform="translate(159.316 46.738) rotate(180)" fill="#3498db" opacity="0.5"/>
      <path id="Fill_257" data-name="Fill 257" d="M2.3.012C25.974,2.15,50.2.052,73.972.893c12.462.442,24.912,1.144,37.376,1.555,5.39.179,10.786.186,16.179.224,2.58.017,14.319,1.581,7.056,6.7-3.215,2.264-13.462.44-17.152.4-5.541-.065-11.08-.3-16.618-.512-12.827-.5-25.646-1.2-38.48-1.544C50.058,7.375,37.776,7.3,25.5,6.972A155.106,155.106,0,0,1,7.146,5.727c-1.366-.2-5.8-.361-6.752-1.885C-.5,2.4.128-.2,2.3.012" transform="translate(18.684 46.207)" fill="#3498db" opacity="0.5"/>
      <path id="Fill_259" data-name="Fill 259" d="M13.492,0h0A13.177,13.177,0,0,0,4.03,3.778a13.724,13.724,0,0,0-3.981,8.44,11.713,11.713,0,0,0,2.3,8.206,14.267,14.267,0,0,0,9.087,5.024,3.353,3.353,0,0,0,.594.055,4.158,4.158,0,0,0,1.9-.562,4.624,4.624,0,0,1,1.535-.534,4.36,4.36,0,0,1,.483-.026,9.915,9.915,0,0,1,1.428.139,9.85,9.85,0,0,0,1.438.139,4.075,4.075,0,0,0,1.158-.157,8.64,8.64,0,0,0,4.063-2.8,14.112,14.112,0,0,0,2.46-4.318,13.176,13.176,0,0,0,.734-5.614,12.707,12.707,0,0,0-5.144-9.129A13.153,13.153,0,0,0,16.916.361,17,17,0,0,0,13.492,0Zm3.8,16.929h0c-3.088-.017-8.582-.673-9.589-3.022-.451-1.052.034-2.342,1.441-3.836a6.1,6.1,0,0,1,4.448-2.044,5.651,5.651,0,0,1,5.147,3.283c.775,1.845.247,3.893-1.447,5.62Z" transform="translate(144.873 42.165) rotate(180)" fill="#3498db" opacity="0.5"/>
      <path id="Fill_261" data-name="Fill 261" d="M13.3.173C24.78.21,36.26.7,47.735.915,51.255.981,60.3-.594,60.316,4.955c.016,5.929-10.062,3.739-13.416,3.66C35.518,8.343,24.106,7.844,12.768,6.76,9.9,6.486-.01,6.959,0,3.064.011-1.062,10.99.173,13.3.173" transform="translate(47.294 23.684)" fill="#3498db" opacity="0.5"/>
      <path id="Fill_263" data-name="Fill 263" d="M12.9.028C41.281.79,69.624,1.055,97.988,2.508c10.609.543,21.2.947,31.828.947,2.046,0,6.166-.792,8.092.5,5.227,3.5-.725,6.5-4.131,6.684-23.3,1.293-46.938-1.925-70.225-2.652C49.919,7.559,36.283,7.433,22.658,6.74c-3.717-.189-7.435-.409-11.146-.7-2.134-.165-7.778.288-9.5-.96C-5.521-.369,10.356-.04,12.9.028" transform="translate(20.289 62.529)" fill="#3498db"/>
      <path id="Fill_265" data-name="Fill 265" d="M10.592,4.922a130.4,130.4,0,0,1-.668,21.91c-.379,2.88-.553,6.148-3.929,6.88-3.066.664-4.62-1.655-5.256-4.226C-.81,23.208.554,14.171.572,7.649.58,4.425.583.816,4.568.086a5.074,5.074,0,0,1,6.024,4.835" transform="translate(152.831 71.515)" fill="#3498db"/>
      <path id="Fill_267" data-name="Fill 267" d="M3.1.011Q72.02,3.643,140.918,6.49c3.586.152,31.445-.152,21.705,9.563-3.008,3-10.759.968-14.649.778-5.846-.287-11.7-.507-17.541-.8-23.179-1.18-46.418-1.5-69.58-2.822Q41.734,12.111,22.71,9.851c-6.031-.706-13.518-.633-19.166-3C.638,5.638-2.5-.286,3.1.011" transform="translate(0 94.168)" fill="#3498db"/>
      <path id="Fill_269" data-name="Fill 269" d="M13.366,1.963c3.495,3.48,1.7,10.346,1.434,14.648-.362,5.92-.8,11.843-1.541,17.73-.481,3.824-.227,9.776-2.267,13.079a5.646,5.646,0,0,1-9.809-.3C-.728,43.818.239,36.863.288,33.2c.068-5.065.384-10.138.684-15.193.251-4.225-.706-11,1.618-14.611A6.944,6.944,0,0,1,13.366,1.963" transform="translate(16.15 54.883)" fill="#3498db"/>
      <path id="Fill_271" data-name="Fill 271" d="M12.6,0h0a14.921,14.921,0,0,0-2.286.17A12.858,12.858,0,0,0,1.076,6.605,9.278,9.278,0,0,0,0,10.661a9.381,9.381,0,0,0,1.015,4.43C2.11,17.3,4.111,18.83,7.134,19.757a38.1,38.1,0,0,0,8.111,1.224l.694.054c.262.021.53.032.795.032a11.022,11.022,0,0,0,7.9-3.488,9.42,9.42,0,0,0,2.618-7.112,10.1,10.1,0,0,0-5.118-7.795A18.393,18.393,0,0,0,12.6,0ZM9.014,12.605a.86.86,0,0,1-.563-.236c-.469-.4-1.1-1.311-.051-2.954A4.6,4.6,0,0,1,12.458,7.3a8.831,8.831,0,0,1,4.614,1.451,4.613,4.613,0,0,1,2.347,2.892c.071.717-.292,1.662-2.429,2.092l-.129,0a21.034,21.034,0,0,1-6.118-1.592.746.746,0,0,0-.3-.062,1.533,1.533,0,0,0-.718.26A1.522,1.522,0,0,1,9.014,12.605Z" transform="translate(143.372 96.567) rotate(180)" fill="#3498db"/>
      <path id="Fill_273" data-name="Fill 273" d="M48.15.4c5.382.087,15.962-1.5,20.651,1.119,4.64,2.6,2.571,7.218-1.662,8.324-2.8.731-7.371-.449-10.284-.567-3.832-.156-7.667-.189-11.5-.242C38.906,8.946,32.46,9.02,26.011,9.02c-6.587,0-13.286.18-19.861-.3-8.319-.612-8.1-6.842.04-7.621C20.013-.228,34.284.181,48.15.4" transform="translate(35.875 78.834)" fill="#3498db"/>
      <path id="Fill_275" data-name="Fill 275" d="M2.607,1.316c0,2.96-2.626,0-2.607,0-.019,0,2.607-2.96,2.607,0" transform="translate(95.167 147.686)" fill="#3498db"/>
      <path id="Fill_277" data-name="Fill 277" d="M9.107,4.136c-.169,8.6-.28,17.214-.648,25.811-.117,2.718.662,8.026-2.633,9.412C2.159,40.9,1.019,37.056.6,34.451-.741,26.2.57,16.773.7,8.421.742,5.617.135,1.713,3.32.315A4.247,4.247,0,0,1,9.107,4.136" transform="translate(148.069 121.04)" fill="#3498db" opacity="0.65"/>
      <path id="Fill_279" data-name="Fill 279" d="M147.728,0h0c-1.241,0-2.386.818-3.311,2.365-1.242,2.079-.705,5.732-.186,9.264a27.578,27.578,0,0,1,.48,5.611c-.03.357-.054.709-.078,1.049-.172,2.484-.32,4.63-2.421,5.551a7.592,7.592,0,0,1-2.985.464c-1.23,0-2.539-.132-3.8-.26-1.049-.106-2.04-.206-2.829-.209-6.59-.03-13.291-.048-19.772-.065h-.013c-19.705-.052-40.082-.107-60.114-.51-11.857-.238-20.935-.544-29.433-.991A80.882,80.882,0,0,1,9.8,20.721a28.513,28.513,0,0,0-5.54-.642c-2.295,0-3.68.458-4.116,1.362-.4.834.022,2.05,1.262,3.613C3.6,27.815,11.172,28.35,15.7,28.67c.833.059,1.55.11,2.146.166,4.882.462,9.893.672,14.74.874H32.6l2.186.092c11.8.5,23.8.687,35.412.864l.132,0,4.077.063c7.062.109,14.314.163,22.17.163,5.827,0,11.866-.029,18.462-.09,7.739-.072,15.542-.434,23.854-1.106,3.369-.272,5.8-.469,7.661-1.5,1.874-1.041,3.1-2.945,4.116-6.366,1.449-4.9,2.99-11.2,2.032-16.471a7.834,7.834,0,0,0-1.789-3.633A4.415,4.415,0,0,0,147.728,0Z" transform="translate(159.299 149.003) rotate(180)" fill="#3498db" opacity="0.65"/>
      <path id="Fill_281" data-name="Fill 281" d="M24.247,2.484C52.893,5.81,82.354,3.85,111.153,3.968c7,.029,14.012.085,21.009.424,3.7.179,12.455-.84,14.987,2.01,5.336,6.01-4.277,6.884-7.786,6.635-7.1-.5-14.208-.735-21.322-.79-25.057-.193-50.255.976-75.292-.261C32.26,11.469,22,9.675,11.71,7.67,9.429,7.226-6.184,4.258,2.719.7c5.262-2.1,16,1.138,21.528,1.783" transform="translate(8.407 151.349)" fill="#3498db" opacity="0.65"/>
      <path id="Fill_284" data-name="Fill 284" d="M12.96,0h0A16.177,16.177,0,0,0,7.14,1.06,11.937,11.937,0,0,0,2.423,4.278C-2.4,9.777.841,15.362,4.645,20.1a3.968,3.968,0,0,0,3.314,1.35,17.954,17.954,0,0,0,3.912-.61c.692-.161,1.345-.313,1.893-.386.4-.053.782-.1,1.149-.144,3-.366,4.814-.586,7.051-3.232A11.658,11.658,0,0,0,24.8,7.872a8.245,8.245,0,0,0-4.05-5.848A15.334,15.334,0,0,0,12.96,0Zm.958,12.75c-1.519,0-2.619-.3-3.1-.851a.874.874,0,0,1-.231-.7c.105-.755,1.279-1.558,3.248-1.558a8.943,8.943,0,0,1,2.326.33,6.621,6.621,0,0,1-1.393,2.754C14.479,12.741,14.191,12.75,13.919,12.75Z" transform="translate(133.132 153.162) rotate(180)" fill="#3498db" opacity="0.65"/>
      <path id="Fill_286" data-name="Fill 286" d="M59.591,4.134c0,6.37-27.5,3.628-32.4,3.621-4.1-.006-28.882,2.255-27.1-4.3C1.553-1.931,25.965.747,31.164.739c4.494-.006,28.427-3.092,28.427,3.4" transform="translate(29.189 137.781)" fill="#3498db" opacity="0.65"/>
    </g>
    <path id="Fill_149" data-name="Fill 149" d="M245.257,44.521c-37.01-16.772-87.976-15.536-139.32-17C78.81,26.74,51.38,25.147,29.55,18.062,19.4,14.766,10.643,10.638,4.761,5.934,2.189,3.877-7.319-2.073,11,.743a38.736,38.736,0,0,1,14.4,5.25c8,4.421,18.242,8.071,30.525,10.443,23.695,4.576,53.771,6.139,79.462,6.72,26.855.607,53.9-.466,78.583,4.249a192.048,192.048,0,0,1,31.853,8.549c3.339,1.275,10.5,3.439,11.034,5.388.61,2.227-4.692,6.3-11.6,3.18" transform="matrix(-0.966, -0.259, 0.259, -0.966, 425.537, 253.941)" fill="#3498db" opacity="0.25"/>
    <g id="Whiteboard_Stuff" data-name="Whiteboard Stuff" transform="translate(0 0)" opacity="0.5">
      <path id="Wireframy_Stuff" data-name="Wireframy Stuff" d="M3.787.818C.6,2.261.673,3.863,1.975,5.1c-.789,1.734-.659,4.574-.829,5.936A140.545,140.545,0,0,0,0,28.149c-.02,11.282,0,23,3.123,33.921a2.772,2.772,0,0,0-2,2.517c.013,5.715,17.356,5.574,26.257,5.432,1.858-.03,3.348-.06,4.236-.037,6.314.164,12.631.186,18.947.153,1.38-.007,2.922.087,4.517.18,3.228.189,6.676.379,9.457-.267,8.093-1.879,7.581-15.752,7.746-22.46A352.129,352.129,0,0,0,71.433,10.9C71.1,6.755,68.08,1.5,64.641,7.214c-1.918,3.186-1.064,10.628-1.067,14.148-.009,12.513,1.952,25.405.076,37.854-.614,4.081-.479,4.357-4.631,4.271-3.293-.069-6.587-.179-9.88-.246-6.707-.141-13.417-.233-20.121-.479-2.546-.094-11.7-1.693-18.831-1.686,0-.057.01-.115.012-.172.1-4.825-2.268-10.681-2.589-15.756-.775-12.208.149-24.7-.994-36.847-.035-.369-.054-.761-.075-1.156.215.033.424.056.625.069,5.318.338,10.707.2,16.035.322,3.4.078,6.837.076,10.292.072A194.477,194.477,0,0,1,56.3,8.468c2.2.286,2.976-2.543,1.986-4.009-1.11-1.646-4.662-1.562-6.307-1.8A142.227,142.227,0,0,0,37.43,1.477c-5.1-.226-10.21-.4-15.315-.537C19.151.857,13.767,0,9.306,0A14.249,14.249,0,0,0,3.787.818Z" transform="translate(236.838 70.495) rotate(180)" fill="#3498db"/>
      <path id="Wireframy_Stuff-2" data-name="Wireframy Stuff" d="M4.383,3.832a2.138,2.138,0,0,0,.461,1.341A9.018,9.018,0,0,0,2.788,8.814C1.067,14.383.9,20.394.776,26.168.5,38.513.639,50.878.565,63.226c-1.119,1.5-.454,3.223.943,4.423,3.774,3.241,14.65,2.418,19.441,2.672,6.9.364,13.8.449,20.7.473,7.311.038,14.632-.094,21.939-.319,2.711-.082,21.561-.557,13.136-5.126a8.8,8.8,0,0,0-1.619-.662,26.69,26.69,0,0,0,.337-5.253c-.357-6.571-.511-13.156-.8-19.73-.326-7.339-.635-14.678-.888-22.02C73.616,13.8,74.945,4.777,71.873,1.976,69.8.087,68.388.466,67.435,1.748,62.156.216,51.92.493,45.424.771,42.875.879,40.9.989,40.032.988,37.118.986,27.409,0,18.857,0,11.164,0,4.407.8,4.383,3.832ZM9.03,45.922C9.015,33.427,9.476,21,9.755,8.574q.014-.611-.027-1.136c5.971,1.275,15.616,1.036,21.865.8,2.529-.1,4.5-.193,5.45-.19,6.128.023,12.258-.061,18.381-.306.694-.027,1.754,0,3,.035a56.63,56.63,0,0,0,7.266-.152c-.033.333-.055.638-.069.9-.334,6.609.03,13.287.244,19.9.214,6.661.543,13.317.8,19.977.133,3.426-.733,10.577.205,15.506-4.451.085-9.119.623-12.122.623-7.049,0-14.092.081-21.139-.059a204.649,204.649,0,0,1-22.862-1.244c-.414-.055-.912-.162-1.463-.291C10.431,58.12,9.034,50.38,9.03,45.922Z" transform="translate(139.08 72.053) rotate(180)" fill="#3498db"/>
      <path id="Fill_135" data-name="Fill 135" d="M53.267.7c4.532,2.647,2.088,13.237.518,16.9C51.2,23.623,45.967,28.335,40.316,31.461,28.895,37.779,12.431,36.1,3.794,47.055,3.7,47.168.719,50.124.039,46.3c-.558-3.142,5.016-7.939,7.176-9.514,6.142-4.478,14.02-5.922,21.124-8.158,7.577-2.386,15.891-6.783,19.068-14.594C48.531,11.263,46.387-3.337,53.267.7" transform="translate(151.732 68.592)" fill="#3498db" opacity="0.5"/>
      <path id="Fill_137" data-name="Fill 137" d="M5.169.146C9.322,1.291,6.575,7,6.582,9.866A16.946,16.946,0,0,0,9.931,20.02c5.579,7.224,16.5,8.307,24.692,10.378C40.57,31.9,54.8,35.129,55.355,43.171c.622,8.981-11.939-1.948-13-2.4-11.74-4.307-26.929-5.138-35.991-14.618a23.3,23.3,0,0,1-6.3-14.526C-.137,8.6-.17-1.313,5.169.146" transform="translate(96.233 74.239)" fill="#3498db" opacity="0.5"/>
      <path id="Fill_147" data-name="Fill 147" d="M7.37,3.04c-.263,9.069-.136,18.133-1.856,27.076-.327,1.7-.554,7.859-1.9,9.121-3.3,3.1-3.356-2.845-3.485-5.125-.458-8.166.4-16.586.588-24.768C.762,7.583.3,3.935,1.127,2.23,2.446-.477,7.5-1.28,7.37,3.04" transform="translate(156.654 180.808)" fill="#3498db" opacity="0.5"/>
      <path id="Fill_149-2" data-name="Fill 149" d="M4.166,1.006C17.4,15.859,35.623,14.765,53.983,16.066c9.7.687,19.508,2.1,27.314,8.373A33.155,33.155,0,0,1,90.161,35.18c.919,1.822,5.281,12.331-1.269,9.838-2.323-.884-4.61-7.834-6.112-9.89a29.189,29.189,0,0,0-10.915-9.249c-8.472-4.053-18.589-3.984-27.775-4.5-9.6-.537-19.91-1.04-28.737-5.215A43.515,43.515,0,0,1,3.963,8.593C2.769,7.465.208,5.548.017,3.822-.2,1.85,1.695-1.761,4.166,1.006" transform="translate(166.315 175.488)" fill="#3498db" opacity="0.5"/>
      <path id="Fill_151" data-name="Fill 151" d="M20.094.914c12.431.415,24.847.918,37.26,1.7,2.544.161,11.026-.353,8.865,4.86-1.731,4.178-12.075,1.414-15.5,1.212C37.787,7.923,24.8,7.656,11.89,6.492,8.991,6.231-4.116,6.335,1.3,1.2c2.575-2.446,15.241-.4,18.8-.282" transform="translate(217.194 221.169)" fill="#3498db"/>
      <path id="Fill_153" data-name="Fill 153" d="M71.754,1.186c3.919,5.146,2.118,17.654,1.822,23.841-.287,6,.878,16.957-6.948,17.887,2.485-.326-1.886.151-2.6.189-1.589.085-3.185.113-4.776.13-3.675.04-7.353-.009-11.028-.082-8.325-.166-16.671-.408-24.985-.869-3.495-.194-22.454-.032-23.2-3.663-.959-4.639,17.219-2.015,20.473-1.867,7.925.364,15.862.44,23.794.544,3.931.052,7.867.091,11.8.013,1.623-.032,8.052.635,9.039-.448.841-.922.185-9.4.2-10.695.058-4.227.053-8.464-.1-12.688-.1-2.844-1.639-8.256-.386-10.928a4.328,4.328,0,0,1,6.894-1.364" transform="translate(219.553 226.894)" fill="#3498db"/>
      <path id="Fill_155" data-name="Fill 155" d="M13.631,4.914c-.227,9.415-.3,19.02-2.521,28.227-.74,3.064-1.777,9.383-4.855,10.969C3.023,45.776.234,43.4.023,40.2c-.266-4.025,1.889-9.309,2.331-13.438.516-4.818.817-9.641.993-14.483.134-3.641-.973-9.1,2.5-11.449,3.118-2.109,7.887.015,7.785,4.087" transform="translate(213.667 223.406)" fill="#3498db"/>
      <path id="Fill_157" data-name="Fill 157" d="M2.459,35.8C-1.408,31.952.32,19.759.8,14.811,1.158,11.186,5.125-6.643,11.069,2.654c2.629,4.113-.711,14.987-.688,19.783.015,3.054,1.1,6.916.575,9.851-.69,3.878-4.99,7.018-8.5,3.516" transform="translate(205.017 261.825) rotate(180)" fill="#3498db"/>
      <path id="Wireframy_Stuff-3" data-name="Wireframy Stuff" d="M5.486.038C2.525.161-.639,1.13.112,4.959.777,8.355,4.2,8.382,6.981,8.665A239.61,239.61,0,0,0,32.208,9.792c17.723-.061,35.431.031,53.154.124a3.838,3.838,0,0,0,1.977-.761c-.925,1.125-.48,2.79-.652,4.415-.466,4.384-.767,8.694-1.6,13.077-.665,3.507-1.166,9.462-4.414,11.669-2.766,1.877-8.161,1.806-12.41,1.736-1.2-.02-2.313-.039-3.246-.016a294.946,294.946,0,0,1-34.187-1.545c-5.171-.471-10.405-.828-15.519-1.757-2.847-.518-11.2-4.7-13.473-2.126-5.476,6.193,18.585,8.735,21.851,9.073,11.612,1.2,23.239,2.1,34.916,2.208,7.885.061,21.379.734,27.177-5.735,3.482-3.885,4.7-10.285,6.063-15.131,1.043-3.723,3.873-10.437,1.862-14.281C92.8,9,91.336,7.517,89.112,8.133a4.18,4.18,0,0,0-1.244.544,3.227,3.227,0,0,0,.675-3.518c-1.329-3.085-6.221-2.419-8.877-2.641C70.8,1.779,61.892,1.286,52.994,1.208c-4.234-.037-8.467,0-12.7.033-4.363.037-8.727.072-13.089.029C20.692,1.206,13.935,0,7.429,0Q6.454,0,5.486.038Z" transform="translate(199.481 266.523) rotate(180)" fill="#3498db"/>
      <path id="Line" d="M86.721,0h0c-2.144,0-4.351,3.646-5.812,6.059A21.221,21.221,0,0,1,79.67,7.975c-3.123,3.9-5.9,5.954-9.918,7.322-7.549,2.574-15.884,3.548-23.944,4.489-2.745.32-5.582.652-8.3,1.039-1.4.2-2.833.381-4.347.572-7.287.922-15.547,1.967-21.774,5.49C8.658,28.431.044,36.324,0,41.591A3.817,3.817,0,0,0,2.06,45.079a4.313,4.313,0,0,0,2.139.677c2.083,0,3.242-2.267,4.264-4.267.327-.639.635-1.242.957-1.742A17.015,17.015,0,0,1,19.86,32.2a157.1,157.1,0,0,1,20.206-3.971c1.741-.264,3.54-.536,5.3-.818,1.441-.231,2.938-.457,4.386-.675,7.982-1.2,16.236-2.448,23.449-5.634,1.5-.662,5.372-3.7,9.013-7.445,2.495-2.568,6.708-7.374,6.893-10.71A2.7,2.7,0,0,0,87.716.278,1.963,1.963,0,0,0,86.721,0Z" transform="translate(132.887 215.459) rotate(180)" fill="#3498db" opacity="0.5"/>
      <path id="Wireframy_Stuff-4" data-name="Wireframy Stuff" d="M9.606.537C6.575.83,3.319,1.9,4.07,5.721,1.961,9.765.991,17.532.8,19.067A141.692,141.692,0,0,0,.043,38.86,4.336,4.336,0,0,0,7,42.2c3.622,1.517,9.75,1.745,13.043,2.077,5.411.546,10.868.75,16.3,1.075,12.669.758,25.325,2.123,38.02,2.4,3.8.08,8.885.423,11.923-2.381C89.736,42.187,90.424,34.267,91.461,30c1.125-4.633,2.47-9.349,2.941-14.1a26.845,26.845,0,0,0,.274-4.747,2.972,2.972,0,0,0,2.366-3.423c-.3-3.109-4.6-3.533-7.123-4.024C81.54,2.067,72.583,2.44,64.088,2.2,50.313,1.811,35.8,0,21.723,0,17.638,0,13.588.153,9.606.537Zm1.768,8.842c.39,0,.773,0,1.141,0q13.409.235,26.8.771c9.11.349,18.219.739,27.336.844,3.175.037,6.393-.063,9.62-.163,4.136-.127,8.287-.255,12.387-.1-1.569,4.107-1.331,10.574-2.168,14.827-.831,4.224-1.146,9.232-2.844,13.2-1.912,4.463-3.573,3.43-8.551,3.092-5.117-.347-10.229-.836-15.341-1.256-11.239-.925-22.486-1.51-33.733-2.293C20.19,37.9,14.609,36.234,8.9,35.58,8.817,33.544,8.53,31.489,8.562,30c.1-4.383.528-8.735.909-13.1.154-1.775.887-4.839,1-7.525h.906Z" transform="translate(97.059 265.66) rotate(180)" fill="#3498db"/>
      <g id="Checkmark_" data-name="Checkmark!" transform="translate(111.392 114.127)" opacity="0.5">
        <path id="Fill_292" data-name="Fill 292" d="M40.578,0h0a29.859,29.859,0,0,0-8.438,1.241,34.972,34.972,0,0,0-8.3,3.72A41.14,41.14,0,0,0,9.41,20,34.99,34.99,0,0,0,4.928,40.239a4.814,4.814,0,0,0-2.471-.9A2.038,2.038,0,0,0,.624,40.434c-.994,1.673-.706,4.917.205,6.59a50.027,50.027,0,0,0,5.41,7.461c.35.426.712.866,1.057,1.292a30.125,30.125,0,0,0,10.285,8.464,29.9,29.9,0,0,0,13.132,2.8l.531,0a55.293,55.293,0,0,0,21.02-4.1,38.609,38.609,0,0,0,9.25-5.434A27.934,27.934,0,0,0,71.9,39.448a33.9,33.9,0,0,0-.13-10.735A36.042,36.042,0,0,0,62.283,9.682,32.874,32.874,0,0,0,52,2.418,28.188,28.188,0,0,0,40.578,0ZM30.915,58.77a20.943,20.943,0,0,1-7.823-1.3,13.984,13.984,0,0,1-6.351-5.032,25.4,25.4,0,0,1-3.952-8.774,26.564,26.564,0,0,1-.518-9.619,29.128,29.128,0,0,1,3.072-9.322A38.363,38.363,0,0,1,21.488,16.1a33.309,33.309,0,0,1,8.287-6.465,22.592,22.592,0,0,1,9.5-2.842c.388-.022.781-.032,1.168-.032,6.53,0,12.771,3.057,17.573,8.608a30.354,30.354,0,0,1,5.236,8.685A27.636,27.636,0,0,1,65.2,33.816a20.479,20.479,0,0,1-8.78,17.518c-4.684,3.431-11.324,5.849-19.2,6.993A52.783,52.783,0,0,1,30.915,58.77Z" transform="translate(72.264 71.819) rotate(180)" fill="#3498db"/>
        <path id="Fill_294" data-name="Fill 294" d="M45.023.969A88.61,88.61,0,0,0,27.984,18.043c-4.728,6.1-7.854,13.723-13.533,19.044C11.583,33.963,8.222,25.525,2.5,28.873-2.247,31.65.81,36.427,3.123,39.564c5.971,8.1,12.6,11.358,20.26,3.356,6.955-7.267,10.9-16.961,17.408-24.646,2.853-3.372,7.259-6.719,9.531-10.442,2.059-3.375-.488-10.4-5.3-6.864" transform="translate(21.661 0)" fill="#3498db"/>
      </g>
    </g>
  </g>
</svg>
