
<svg xmlns="http://www.w3.org/2000/svg" viewBox="0 0 578.568 343.298">
  <g id="bg1-left-side" transform="translate(-93.8 -148.302)" opacity="0.25">
    <g id="List" transform="translate(93.8 327.176)" opacity="0.5">
      <path id="Fill_253" data-name="Fill 253" d="M.055,4.461c0,8.228-.42,16.626,1.1,24.755.459,2.461.821,7.175,3.418,8.452a3.959,3.959,0,0,0,5.784-2.832c.756-3.11-.9-7.765-1.07-11.03-.231-4.461-.246-8.927-.248-13.393C9.034,7.188,10.1,2,6.288.34A4.582,4.582,0,0,0,.055,4.461" transform="translate(3.518 8.608)" fill="#3498db" opacity="0.5"/>
      <path id="Fill_255" data-name="Fill 255" d="M128.284.056c-27.26,2.736-54.912,3.305-82.27,4.732C33.368,5.447,18.085,4.606,6.17,9.5c-2.211.909-10.136,5.969-3.7,8.029,2.005.643,4.042-1.518,5.688-2.241,2.742-1.2,5.916-1.577,8.84-2.047C41.856,9.25,67.858,9.945,92.973,8.08c6.435-.478,12.874-.97,19.3-1.6,4.588-.451,14.232-3.758,18.466-2.067,7.235,2.89,7.066,21.669,7.209,28.127.074,3.34-3.168,15.329,3.277,14.114,5.158-.973,3.29-13.428,2.888-16.835-1.054-8.931-2.854-31.074-15.824-29.76" transform="translate(5.361 0)" fill="#3498db" opacity="0.5"/>
      <path id="Fill_257" data-name="Fill 257" d="M134.626.012c-23.678,2.138-47.9.04-71.677.881-12.462.442-24.912,1.144-37.376,1.555-5.39.179-10.786.186-16.179.224-2.58.017-14.319,1.581-7.056,6.7,3.215,2.264,13.462.44,17.152.4,5.541-.065,11.08-.3,16.618-.512,12.827-.5,25.646-1.2,38.48-1.544,12.276-.332,24.559-.4,36.834-.736a155.106,155.106,0,0,0,18.354-1.245c1.366-.2,5.8-.361,6.752-1.885.9-1.44.267-4.039-1.9-3.83" transform="translate(9.071 46.207)" fill="#3498db" opacity="0.5"/>
      <path id="Fill_259" data-name="Fill 259" d="M13.492,25.5h0A13.177,13.177,0,0,1,4.03,21.725a13.724,13.724,0,0,1-3.981-8.44,11.713,11.713,0,0,1,2.3-8.206A14.267,14.267,0,0,1,11.435.055,3.353,3.353,0,0,1,12.028,0a4.158,4.158,0,0,1,1.9.562,4.624,4.624,0,0,0,1.535.534,4.36,4.36,0,0,0,.483.026A9.915,9.915,0,0,0,17.379.983,9.85,9.85,0,0,1,18.817.843,4.075,4.075,0,0,1,19.975,1a8.64,8.64,0,0,1,4.063,2.8A14.112,14.112,0,0,1,26.5,8.12a13.176,13.176,0,0,1,.734,5.614,12.707,12.707,0,0,1-5.144,9.129,13.153,13.153,0,0,1-5.172,2.279A17,17,0,0,1,13.492,25.5Zm3.8-16.929h0c-3.088.017-8.582.673-9.589,3.022-.451,1.052.034,2.342,1.441,3.836a6.1,6.1,0,0,0,4.448,2.044A5.651,5.651,0,0,0,18.741,14.2c.775-1.845.247-3.893-1.447-5.62Z" transform="translate(19.805 16.662)" fill="#3498db" opacity="0.5"/>
      <path id="Fill_261" data-name="Fill 261" d="M47.014.173C35.536.21,24.056.7,12.581.915,9.061.981.014-.594,0,4.955c-.016,5.929,10.062,3.739,13.416,3.66C24.8,8.343,36.211,7.844,47.548,6.76c2.863-.274,12.778.2,12.768-3.7C60.305-1.062,49.326.173,47.014.173" transform="translate(57.067 23.684)" fill="#3498db" opacity="0.5"/>
      <path id="Fill_263" data-name="Fill 263" d="M127.076.028C98.689.79,70.346,1.055,41.983,2.508c-10.609.543-21.2.947-31.828.947-2.046,0-6.166-.792-8.092.5-5.227,3.5.725,6.5,4.131,6.684,23.3,1.293,46.938-1.925,70.225-2.652,13.633-.425,27.269-.551,40.894-1.244,3.717-.189,7.435-.409,11.146-.7,2.134-.165,7.778.288,9.5-.96C145.492-.369,129.615-.04,127.076.028" transform="translate(4.418 62.529)" fill="#3498db"/>
      <path id="Fill_265" data-name="Fill 265" d="M.16,4.922a130.4,130.4,0,0,0,.668,21.91c.379,2.88.553,6.148,3.929,6.88,3.066.664,4.62-1.655,5.256-4.226,1.55-6.278.186-15.315.168-21.837-.008-3.224-.011-6.834-4-7.563A5.074,5.074,0,0,0,.16,4.922" transform="translate(1.094 71.515)" fill="#3498db"/>
      <path id="Fill_267" data-name="Fill 267" d="M161.582.011Q92.657,3.643,23.76,6.49c-3.586.152-31.445-.152-21.705,9.563,3.008,3,10.759.968,14.649.778,5.846-.287,11.7-.507,17.541-.8,23.179-1.18,46.418-1.5,69.58-2.822q19.119-1.093,38.143-3.353c6.031-.706,13.518-.633,19.166-3,2.906-1.216,6.042-7.141.448-6.844" transform="translate(0 94.168)" fill="#3498db"/>
      <path id="Fill_269" data-name="Fill 269" d="M2.13,1.963C-1.365,5.443.432,12.309.7,16.61c.362,5.92.8,11.843,1.541,17.73.481,3.824.227,9.776,2.267,13.079a5.646,5.646,0,0,0,9.809-.3c1.911-3.305.944-10.26.894-13.923-.068-5.065-.384-10.138-.684-15.193-.251-4.225.706-11-1.618-14.611A6.944,6.944,0,0,0,2.13,1.963" transform="translate(133.032 54.883)" fill="#3498db"/>
      <path id="Fill_271" data-name="Fill 271" d="M12.6,21.067h0a14.921,14.921,0,0,1-2.286-.17,12.858,12.858,0,0,1-9.237-6.436A9.278,9.278,0,0,1,0,10.406a9.381,9.381,0,0,1,1.015-4.43C2.11,3.763,4.111,2.237,7.134,1.31A38.1,38.1,0,0,1,15.245.086l.694-.054C16.2.011,16.469,0,16.734,0a11.022,11.022,0,0,1,7.9,3.488A9.42,9.42,0,0,1,27.251,10.6a10.1,10.1,0,0,1-5.118,7.795A18.393,18.393,0,0,1,12.6,21.067ZM9.014,8.462a.86.86,0,0,0-.563.236c-.469.4-1.1,1.311-.051,2.954a4.6,4.6,0,0,0,4.057,2.115,8.831,8.831,0,0,0,4.614-1.451,4.613,4.613,0,0,0,2.347-2.892c.071-.717-.292-1.662-2.429-2.092l-.129,0a21.034,21.034,0,0,0-6.118,1.592.746.746,0,0,1-.3.062,1.533,1.533,0,0,1-.718-.26A1.522,1.522,0,0,0,9.014,8.462Z" transform="translate(21.305 75.5)" fill="#3498db"/>
      <path id="Fill_273" data-name="Fill 273" d="M23.289.4C17.907.486,7.328-1.105,2.639,1.518-2,4.114.068,8.737,4.3,9.843c2.8.731,7.371-.449,10.284-.567,3.832-.156,7.667-.189,11.5-.242,6.448-.087,12.894-.013,19.343-.013,6.587,0,13.286.18,19.861-.3,8.319-.612,8.1-6.842-.04-7.621C51.427-.228,37.155.181,23.289.4" transform="translate(57.362 78.834)" fill="#3498db"/>
      <path id="Fill_275" data-name="Fill 275" d="M0,1.316c0,2.96,2.626,0,2.607,0,.019,0-2.607-2.96-2.607,0" transform="translate(66.903 147.686)" fill="#3498db"/>
      <path id="Fill_277" data-name="Fill 277" d="M0,4.136c.169,8.6.28,17.214.648,25.811.117,2.718-.662,8.026,2.633,9.412,3.667,1.542,4.807-2.3,5.23-4.908,1.338-8.254.026-17.678-.1-26.03-.043-2.8.564-6.708-2.621-8.106A4.247,4.247,0,0,0,0,4.136" transform="translate(7.5 121.04)" fill="#3498db" opacity="0.65"/>
      <path id="Fill_279" data-name="Fill 279" d="M147.728,30.895h0c-1.241,0-2.386-.818-3.311-2.365-1.242-2.079-.705-5.732-.186-9.264a27.578,27.578,0,0,0,.48-5.611c-.03-.357-.054-.709-.078-1.049-.172-2.484-.32-4.63-2.421-5.551a7.592,7.592,0,0,0-2.985-.464c-1.23,0-2.539.132-3.8.26-1.049.106-2.04.206-2.829.209-6.59.03-13.291.048-19.772.065h-.013c-19.705.052-40.082.107-60.114.51-11.857.238-20.935.544-29.433.991A80.882,80.882,0,0,0,9.8,10.174a28.513,28.513,0,0,1-5.54.642c-2.295,0-3.68-.458-4.116-1.362-.4-.834.022-2.05,1.262-3.613C3.6,3.08,11.172,2.545,15.7,2.225c.833-.059,1.55-.11,2.146-.166,4.882-.462,9.893-.672,14.74-.874H32.6l2.186-.092C46.583.587,58.588.4,70.2.227l.132,0L74.407.163C81.469.053,88.721,0,96.577,0c5.827,0,11.866.029,18.462.09,7.739.072,15.542.434,23.854,1.106,3.369.272,5.8.469,7.661,1.5,1.874,1.041,3.1,2.945,4.116,6.366,1.449,4.9,2.99,11.2,2.032,16.471a7.834,7.834,0,0,1-1.789,3.633A4.415,4.415,0,0,1,147.728,30.895Z" transform="translate(5.378 118.108)" fill="#3498db" opacity="0.65"/>
      <path id="Fill_281" data-name="Fill 281" d="M124.48,2.484C95.834,5.81,66.374,3.85,37.575,3.968c-7,.029-14.012.085-21.009.424-3.7.179-12.455-.84-14.987,2.01-5.336,6.01,4.277,6.884,7.786,6.635,7.1-.5,14.208-.735,21.322-.79,25.057-.193,50.255.976,75.292-.261,10.489-.518,20.744-2.312,31.039-4.317,2.281-.445,17.894-3.412,8.991-6.97-5.262-2.1-16,1.138-21.528,1.783" transform="translate(7.542 151.349)" fill="#3498db" opacity="0.65"/>
      <path id="Fill_284" data-name="Fill 284" d="M12.96,21.45h0a16.177,16.177,0,0,1-5.821-1.06,11.937,11.937,0,0,1-4.717-3.217C-2.4,11.673.841,6.088,4.645,1.35A3.968,3.968,0,0,1,7.958,0,17.954,17.954,0,0,1,11.87.61c.692.161,1.345.313,1.893.386.4.053.782.1,1.149.144,3,.366,4.814.586,7.051,3.232A11.658,11.658,0,0,1,24.8,13.578a8.245,8.245,0,0,1-4.05,5.848A15.334,15.334,0,0,1,12.96,21.45ZM13.919,8.7c-1.519,0-2.619.3-3.1.851a.874.874,0,0,0-.231.7c.105.755,1.279,1.558,3.248,1.558a8.943,8.943,0,0,0,2.326-.33,6.621,6.621,0,0,0-1.393-2.754C14.479,8.709,14.191,8.7,13.919,8.7Z" transform="translate(31.545 131.712)" fill="#3498db" opacity="0.65"/>
      <path id="Fill_286" data-name="Fill 286" d="M0,4.134C0,10.5,27.5,7.762,32.4,7.756c4.1-.006,28.882,2.255,27.1-4.3C58.038-1.931,33.626.747,28.427.739,23.934.732,0-2.353,0,4.134" transform="translate(75.898 137.781)" fill="#3498db" opacity="0.65"/>
    </g>
    <path id="Fill_149" data-name="Fill 149" d="M245.257,1.136c-37.01,16.772-87.976,15.536-139.32,17-27.128.776-54.558,2.37-76.387,9.454C19.4,30.891,10.643,35.019,4.761,39.723,2.189,41.78-7.319,47.73,11,44.914a38.736,38.736,0,0,0,14.4-5.25c8-4.421,18.242-8.071,30.525-10.443,23.695-4.576,53.771-6.139,79.462-6.72,26.855-.607,53.9.466,78.583-4.249A192.048,192.048,0,0,0,245.826,9.7c3.339-1.275,10.5-3.439,11.034-5.388.61-2.227-4.692-6.3-11.6-3.18" transform="matrix(0.966, -0.259, 0.259, 0.966, 235.015, 358.141)" fill="#3498db" opacity="0.25"/>
    <g id="Whiteboard_Stuff" data-name="Whiteboard Stuff" transform="translate(378.57 148.302)" opacity="0.5">
      <path id="Wireframy_Stuff" data-name="Wireframy Stuff" d="M3.787,69.677C.6,68.234.673,66.632,1.975,65.391c-.789-1.734-.659-4.574-.829-5.936A140.545,140.545,0,0,1,0,42.346c-.02-11.282,0-23,3.123-33.921a2.772,2.772,0,0,1-2-2.517C1.138.194,18.481.334,27.382.477c1.858.03,3.348.06,4.236.037C37.932.349,44.249.327,50.565.36c1.38.007,2.922-.087,4.517-.18C58.31-.009,61.758-.2,64.539.448c8.093,1.879,7.581,15.752,7.746,22.46A352.129,352.129,0,0,1,71.433,59.6c-.338,4.144-3.353,9.4-6.792,3.685-1.918-3.186-1.064-10.628-1.067-14.148-.009-12.513,1.952-25.405.076-37.854-.614-4.081-.479-4.357-4.631-4.271-3.293.069-6.587.179-9.88.246-6.707.141-13.417.233-20.121.479-2.546.094-11.7,1.693-18.831,1.686,0,.057.01.115.012.172.1,4.825-2.268,10.681-2.589,15.756-.775,12.208.149,24.7-.994,36.847-.035.369-.054.761-.075,1.156.215-.033.424-.056.625-.069,5.318-.338,10.707-.2,16.035-.322,3.4-.078,6.837-.076,10.292-.072A194.477,194.477,0,0,0,56.3,62.027c2.2-.286,2.976,2.543,1.986,4.009-1.11,1.646-4.662,1.562-6.307,1.8A142.227,142.227,0,0,1,37.43,69.018c-5.1.226-10.21.4-15.315.537-2.963.082-8.347.94-12.809.94A14.249,14.249,0,0,1,3.787,69.677Z" transform="translate(56.961 0)" fill="#3498db"/>
      <path id="Wireframy_Stuff-2" data-name="Wireframy Stuff" d="M4.383,66.969a2.138,2.138,0,0,1,.461-1.341,9.018,9.018,0,0,1-2.056-3.641C1.067,56.418.9,50.407.776,44.632.5,32.288.639,19.923.565,7.575c-1.119-1.5-.454-3.223.943-4.423C5.282-.089,16.158.734,20.949.48c6.9-.364,13.8-.449,20.7-.473C48.96-.031,56.281.1,63.588.326,66.3.408,85.148.883,76.724,5.452a8.8,8.8,0,0,1-1.619.662,26.689,26.689,0,0,1,.337,5.253c-.357,6.571-.511,13.156-.8,19.73-.326,7.339-.635,14.678-.888,22.02C73.616,57,74.945,66.024,71.873,68.825c-2.07,1.889-3.484,1.511-4.437.228-5.279,1.533-15.516,1.255-22.011.977-2.549-.108-4.523-.218-5.392-.216-2.914,0-12.623.988-21.174.988C11.164,70.8,4.407,70,4.383,66.969ZM9.03,24.879c-.014,12.495.446,24.92.725,37.348q.014.611-.027,1.136c5.971-1.275,15.616-1.036,21.865-.8,2.529.1,4.5.193,5.45.19,6.128-.023,12.258.061,18.381.306.694.027,1.754,0,3-.035a56.63,56.63,0,0,1,7.266.152c-.033-.333-.055-.638-.069-.9-.334-6.609.03-13.287.244-19.9.214-6.661.543-13.317.8-19.977.133-3.426-.733-10.577.205-15.506-4.451-.085-9.119-.623-12.122-.623-7.049,0-14.092-.081-21.139.059A204.649,204.649,0,0,0,10.743,7.578c-.414.055-.912.162-1.463.291C10.431,12.681,9.034,20.421,9.03,24.879Z" transform="translate(154.719 1.252)" fill="#3498db"/>
      <path id="Fill_135" data-name="Fill 135" d="M2.6.7C-1.931,3.348.513,13.938,2.083,17.6,4.664,23.623,9.9,28.335,15.551,31.461c11.421,6.318,27.885,4.64,36.522,15.594.089.113,3.075,3.069,3.755-.759.558-3.142-5.016-7.939-7.176-9.514-6.142-4.478-14.02-5.922-21.124-8.158C19.952,26.239,11.637,21.841,8.461,14.03,7.336,11.263,9.48-3.337,2.6.7" transform="translate(86.199 68.592)" fill="#3498db" opacity="0.5"/>
      <path id="Fill_137" data-name="Fill 137" d="M50.208.146C46.055,1.291,48.8,7,48.795,9.866A16.946,16.946,0,0,1,45.446,20.02c-5.579,7.224-16.5,8.307-24.692,10.378C14.807,31.9.579,35.129.022,43.171c-.622,8.981,11.939-1.948,13-2.4,11.74-4.307,26.929-5.138,35.991-14.618a23.3,23.3,0,0,0,6.3-14.526c.2-3.035.232-12.944-5.108-11.486" transform="translate(142.189 74.239)" fill="#3498db" opacity="0.5"/>
      <path id="Fill_147" data-name="Fill 147" d="M0,3.04c.263,9.069.136,18.133,1.856,27.076.327,1.7.554,7.859,1.9,9.121,3.3,3.1,3.356-2.845,3.485-5.125.458-8.166-.4-16.586-.588-24.768-.041-1.761.426-5.409-.406-7.114C4.927-.477-.126-1.28,0,3.04" transform="translate(129.772 180.808)" fill="#3498db" opacity="0.5"/>
      <path id="Fill_149-2" data-name="Fill 149" d="M88.268,1.006C75.035,15.859,56.811,14.765,38.452,16.066c-9.7.687-19.508,2.1-27.314,8.373A33.155,33.155,0,0,0,2.274,35.18C1.354,37-3.007,47.511,3.543,45.018c2.323-.884,4.61-7.834,6.112-9.89A29.189,29.189,0,0,1,20.57,25.879c8.472-4.053,18.589-3.984,27.775-4.5,9.6-.537,19.91-1.04,28.737-5.215a43.515,43.515,0,0,0,11.39-7.571c1.194-1.129,3.755-3.046,3.945-4.771.218-1.973-1.678-5.584-4.149-2.816" transform="translate(35.05 175.488)" fill="#3498db" opacity="0.5"/>
      <path id="Fill_151" data-name="Fill 151" d="M46.474.914c-12.431.415-24.847.918-37.26,1.7C6.67,2.78-1.812,2.266.349,7.479c1.731,4.178,12.075,1.414,15.5,1.212,12.936-.768,25.924-1.035,38.833-2.2,2.9-.261,16.007-.157,10.595-5.3C62.7-1.25,50.032.793,46.474.914" transform="translate(10.036 221.169)" fill="#3498db"/>
      <path id="Fill_153" data-name="Fill 153" d="M2.492,1.186C-1.427,6.332.373,18.84.67,25.026c.287,6-.878,16.957,6.948,17.887-2.485-.326,1.886.151,2.6.189,1.589.085,3.185.113,4.776.13,3.675.04,7.353-.009,11.028-.082,8.325-.166,16.671-.408,24.985-.869,3.495-.194,22.454-.032,23.2-3.663.959-4.639-17.219-2.015-20.473-1.867-7.925.364-15.862.44-23.794.544-3.931.052-7.867.091-11.8.013-1.623-.032-8.052.635-9.039-.448-.841-.922-.185-9.4-.2-10.695C8.845,21.94,8.849,17.7,9,13.478c.1-2.844,1.639-8.256.386-10.928A4.328,4.328,0,0,0,2.492,1.186" transform="translate(0 226.894)" fill="#3498db"/>
      <path id="Fill_155" data-name="Fill 155" d="M0,4.914c.227,9.415.3,19.02,2.521,28.227.74,3.064,1.777,9.383,4.855,10.969C10.609,45.776,13.4,43.4,13.61,40.2c.266-4.025-1.889-9.309-2.331-13.438-.516-4.818-.817-9.641-.993-14.483-.134-3.641.973-9.1-2.5-11.449C4.669-1.282-.1.842,0,4.914" transform="translate(66.5 223.406)" fill="#3498db"/>
      <path id="Fill_157" data-name="Fill 157" d="M2.459,1.518C-1.408,5.37.32,17.563.8,22.511c.354,3.624,4.321,21.454,10.265,12.156,2.629-4.113-.711-14.987-.688-19.783.015-3.054,1.1-6.916.575-9.851-.69-3.878-4.99-7.018-8.5-3.516" transform="translate(88.781 224.503)" fill="#3498db"/>
      <path id="Wireframy_Stuff-3" data-name="Wireframy Stuff" d="M5.486,45.9c-2.962-.123-6.125-1.092-5.374-4.92.665-3.4,4.083-3.423,6.869-3.706a239.61,239.61,0,0,1,25.228-1.127c17.723.061,35.431-.031,53.154-.124a3.838,3.838,0,0,1,1.977.761c-.925-1.125-.48-2.79-.652-4.415-.466-4.384-.767-8.694-1.6-13.077-.665-3.507-1.166-9.462-4.414-11.669-2.766-1.877-8.161-1.806-12.41-1.736-1.2.02-2.313.039-3.246.016A294.947,294.947,0,0,0,30.833,7.446c-5.171.471-10.405.828-15.519,1.757-2.847.518-11.2,4.7-13.473,2.126C-3.635,5.135,20.426,2.594,23.693,2.256,35.3,1.059,46.932.159,58.608.048c7.885-.061,21.379-.734,27.177,5.735,3.482,3.885,4.7,10.285,6.063,15.131,1.043,3.723,3.873,10.437,1.862,14.281-.91,1.741-2.375,3.224-4.6,2.608a4.18,4.18,0,0,1-1.244-.544,3.227,3.227,0,0,1,.675,3.518c-1.329,3.085-6.221,2.419-8.877,2.641-8.867.739-17.773,1.232-26.671,1.311-4.234.037-8.467,0-12.7-.033-4.363-.037-8.727-.072-13.089-.029-6.512.064-13.268,1.27-19.774,1.27Q6.454,45.937,5.486,45.9Z" transform="translate(94.318 220.586)" fill="#3498db"/>
      <path id="Line" d="M86.721,45.756h0c-2.144,0-4.351-3.646-5.812-6.059a21.221,21.221,0,0,0-1.238-1.916c-3.123-3.9-5.9-5.954-9.918-7.322C62.2,27.884,53.869,26.911,45.809,25.97c-2.745-.32-5.582-.652-8.3-1.039-1.4-.2-2.833-.381-4.347-.572-7.287-.922-15.547-1.967-21.774-5.49C8.658,17.325.044,9.432,0,4.165A3.817,3.817,0,0,1,2.06.677,4.313,4.313,0,0,1,4.2,0C6.282,0,7.441,2.267,8.463,4.267c.327.639.635,1.242.957,1.742A17.015,17.015,0,0,0,19.86,13.556a157.1,157.1,0,0,0,20.206,3.971c1.741.264,3.54.536,5.3.818,1.441.231,2.938.457,4.386.675,7.982,1.2,16.236,2.448,23.449,5.634,1.5.662,5.372,3.7,9.013,7.445,2.495,2.568,6.708,7.374,6.893,10.71a2.7,2.7,0,0,1-1.391,2.668A1.963,1.963,0,0,1,86.721,45.756Z" transform="translate(160.912 169.703)" fill="#3498db" opacity="0.5"/>
      <path id="Wireframy_Stuff-4" data-name="Wireframy Stuff" d="M9.606,47.28C6.575,46.986,3.319,45.916,4.07,42.1,1.961,38.051.991,30.284.8,28.75A141.692,141.692,0,0,1,.043,8.956,4.336,4.336,0,0,1,7,5.612c3.622-1.517,9.75-1.745,13.043-2.077,5.411-.546,10.868-.75,16.3-1.075C49,1.7,61.66.337,74.354.056c3.8-.08,8.885-.423,11.923,2.381,3.458,3.192,4.147,11.112,5.184,15.379,1.125,4.633,2.47,9.349,2.941,14.1a26.845,26.845,0,0,1,.274,4.747,2.972,2.972,0,0,1,2.366,3.423c-.3,3.109-4.6,3.533-7.123,4.024-8.379,1.637-17.335,1.264-25.83,1.5-13.775.388-28.288,2.2-42.365,2.2C17.638,47.816,13.588,47.664,9.606,47.28Zm1.768-8.842c.39,0,.773,0,1.141,0q13.409-.235,26.8-.771c9.11-.349,18.219-.739,27.336-.844,3.175-.037,6.393.063,9.62.163,4.136.127,8.287.255,12.387.1-1.569-4.107-1.331-10.574-2.168-14.827-.831-4.224-1.146-9.232-2.844-13.2-1.912-4.463-3.573-3.43-8.551-3.092-5.117.347-10.229.836-15.341,1.256-11.239.925-22.486,1.51-33.733,2.293C20.19,9.919,14.609,11.583,8.9,12.237c-.086,2.036-.373,4.091-.341,5.577.1,4.383.528,8.735.909,13.1.154,1.775.887,4.839,1,7.525h.906Z" transform="translate(196.74 217.844)" fill="#3498db"/>
      <g id="Checkmark_" data-name="Checkmark!" transform="translate(110.143 114.127)" opacity="0.5">
        <path id="Fill_292" data-name="Fill 292" d="M40.578,67.045h0A29.859,29.859,0,0,1,32.139,65.8a34.972,34.972,0,0,1-8.3-3.72A41.14,41.14,0,0,1,9.41,47.043,34.99,34.99,0,0,1,4.928,26.806a4.814,4.814,0,0,1-2.471.9A2.038,2.038,0,0,1,.624,26.611c-.994-1.673-.706-4.917.205-6.59a50.027,50.027,0,0,1,5.41-7.461c.35-.426.712-.866,1.057-1.292A30.125,30.125,0,0,1,17.581,2.8,29.9,29.9,0,0,1,30.712,0l.531,0a55.293,55.293,0,0,1,21.02,4.1,38.609,38.609,0,0,1,9.25,5.434A27.934,27.934,0,0,1,71.9,27.6a33.9,33.9,0,0,1-.13,10.735,36.042,36.042,0,0,1-9.485,19.031A32.874,32.874,0,0,1,52,64.627,28.188,28.188,0,0,1,40.578,67.045ZM30.915,8.275a20.943,20.943,0,0,0-7.823,1.3A13.984,13.984,0,0,0,16.742,14.6a25.4,25.4,0,0,0-3.952,8.774,26.564,26.564,0,0,0-.518,9.619,29.128,29.128,0,0,0,3.072,9.322,38.363,38.363,0,0,0,6.144,8.625,33.309,33.309,0,0,0,8.287,6.465,22.592,22.592,0,0,0,9.5,2.842c.388.022.781.032,1.168.032,6.53,0,12.771-3.057,17.573-8.608a30.354,30.354,0,0,0,5.236-8.685A27.636,27.636,0,0,0,65.2,33.228a20.479,20.479,0,0,0-8.78-17.518c-4.684-3.431-11.324-5.849-19.2-6.993A52.783,52.783,0,0,0,30.915,8.275Z" transform="translate(0 4.775)" fill="#3498db"/>
        <path id="Fill_294" data-name="Fill 294" d="M45.023.969A88.61,88.61,0,0,0,27.984,18.043c-4.728,6.1-7.854,13.723-13.533,19.044C11.583,33.963,8.222,25.525,2.5,28.873-2.247,31.65.81,36.427,3.123,39.564c5.971,8.1,12.6,11.358,20.26,3.356,6.955-7.267,10.9-16.961,17.408-24.646,2.853-3.372,7.259-6.719,9.531-10.442,2.059-3.375-.488-10.4-5.3-6.864" transform="translate(15.563 0)" fill="#3498db"/>
      </g>
    </g>
  </g>
</svg>
